<svg xmlns:xlink="http://www.w3.org/1999/xlink" xmlns="http://www.w3.org/2000/svg" version="1.1" viewBox="0 0 1200 1200" height="1200px" width="1200px">
    <title>缺乏思维敏感性</title>
    <defs>
        <linearGradient id="linearGradient-1" y2="100%" x2="50%" y1="0%" x1="50%">
            <stop offset="0%" stop-color="#F9FAFC"></stop>
            <stop offset="100%" stop-color="#F0F2F5"></stop>
        </linearGradient>
        <circle r="400" cy="400" cx="400" id="path-2"></circle>
        <linearGradient id="linearGradient-4" y2="144.66056%" x2="50%" y1="-32.5010362%" x1="50%">
            <stop offset="0%" stop-color="#FBFCFE"></stop>
            <stop offset="100%" stop-color="#CED6E5"></stop>
        </linearGradient>
        <linearGradient id="linearGradient-5" y2="100%" x2="7.93561841%" y1="22.6135855%" x1="7.93561841%">
            <stop offset="0%" stop-color="#FCFDFF"></stop>
            <stop offset="100%" stop-color="#F5F8FF"></stop>
        </linearGradient>
        <linearGradient id="linearGradient-6" y2="50%" x2="100%" y1="50%" x1="0%">
            <stop offset="0%" stop-color="#8F9BB3"></stop>
            <stop offset="100%" stop-color="#596680"></stop>
        </linearGradient>
        <linearGradient id="linearGradient-7" y2="100%" x2="7.93561841%" y1="22.6135855%" x1="7.93561841%">
            <stop offset="0%" stop-color="#FCFDFF"></stop>
            <stop offset="100%" stop-color="#F5F8FF"></stop>
        </linearGradient>
        <path id="path-8" d="M300,50 C438.071429,50 550,162.122819 550,300.433866 C550,396.718035 499.77624,481.319838 419.04598,523.201238 L419.047619,573.726883 C419.047619,599.144745 399.151613,620.098052 373.809524,621.368945 L371.428571,621.428571 L228.571429,621.428571 C203.197603,621.428571 182.280597,601.498036 181.011905,576.111967 L180.952138,573.726883 L180.95402,523.201238 C100.22376,481.319838 50,396.718035 50,300.433866 C50,162.122819 161.928571,50 300,50 Z"></path>
        <filter id="filter-9" filterUnits="objectBoundingBox" height="167.4%" width="177.0%" y="-26.2%" x="-38.5%">
            <feOffset result="shadowOffsetOuter1" in="SourceAlpha" dy="43" dx="0"></feOffset>
            <feGaussianBlur result="shadowBlurOuter1" in="shadowOffsetOuter1" stdDeviation="57"></feGaussianBlur>
            <feColorMatrix in="shadowBlurOuter1" type="matrix" values="0 0 0 0 0.56   0 0 0 0 0.606666667   0 0 0 0 0.7  0 0 0 0.36166958 0"></feColorMatrix>
        </filter>
        <linearGradient id="linearGradient-10" y2="50%" x2="100%" y1="50%" x1="0%">
            <stop offset="0%" stop-color="#E9EDF3"></stop>
            <stop offset="100%" stop-color="#CBD3E1"></stop>
        </linearGradient>
        <linearGradient id="linearGradient-11" y2="50%" x2="100%" y1="50%" x1="0%">
            <stop offset="0%" stop-color="#E9EDF3"></stop>
            <stop offset="100%" stop-color="#CBD3E1"></stop>
        </linearGradient>
        <linearGradient id="linearGradient-12" y2="50%" x2="100%" y1="50%" x1="0%">
            <stop offset="0%" stop-color="#E9EDF3"></stop>
            <stop offset="100%" stop-color="#CBD3E1"></stop>
        </linearGradient>
        <linearGradient id="linearGradient-13" y2="69.2257343%" x2="72.2273149%" y1="30.6559781%" x1="22.1967321%">
            <stop offset="0%" stop-color="#FF5D90"></stop>
            <stop offset="100%" stop-color="#FF3959"></stop>
        </linearGradient>
    </defs>
    <g fill-rule="evenodd" fill="none" stroke-width="1" stroke="none" id="缺乏思维敏感性">
        <g transform="translate(100.000000, 100.000000)">
            <rect height="1000" width="1000" y="0" x="0" id="矩形"></rect>
            <g transform="translate(71.428571, 71.428571)" id="编组-90">
                <path fill-rule="nonzero" fill="#EBEDF0" fill-opacity="0.658790428" id="椭圆形" d="M442.956101,-3.33649282 C444.927492,-3.27200707 446.473345,-1.62160277 446.408859,0.349788353 C446.344373,2.32117948 444.693969,3.86703172 442.722578,3.80254598 C438.01548,3.64857312 433.29803,3.57142857 428.571429,3.57142857 C426.598983,3.57142857 425,1.97244554 425,0 C425,-1.97244554 426.598983,-3.57142857 428.571429,-3.57142857 C433.375892,-3.57142857 438.171193,-3.49301092 442.956101,-3.33649282 Z M486.014747,0.213402039 C487.970019,0.473120082 489.344537,2.26872415 489.084819,4.22399598 C488.825101,6.17926781 487.029497,7.55378574 485.074225,7.29406769 C480.399209,6.67308699 475.708564,6.12921351 471.003632,5.66288592 C469.040804,5.46834096 467.607327,3.71944465 467.801872,1.75661668 C467.996417,-0.206211296 469.745314,-1.63968791 471.708142,-1.44514294 C476.491912,-0.971001355 481.261238,-0.418004844 486.014747,0.213402039 Z M528.518793,8.04552699 C530.438165,8.50000838 531.625693,10.4243966 531.171212,12.3437684 C530.71673,14.2631402 528.792342,15.4506685 526.87297,14.9961871 C522.280002,13.9086341 517.665668,12.8973816 513.031433,11.9630128 C511.097897,11.5731673 509.846489,9.68969439 510.236334,7.75615828 C510.62618,5.82262217 512.509653,4.57121368 514.443189,4.96105917 C519.15576,5.91122224 523.848127,6.93957613 528.518793,8.04552699 Z M570.04302,20.1180675 C571.906865,20.7635305 572.894559,22.7977266 572.249096,24.6615719 C571.603633,26.5254171 569.569437,27.513111 567.705592,26.8676481 C563.241745,25.3217859 558.750441,23.8504202 554.233245,22.4542981 C552.348753,21.8718614 551.293229,19.8720209 551.875666,17.9875292 C552.458102,16.1030375 554.457943,15.0475133 556.342435,15.62995 C560.936161,17.0497252 565.503555,18.5460181 570.04302,20.1180675 Z M610.035592,36.2612535 C611.825276,37.0904547 612.603901,39.2134801 611.774699,41.0031636 C610.945498,42.792847 608.822473,43.5714717 607.032789,42.7422705 C602.75245,40.7590915 598.438515,38.8473482 594.092604,37.0079566 C592.276157,36.2391517 591.426875,34.1433908 592.19568,32.3269436 C592.964485,30.5104964 595.060246,29.6612145 596.876693,30.4300195 C601.29608,32.3005096 605.682929,34.2445654 610.035592,36.2612535 Z M648.317396,56.3920965 C650.014943,57.3965249 650.576826,59.5869085 649.572398,61.2844553 C648.56797,62.982002 646.377586,63.5438855 644.680039,62.5394571 C640.614569,60.1339426 636.509114,57.7963352 632.36532,55.5277302 C630.635187,54.5805334 630.000492,52.4101289 630.947689,50.6799961 C631.894886,48.9498633 634.06529,48.3151682 635.795423,49.262365 C640.008982,51.5691645 644.183532,53.9461132 648.317396,56.3920965 Z M684.366014,80.2307785 C685.954924,81.3994989 686.295555,83.6349997 685.126834,85.2239095 C683.958114,86.8128192 681.722613,87.15345 680.133703,85.9847297 C676.33005,83.1869581 672.480245,80.4525794 668.58591,77.7828539 C666.959046,76.6675719 666.544327,74.4446231 667.659609,72.8177588 C668.774891,71.1908945 670.99784,70.7761751 672.624704,71.8914572 C676.58432,74.6059357 680.49864,77.3861366 684.366014,80.2307785 Z M717.866493,107.543539 C719.331343,108.864431 719.448045,111.122721 718.127153,112.587572 C716.806262,114.052422 714.547972,114.169124 713.083121,112.848232 C709.578369,109.687911 706.021542,106.585843 702.414197,103.543434 C700.906408,102.271775 700.714987,100.018589 701.986645,98.5107999 C703.258304,97.0030113 705.511491,96.8115899 707.019279,98.0832482 C710.686916,101.176507 714.303181,104.330413 717.866493,107.543539 Z M748.433357,137.988513 C749.760092,139.448073 749.652416,141.706812 748.192856,143.033547 C746.733296,144.360282 744.474558,144.252607 743.147823,142.793047 C739.9692,139.2962 736.732737,135.852195 733.439893,132.462562 C732.065509,131.04778 732.098258,128.786713 733.51304,127.412329 C734.927823,126.037945 737.188889,126.070694 738.563273,127.485477 C741.911115,130.931724 745.201637,134.433254 748.433357,137.988513 Z M775.866553,171.361446 C777.041711,172.945601 776.710154,175.182465 775.126,176.357623 C773.541845,177.532781 771.304981,177.201224 770.129823,175.61707 C767.317167,171.82551 764.441647,168.080753 761.504583,164.384404 C760.277511,162.840112 760.534669,160.593478 762.078961,159.366407 C763.623252,158.139335 765.869886,158.396493 767.096958,159.940785 C770.083166,163.698982 773.006811,167.506412 775.866553,171.361446 Z M799.856275,207.32069 C800.867575,209.014152 800.314574,211.206795 798.621112,212.218095 C796.92765,213.229396 794.735007,212.676394 793.723707,210.982932 C791.30343,206.930084 788.815769,202.917856 786.261881,198.947891 C785.194743,197.289048 785.674415,195.079205 787.333258,194.012067 C788.9921,192.94493 791.201944,193.424602 792.269081,195.083444 C794.865863,199.120086 797.39532,203.199724 799.856275,207.32069 Z M820.124498,245.482078 C820.961154,247.268289 820.191387,249.394542 818.405176,250.231197 C816.618965,251.067852 814.492712,250.298085 813.656056,248.511874 C811.653427,244.236376 809.579592,239.995232 807.435535,235.790078 C806.539591,234.032857 807.237794,231.882042 808.995015,230.986098 C810.752236,230.090154 812.903051,230.788357 813.798995,232.545578 C815.979224,236.821676 818.088059,241.134397 820.124498,245.482078 Z M836.462279,285.485934 C837.115165,287.347192 836.135586,289.385308 834.274328,290.038195 C832.41307,290.691081 830.374954,289.711502 829.722068,287.850244 C828.158684,283.393323 826.521078,278.964535 824.810059,274.565468 C824.095056,272.727178 825.00566,270.657324 826.84395,269.942321 C828.68224,269.227317 830.752094,270.137921 831.467097,271.976211 C833.207083,276.449753 834.872418,280.953534 836.462279,285.485934 Z M848.699731,326.95972 C849.161861,328.877265 847.982014,330.806372 846.064469,331.268502 C844.146925,331.730633 842.217817,330.550786 841.755687,328.633241 C840.648799,324.040363 839.465629,319.469551 838.206817,314.922308 C837.680578,313.021358 838.795001,311.053731 840.695952,310.527492 C842.596902,310.001252 844.564529,311.115676 845.090768,313.016626 C846.370899,317.64088 847.574104,322.289089 848.699731,326.95972 Z M856.704349,369.458356 C856.971689,371.4126 855.604183,373.213551 853.649939,373.480891 C851.695695,373.748231 849.894745,372.380726 849.627404,370.426481 C848.986654,365.742634 848.268497,361.07511 847.473422,356.425299 C847.140977,354.481072 848.447585,352.635464 850.391813,352.303019 C852.336041,351.970574 854.181649,353.277182 854.514094,355.221409 C855.322567,359.949575 856.052818,364.695698 856.704349,369.458356 Z M860.420054,412.476216 C860.492237,414.44734 858.95284,416.103768 856.981716,416.17595 C855.010591,416.248133 853.354164,414.708736 853.281982,412.737612 C853.108863,408.010178 852.858222,403.293762 852.530419,398.589621 C852.393304,396.621947 853.877265,394.915678 855.844939,394.778563 C857.812612,394.641448 859.518881,396.125408 859.655997,398.093082 C859.989256,402.87552 860.244063,407.670327 860.420054,412.476216 Z M859.883293,455.589531 C859.761833,457.558233 858.067421,459.055718 856.098718,458.934257 C854.130016,458.812797 852.632531,457.118385 852.753992,455.149683 C853.043952,450.449846 853.25699,445.738184 853.392757,441.015935 C853.449442,439.044305 855.093717,437.491935 857.065348,437.54862 C859.036979,437.605305 860.589349,439.24958 860.532664,441.221211 C860.394647,446.021713 860.178073,450.811577 859.883293,455.589531 Z M855.082509,498.515077 C854.765658,500.461907 852.930583,501.783266 850.983753,501.466416 C849.036923,501.149565 847.715563,499.314489 848.032414,497.367659 C848.790193,492.71163 849.470994,488.038339 850.074337,483.349164 C850.326051,481.392846 852.116015,480.010992 854.072334,480.262706 C856.028652,480.51442 857.410507,482.304384 857.158793,484.260702 C856.545305,489.028714 855.853049,493.780643 855.082509,498.515077 Z M846.004313,540.773437 C845.493493,542.678589 843.534961,543.808919 841.629809,543.2981 C839.724657,542.787281 838.594327,540.828749 839.105146,538.923597 C840.327617,534.364267 841.474238,529.781829 842.544378,525.17778 C842.990938,523.25655 844.910411,522.061094 846.831642,522.507654 C848.752872,522.954214 849.948328,524.873688 849.501768,526.794918 C848.413516,531.476889 847.247484,536.136905 846.004313,540.773437 Z M832.715426,581.918237 C832.015354,583.762266 829.952954,584.689627 828.108925,583.989555 C826.264897,583.289484 825.337536,581.227083 826.037608,579.383055 C827.713024,574.969911 829.314797,570.527543 830.842132,566.057532 C831.479886,564.191035 833.509983,563.194942 835.37648,563.832696 C837.242977,564.47045 838.23907,566.500546 837.601316,568.367043 C836.048112,572.912765 834.419211,577.430368 832.715426,581.918237 Z M815.384221,621.456527 C814.502664,623.221009 812.357625,623.936762 810.593142,623.055204 C808.82866,622.173647 808.112908,620.028608 808.994465,618.264125 C811.106981,614.035817 813.14879,609.771933 815.118918,605.474114 C815.940848,603.681079 818.060696,602.893844 819.85373,603.715774 C821.646765,604.537705 822.434,606.657552 821.61207,608.450587 C819.608669,612.820989 817.532389,617.156858 815.384221,621.456527 Z M794.159623,659.094184 C793.106008,660.761648 790.900137,661.259271 789.232673,660.205656 C787.565209,659.152041 787.067586,656.946171 788.121201,655.278707 C790.642585,651.288332 793.097396,647.256206 795.484491,643.183971 C796.481971,641.482332 798.67004,640.911499 800.371678,641.908979 C802.073317,642.90646 802.644151,645.094528 801.64667,646.796167 C799.21944,650.93687 796.723369,655.036766 794.159623,659.094184 Z M769.274533,694.438637 C768.060018,695.992823 765.815542,696.268181 764.261356,695.053667 C762.707169,693.839152 762.431811,691.594676 763.646326,690.04049 C766.556041,686.316995 769.40369,682.545494 772.187963,678.727601 C773.35018,677.133928 775.58427,676.784164 777.177943,677.946381 C778.771616,679.108598 779.12138,681.342688 777.959163,682.936361 C775.128266,686.818186 772.232946,690.652824 769.274533,694.438637 Z M740.996689,727.132142 C739.63376,728.557963 737.373031,728.608947 735.94721,727.246018 C734.521389,725.883089 734.470405,723.622361 735.833334,722.19654 C739.094745,718.784632 742.299466,715.318947 745.446055,711.801016 C746.761031,710.330853 749.018833,710.20505 750.488995,711.520027 C751.959158,712.835003 752.084961,715.092805 750.769984,716.562967 C747.570829,720.139668 744.312575,723.663245 740.996689,727.132142 Z M709.682887,756.794737 C708.18538,758.078488 705.930726,757.905204 704.646975,756.407698 C703.363225,754.910191 703.536508,752.655537 705.034015,751.371786 C708.62118,748.296658 712.157225,745.162148 715.640595,741.969678 C717.09472,740.636988 719.353879,740.735431 720.686569,742.189556 C722.019259,743.643681 721.920816,745.902841 720.466691,747.23553 C716.925125,750.481337 713.329997,753.66822 709.682887,756.794737 Z M675.500387,783.262894 C673.882577,784.39127 671.656354,783.994506 670.527977,782.376696 C669.399601,780.758887 669.796365,778.532663 671.414175,777.404287 C675.288919,774.701763 679.118588,771.934893 682.901559,769.104952 C684.480975,767.923433 686.719155,768.245992 687.900674,769.825407 C689.082193,771.404823 688.759635,773.643003 687.180219,774.824522 C683.333891,777.701859 679.440064,780.515082 675.500387,783.262894 Z M638.894306,806.167374 C637.172008,807.128742 634.996466,806.511886 634.035098,804.789587 C633.07373,803.067289 633.690586,800.891747 635.412884,799.930379 C639.535171,797.629363 643.618658,795.259759 647.661699,792.822674 C649.350977,791.804402 651.545881,792.34836 652.564154,794.037639 C653.582426,795.726918 653.038468,797.921822 651.349189,798.940094 C647.238156,801.418164 643.085971,803.827633 638.894306,806.167374 Z M600.120438,825.324197 C598.310367,826.107896 596.207701,825.275858 595.424001,823.465787 C594.640301,821.655716 595.47234,819.55305 597.282411,818.769351 C601.617606,816.892357 605.920246,814.943115 610.188702,812.922556 C611.971493,812.078637 614.100862,812.839742 614.944781,814.622533 C615.7887,816.405323 615.027595,818.534692 613.244804,819.378611 C608.904248,821.4333 604.528907,823.415479 600.120438,825.324197 Z M559.636539,840.480257 C557.756798,841.077848 555.748524,840.038461 555.150932,838.15872 C554.553341,836.278979 555.592729,834.270704 557.472469,833.673113 C561.97435,832.241913 566.449895,830.735775 570.897536,829.155458 C572.756144,828.495066 574.798197,829.466411 575.45859,831.325019 C576.118983,833.183627 575.147637,835.22568 573.289029,835.886073 C568.76605,837.493158 564.214688,839.024811 559.636539,840.480257 Z M517.840234,851.482601 C515.909906,851.888037 514.016396,850.651868 513.610961,848.72154 C513.205525,846.791213 514.441694,844.897703 516.372022,844.492268 C520.996686,843.520928 525.600998,842.472863 530.183485,841.348667 C532.099127,840.878713 534.033035,842.050675 534.502988,843.966317 C534.972942,845.88196 533.80098,847.815867 531.885338,848.285821 C527.225306,849.42904 522.543103,850.494836 517.840234,851.482601 Z M475.148272,858.233177 C473.187058,858.44337 471.426785,857.023886 471.216592,855.062672 C471.0064,853.101458 472.425883,851.341185 474.387097,851.130993 C479.088971,850.627071 483.776119,850.04559 488.44719,849.387002 C490.400318,849.111624 492.206878,850.471709 492.482256,852.424837 C492.757634,854.377965 491.397548,856.184526 489.44442,856.459903 C484.694855,857.12956 479.92901,857.720803 475.148272,858.233177 Z M432.065065,860.700456 C430.092681,860.716076 428.481085,859.129807 428.46535,857.157423 C428.449844,855.185039 430.036113,853.573443 432.008497,853.557823 C436.740067,853.52035 441.46207,853.405501 446.173291,853.213601 C448.144102,853.133325 449.806837,854.665907 449.887113,856.636718 C449.967389,858.607529 448.434808,860.270264 446.463996,860.35054 C441.674772,860.545617 436.874713,860.662365 432.065065,860.700456 Z M388.924853,858.919695 C386.960518,858.741008 385.512963,857.003746 385.69165,855.039411 C385.870337,853.075076 387.607599,851.627521 389.571934,851.806208 C394.271034,852.233664 398.983539,852.583841 403.708162,852.856354 C405.677335,852.969935 407.18159,854.658339 407.068009,856.627512 C406.954429,858.596685 405.266024,860.100939 403.296851,859.987359 C398.493531,859.710307 393.702425,859.354289 388.924853,858.919695 Z M346.178722,852.868337 C344.242037,852.494451 342.975138,850.621362 343.349024,848.684677 C343.72291,846.747992 345.595999,845.481093 347.532684,845.854979 C352.161961,846.748683 356.810143,847.565746 361.475817,848.305648 C363.423918,848.614586 364.752722,850.444278 364.443784,852.39238 C364.134846,854.340481 362.305154,855.669285 360.357053,855.360347 C355.612726,854.607972 350.886134,853.777126 346.178722,852.868337 Z M304.232184,842.557848 C302.342885,841.991199 301.270665,840.00026 301.837314,838.110961 C302.403963,836.221662 304.394902,835.149442 306.284201,835.716091 C310.80213,837.071133 315.34489,838.350985 319.910958,839.554972 C321.818214,840.05788 322.956663,842.011704 322.453755,843.918959 C321.950847,845.826215 319.997023,846.964664 318.089767,846.461756 C313.446363,845.237377 308.826651,843.935845 304.232184,842.557848 Z M263.463125,828.050756 C261.640533,827.296635 260.774366,825.207796 261.528487,823.385204 C262.282609,821.562611 264.371448,820.696444 266.19404,821.450566 C270.558002,823.256212 274.953044,824.988968 279.37756,826.647987 C281.224442,827.340495 282.160248,829.399078 281.46774,831.24596 C280.775232,833.092842 278.716649,834.028647 276.869767,833.336139 C272.370353,831.649037 267.900928,829.886955 263.463125,828.050756 Z M224.464092,809.570155 C222.726229,808.637216 222.073709,806.472104 223.006648,804.734241 C223.939587,802.996378 226.104699,802.343859 227.842562,803.276798 C232.001089,805.509224 236.196927,807.67222 240.428438,809.764764 C242.196509,810.639101 242.921024,812.781196 242.046687,814.549267 C241.17235,816.317339 239.030255,817.041853 237.262183,816.167516 C232.959297,814.039676 228.692711,811.840209 224.464092,809.570155 Z M187.479807,787.263788 C185.843777,786.161996 185.410691,783.942552 186.512483,782.306522 C187.614275,780.670491 189.833719,780.237405 191.469749,781.339197 C195.38353,783.97495 199.340844,786.545464 203.340056,789.049548 C205.011826,790.096317 205.518489,792.300129 204.47172,793.971899 C203.424951,795.643669 201.221139,796.150332 199.549369,795.103563 C195.483002,792.55743 191.459261,789.943768 187.479807,787.263788 Z M152.857361,761.346138 C151.33919,760.086892 151.12929,757.835352 152.388535,756.317181 C153.647781,754.79901 155.899321,754.58911 157.417492,755.848355 C161.050425,758.861688 164.733005,761.814575 168.463642,764.705668 C170.022724,765.913893 170.307149,768.157238 169.098924,769.716319 C167.890699,771.2754 165.647355,771.559825 164.088273,770.351601 C160.295222,767.41214 156.551047,764.409862 152.857361,761.346138 Z M121.022943,732.152434 C119.637241,730.748735 119.65183,728.487478 121.055529,727.101776 C122.459228,725.716074 124.720485,725.730663 126.106187,727.134362 C129.425002,730.496281 132.799339,733.80303 136.227693,737.053127 C137.65914,738.410146 137.719476,740.670645 136.362457,742.102092 C135.005438,743.533539 132.74494,743.593874 131.313493,742.236855 C127.827879,738.932475 124.397186,735.5705 121.022943,732.152434 Z M92.26738,699.974482 C91.0277138,698.440282 91.2664805,696.191619 92.8006803,694.951953 C94.3348801,693.712287 96.5835428,693.951053 97.823209,695.485253 C100.791051,699.158227 103.81972,702.781871 106.907838,706.354607 C108.197684,707.846867 108.033594,710.102209 106.541334,711.392054 C105.049073,712.6819 102.793731,712.51781 101.503886,711.025549 C98.3641499,707.393096 95.2848475,703.708872 92.26738,699.974482 Z M66.8085586,665.040018 C65.727833,663.389996 66.1893391,661.176287 67.8393614,660.095562 C69.4893837,659.014836 71.7030923,659.476342 72.7838179,661.126364 C75.3724772,665.078658 78.0268348,668.987673 80.7456618,672.851773 C81.8806922,674.464922 81.4931011,676.692761 79.8799528,677.827791 C78.2668046,678.962822 76.0389656,678.57523 74.9039351,676.962082 C72.1395241,673.033196 69.4406488,669.058621 66.8085586,665.040018 Z M44.9607777,627.736679 C44.0504583,625.986861 44.7310057,623.830395 46.4808228,622.920075 C48.2306399,622.009756 50.3871066,622.690303 51.2974261,624.44012 C53.4761007,628.627971 55.7244833,632.778869 58.0415179,636.891169 C59.0097583,638.609614 58.4015976,640.787602 56.683153,641.755843 C54.9647084,642.724083 52.7867199,642.115923 51.8184794,640.397478 C49.462427,636.215928 47.1761681,631.995105 44.9607777,627.736679 Z M26.9698941,588.453784 C26.2397833,586.621441 27.1333189,584.544162 28.9656616,583.814052 C30.7980043,583.083941 32.8752832,583.977476 33.6053939,585.809819 C35.3539179,590.198051 37.1755633,594.555563 39.0694482,598.88074 C39.8606095,600.687562 39.037254,602.793643 37.2304321,603.584804 C35.4236103,604.375966 33.3175288,603.55261 32.5263675,601.745788 C30.6004578,597.347474 28.7480006,592.916258 26.9698941,588.453784 Z M13.0143267,547.546965 C12.4723524,545.65044 13.5704324,543.673646 15.466957,543.131672 C17.3634815,542.589698 19.3402753,543.687778 19.8822496,545.584303 C21.1803534,550.126743 22.5540158,554.644625 24.0025273,559.136405 C24.6079033,561.013653 23.576847,563.026218 21.6995987,563.631594 C19.8223504,564.23697 17.8097857,563.205914 17.2044097,561.328665 C15.7313574,556.760785 14.3344221,552.16636 13.0143267,547.546965 Z M3.24014965,505.410561 C2.89172178,503.469134 4.18310286,501.61284 6.12453002,501.264412 C8.06595717,500.915984 9.92225144,502.207365 10.2706793,504.148792 C11.1057854,508.801973 12.017999,513.436481 13.0067691,518.050878 C13.4200422,519.979542 12.1915747,521.878058 10.2629102,522.291331 C8.33424567,522.704604 6.43573016,521.476137 6.02245709,519.547472 C5.01697717,514.855094 4.08935456,510.1423 3.24014965,505.410561 Z M-2.258104,462.510764 C-2.41089708,460.544246 -0.940581991,458.826204 1.02593667,458.673411 C2.99245534,458.520618 4.71049697,459.990933 4.86329005,461.957452 C5.2296734,466.672977 5.67366685,471.375346 6.19485932,476.063245 C6.41280953,478.023612 5.00030157,479.789487 3.03993449,480.007438 C1.07956741,480.225388 -0.686307662,478.81288 -0.904257872,476.852513 C-1.43417842,472.086109 -1.8855991,467.305077 -2.258104,462.510764 Z M-3.47685032,419.439988 C-3.43596535,417.467966 -1.80418204,415.90247 0.167839713,415.943355 C2.13986147,415.98424 3.70535715,417.616023 3.66447219,419.588045 C3.6024695,422.578647 3.57142857,425.573209 3.57142857,428.571429 C3.57142857,430.296832 3.58170849,432.021031 3.60225345,433.743968 C3.62577198,435.716273 2.04596815,437.334208 0.0736628331,437.357726 C-1.89864249,437.381245 -3.51657739,435.801441 -3.54009592,433.829136 C-3.56097939,432.077811 -3.57142857,430.325223 -3.57142857,428.571429 C-3.57142857,425.523851 -3.53987604,422.479934 -3.47685032,419.439988 Z M-0.450377972,376.370589 C-0.214571138,374.412289 1.5641034,373.015933 3.52240279,373.25174 C5.48070219,373.487547 6.87705831,375.266222 6.64125147,377.224521 C6.07801712,381.902 5.5917776,386.594409 5.18295427,391.300426 C5.01224602,393.265471 3.28087629,394.720068 1.31583174,394.54936 C-0.649212811,394.378651 -2.10380979,392.647282 -1.93310154,390.682237 C-1.51743876,385.89749 -1.02305536,381.126489 -0.450377972,376.370589 Z M6.86436221,333.752364 C7.29528306,331.827566 9.20497078,330.616539 11.1297691,331.04746 C13.0545674,331.478381 14.2655944,333.388068 13.8346735,335.312867 C12.8033625,339.919434 11.8485396,344.546657 10.9707701,349.193084 C10.6046262,351.131248 8.73661543,352.405623 6.79845136,352.039479 C4.86028728,351.673335 3.58591318,349.805324 3.95205714,347.86716 C4.84465416,343.142244 5.81561417,338.436817 6.86436221,333.752364 Z M18.4047969,292.148371 C19.0270369,290.276645 21.048796,289.263737 22.9205221,289.885977 C24.7922482,290.508217 25.8051568,292.529976 25.1829168,294.401702 C23.6939637,298.88054 22.2796679,303.38603 20.940754,307.91662 C20.3817423,309.808193 18.3951511,310.888447 16.5035784,310.329435 C14.6120057,309.770424 13.5317516,307.783832 14.0907633,305.89226 C15.4523611,301.284912 16.8906184,296.703089 18.4047969,292.148371 Z M34.0805405,251.89039 C34.8877967,250.090701 37.001143,249.286176 38.8008315,250.093432 C40.6005201,250.900688 41.4050454,253.014034 40.5977892,254.813723 C38.6659768,259.120485 36.8060785,263.460119 35.0189907,267.831006 C34.2725167,269.656743 32.1873272,270.531659 30.3615895,269.785185 C28.5358519,269.038711 27.6609358,266.953522 28.4074098,265.127784 C30.2247242,260.682968 32.1160722,256.269955 34.0805405,251.89039 Z M53.7203193,213.404848 C54.7038275,211.695096 56.8871466,211.106359 58.5968989,212.089867 C60.3066512,213.073375 60.8953882,215.256695 59.91188,216.966447 C57.5553595,221.063073 55.2673088,225.198953 53.0488033,229.372435 C52.1229831,231.114101 49.9605588,231.775474 48.2188934,230.849654 C46.477228,229.923833 45.8158548,227.761409 46.741675,226.019744 C48.9975524,221.775957 51.324132,217.570432 53.7203193,213.404848 Z M77.1101511,177.074325 C78.2593198,175.471218 80.4904803,175.103228 82.0935875,176.252397 C83.6966946,177.401565 84.0646844,179.632726 82.9155157,181.235833 C80.1621178,185.076863 77.472809,188.963374 74.8488337,192.893732 C73.7536382,194.534186 71.5359564,194.976205 69.8955027,193.881009 C68.255049,192.785814 67.8130299,190.568132 68.9082254,188.927678 C71.5762083,184.931403 74.3106052,180.979732 77.1101511,177.074325 Z M104.014826,143.238007 C105.317739,141.757143 107.574437,141.612886 109.0553,142.9158 C110.536164,144.218713 110.680421,146.475411 109.377507,147.956275 C106.259303,151.500359 103.200036,155.095832 100.201098,158.741125 C98.9479641,160.264344 96.6972852,160.483291 95.1740661,159.230157 C93.650847,157.977023 93.4318997,155.726344 94.6850338,154.203125 C97.7341076,150.496891 100.844509,146.841321 104.014826,143.238007 Z M134.07854,112.307537 C135.521776,110.963062 137.781661,111.043123 139.126137,112.486358 C140.470612,113.929593 140.390551,116.189479 138.947315,117.533954 C135.491521,120.753269 132.089217,124.029692 128.741918,127.36175 C127.344009,128.753293 125.082712,128.748133 123.691168,127.350225 C122.299625,125.952316 122.304785,123.691019 123.702693,122.299475 C127.105897,118.911767 130.565025,115.580623 134.07854,112.307537 Z M167.117464,84.4650203 C168.687119,83.2705648 170.927874,83.5747242 172.122329,85.1443794 C173.316785,86.7140346 173.012625,88.9547891 171.44297,90.1492446 C167.68537,93.008654 163.975335,95.9303503 160.314465,98.9129967 C158.785298,100.158866 156.535687,99.9292072 155.289818,98.4000401 C154.043949,96.8708731 154.273607,94.6212619 155.802774,93.3753929 C159.524878,90.3428573 163.296982,87.3722803 167.117464,84.4650203 Z M202.773619,60.0400884 C204.454511,59.0080309 206.653792,59.5340154 207.685849,61.2149076 C208.717907,62.8957999 208.191922,65.0950802 206.51103,66.1271377 C202.485013,68.5990875 198.500451,71.1380098 194.558987,73.7427242 C192.913408,74.8302041 190.697827,74.3777757 189.610347,72.7321971 C188.522867,71.0866185 188.975295,68.8710369 190.620874,67.783557 C194.6285,65.1351193 198.679971,62.5535629 202.773619,60.0400884 Z M240.684561,39.3017346 C242.460302,38.4430825 244.5959,39.1865304 245.454552,40.9622719 C246.313205,42.7380134 245.569757,44.8736114 243.794015,45.7322635 C239.543227,47.7877135 235.327573,49.9139572 231.14869,52.1099891 C229.402656,53.0275426 227.243391,52.3559258 226.325837,50.6098912 C225.408284,48.8638565 226.079901,46.7045917 227.825935,45.7870382 C232.075281,43.5539774 236.362045,41.3918682 240.684561,39.3017346 Z M280.525183,22.454988 C282.378281,21.7792878 284.428277,22.733757 285.103977,24.5868545 C285.779677,26.4399521 284.825208,28.4899477 282.97211,29.165648 C278.5333,30.7841841 274.123395,32.4766774 269.743995,34.242297 C267.914629,34.979833 265.833743,34.0947296 265.096207,32.265363 C264.358671,30.4359965 265.243774,28.3551108 267.073141,27.6175747 C271.526661,25.8220727 276.011217,24.1009283 280.525183,22.454988 Z M321.831301,9.71253385 C323.743011,9.22682971 325.686498,10.3828354 326.172203,12.2945448 C326.657907,14.2062542 325.501901,16.1497419 323.590192,16.635446 C319.00975,17.7991896 314.452119,19.0390725 309.918814,20.354433 C308.024499,20.904078 306.043277,19.814007 305.493632,17.9196914 C304.943987,16.0253757 306.034058,14.0441542 307.928374,13.4945092 C312.538468,12.1568676 317.173293,10.8959845 321.831301,9.71253385 Z M364.189045,1.19246286 C366.139844,0.901048905 367.957518,2.2462468 368.248932,4.19704645 C368.540346,6.14784611 367.195148,7.96551938 365.244348,8.25693334 C360.569619,8.95525282 355.911895,9.73088004 351.272582,10.5833076 C349.332612,10.9397578 347.470995,9.65606118 347.114545,7.71609091 C346.758095,5.77612064 348.041791,3.91450403 349.981762,3.55805382 C354.69933,2.69124772 359.435569,1.90254555 364.189045,1.19246286 Z M407.194432,-3.05184321 C409.164541,-3.14782701 410.83944,-1.62854856 410.935423,0.341560193 C411.031407,2.31166895 409.512129,3.98656789 407.54202,4.0825517 C402.817136,4.31274829 398.103895,4.62051538 393.403568,5.00547836 C391.437705,5.16648517 389.713536,3.70335997 389.55253,1.73749675 C389.391523,-0.228366468 390.854648,-1.95253529 392.820511,-2.11354211 C397.599224,-2.50492505 402.390966,-2.81781809 407.194432,-3.05184321 Z"></path>
                <g transform="translate(28.571429, 28.571429)" id="路径-37-+-路径-38-蒙版">
                    <mask fill="white" id="mask-3">
                        <use xlink:href="#path-2"></use>
                    </mask>
                    <use xlink:href="#path-2" fill="url(#linearGradient-1)" id="蒙版"></use>
                    <path mask="url(#mask-3)" fill-rule="nonzero" fill="#0F5EFF" id="形状" d="M224.189779,153.515244 C223.00093,151.473788 221.78676,149.4791 220.54729,147.531156 C219.488412,145.867029 219.979064,143.659597 221.643191,142.600719 C223.307318,141.541842 225.51475,142.032493 226.573628,143.69662 C227.863663,145.724033 229.126533,147.798727 230.362259,149.920678 C231.35487,151.625162 230.777785,153.811589 229.073301,154.804201 C227.368818,155.796813 225.182391,155.219727 224.189779,153.515244 Z M208.184087,130.634735 C206.672201,128.843089 205.130734,127.106005 203.55969,125.423425 C202.213563,123.98173 202.291036,121.721754 203.73273,120.375627 C205.174425,119.0295 207.434401,119.106973 208.780528,120.548668 C210.433535,122.319029 212.05437,124.145554 213.643034,126.028184 C214.915098,127.535631 214.724283,129.788869 213.216836,131.060933 C211.70939,132.332997 209.456151,132.142182 208.184087,130.634735 Z M188.160477,111.394224 C186.320821,109.981637 184.448379,108.628619 182.543094,107.335104 C180.911199,106.227196 180.486424,104.006146 181.594332,102.374252 C182.70224,100.742357 184.923289,100.317581 186.555184,101.42549 C188.575715,102.797246 190.56089,104.231724 192.510652,105.728856 C194.0751,106.930124 194.369516,109.172179 193.168248,110.736627 C191.966981,112.301075 189.724925,112.595491 188.160477,111.394224 Z M164.341804,97.2246094 C162.235693,96.2899171 160.096167,95.4144444 157.923139,94.5981786 C156.076667,93.9045786 155.142079,91.845443 155.835679,89.9989706 C156.529279,88.1524982 158.588414,87.2179105 160.434887,87.9115105 C162.73777,88.7765545 165.00593,89.7046631 167.239279,90.6958238 C169.042154,91.4959396 169.85505,93.6060802 169.054934,95.4089545 C168.254818,97.2118289 166.144678,98.0247253 164.341804,97.2246094 Z"></path>
                    <path mask="url(#mask-3)" fill-rule="nonzero" fill="#FD3737" id="路径-20" d="M395.743305,753.099648 L395.743305,760.242505 C395.743305,762.21495 397.342288,763.813933 399.314733,763.813933 C401.287179,763.813933 402.886162,762.21495 402.886162,760.242505 L402.886162,753.099648 C402.886162,751.127202 401.287179,749.528219 399.314733,749.528219 C397.342288,749.528219 395.743305,751.127202 395.743305,753.099648 Z M395.743305,781.671076 L395.743305,788.813933 C395.743305,790.786379 397.342288,792.385362 399.314733,792.385362 C401.287179,792.385362 402.886162,790.786379 402.886162,788.813933 L402.886162,781.671076 C402.886162,779.698631 401.287179,778.099648 399.314733,778.099648 C397.342288,778.099648 395.743305,779.698631 395.743305,781.671076 Z M395.743305,810.242505 L395.743305,817.385362 C395.743305,819.357808 397.342288,820.956791 399.314733,820.956791 C401.287179,820.956791 402.886162,819.357808 402.886162,817.385362 L402.886162,810.242505 C402.886162,808.27006 401.287179,806.671077 399.314733,806.671077 C397.342288,806.671077 395.743305,808.27006 395.743305,810.242505 Z"></path>
                    <path mask="url(#mask-3)" fill-rule="nonzero" fill="#0F5EFF" id="路径-8" d="M581.657668,153.515244 C582.846518,151.473788 584.060688,149.4791 585.300157,147.531156 C586.359035,145.867029 585.868383,143.659597 584.204256,142.600719 C582.540129,141.541842 580.332698,142.032493 579.27382,143.69662 C577.983784,145.724033 576.720915,147.798727 575.485189,149.920678 C574.492577,151.625162 575.069663,153.811589 576.774146,154.804201 C578.478629,155.796813 580.665057,155.219727 581.657668,153.515244 Z M597.66336,130.634735 C599.175247,128.843089 600.716713,127.106005 602.287757,125.423425 C603.633885,123.98173 603.556412,121.721754 602.114717,120.375627 C600.673023,119.0295 598.413047,119.106973 597.066919,120.548668 C595.413912,122.319029 593.793077,124.145554 592.204413,126.028184 C590.932349,127.535631 591.123165,129.788869 592.630611,131.060933 C594.138058,132.332997 596.391296,132.142182 597.66336,130.634735 Z M617.68697,111.394224 C619.526627,109.981637 621.399069,108.628619 623.304354,107.335104 C624.936249,106.227196 625.361024,104.006146 624.253116,102.374252 C623.145208,100.742357 620.924158,100.317581 619.292263,101.42549 C617.271732,102.797246 615.286557,104.231724 613.336796,105.728856 C611.772347,106.930124 611.477931,109.172179 612.679199,110.736627 C613.880466,112.301075 616.122522,112.595491 617.68697,111.394224 Z M641.505644,97.2246094 C643.611755,96.2899171 645.75128,95.4144444 647.924308,94.5981786 C649.770781,93.9045786 650.705368,91.845443 650.011768,89.9989706 C649.318168,88.1524982 647.259033,87.2179105 645.41256,87.9115105 C643.109677,88.7765545 640.841517,89.7046631 638.608168,90.6958238 C636.805294,91.4959396 635.992397,93.6060802 636.792513,95.4089545 C637.592629,97.2118289 639.702769,98.0247253 641.505644,97.2246094 Z M667.930214,88.9398943 C670.187302,88.4935884 672.47515,88.1009121 674.793807,87.7618972 C676.745501,87.4765364 678.096331,85.6630449 677.81097,83.7113506 C677.525609,81.7596563 675.712118,80.4088261 673.760424,80.6941869 C671.324402,81.0503621 668.919127,81.4631931 666.544647,81.9327114 C664.609667,82.3153252 663.351226,84.1941063 663.733839,86.1290864 C664.116453,88.0640665 665.995234,89.3225081 667.930214,88.9398943 Z M695.715204,86.1674929 C698.023535,86.1416973 700.358275,86.1618322 702.719431,86.2279281 C704.691104,86.2831213 706.334204,84.7295072 706.389397,82.7578341 C706.44459,80.7861609 704.890976,79.1430611 702.919303,79.087868 C700.465455,79.0191773 698.03748,78.9982383 695.635388,79.0250817 C693.663065,79.0471224 692.08205,80.6638732 692.10409,82.6361956 C692.126131,84.6085179 693.742882,86.1895336 695.715204,86.1674929 Z M723.74382,87.938983 C726.042161,88.2413998 728.362548,88.5823237 730.704975,88.9617723 C732.65204,89.2771763 734.486134,87.9544538 734.801538,86.0073889 C735.116942,84.0603241 733.794219,82.2262306 731.847154,81.9108266 C729.435162,81.5201092 727.044662,81.1688838 724.675648,80.8571679 C722.720059,80.5998507 720.926143,81.9765721 720.668826,83.9321613 C720.411509,85.8877506 721.78823,87.6816657 723.74382,87.938983 Z"></path>
                    <path mask="url(#mask-3)" fill-rule="nonzero" fill="#0F5EFF" id="直线-10" d="M392.857143,3.57142857 L392.857143,10.7142856 C392.857143,12.6867312 394.456126,14.2857142 396.428571,14.2857142 C398.401017,14.2857142 400,12.6867312 400,10.7142856 L400,3.57142857 C400,1.59898304 398.401017,-1.33226763e-15 396.428571,-1.33226763e-15 C394.456126,-1.33226763e-15 392.857143,1.59898304 392.857143,3.57142857 Z M392.857143,32.1428573 L392.857143,39.2857144 C392.857143,41.25816 394.456126,42.857143 396.428571,42.857143 C398.401017,42.857143 400,41.25816 400,39.2857144 L400,32.1428573 C400,30.1704118 398.401017,28.5714288 396.428571,28.5714288 C394.456126,28.5714288 392.857143,30.1704118 392.857143,32.1428573 Z M392.857143,60.7142861 L392.857143,67.8571432 C392.857143,69.8295887 394.456126,71.4285718 396.428571,71.4285718 C398.401017,71.4285718 400,69.8295887 400,67.8571432 L400,60.7142861 C400,58.7418406 398.401017,57.1428576 396.428571,57.1428576 C394.456126,57.1428576 392.857143,58.7418406 392.857143,60.7142861 Z"></path>
                </g>
                <circle r="14.2857143" cy="57.1428571" cx="728.571429" opacity="0.6" fill="#EDF0F5" id="椭圆形"></circle>
                <path fill="#EDF0F5" fill-opacity="0.6" id="形状结合" d="M800,78.5714286 C803.944891,78.5714286 807.142857,81.7693946 807.142857,85.7142857 L807.142571,99.9994286 L821.428571,100 C825.373462,100 828.571429,103.197966 828.571429,107.142857 C828.571429,111.087748 825.373462,114.285714 821.428571,114.285714 L807.142571,114.285429 L807.142857,128.571429 C807.142857,132.51632 803.944891,135.714286 800,135.714286 C796.055109,135.714286 792.857143,132.51632 792.857143,128.571429 L792.856571,114.285429 L778.571429,114.285714 C774.626538,114.285714 771.428571,111.087748 771.428571,107.142857 C771.428571,103.197966 774.626538,100 778.571429,100 L792.856571,99.9994286 L792.857143,85.7142857 C792.857143,81.7693946 796.055109,78.5714286 800,78.5714286 Z"></path>
                <path fill="#EDF0F5" fill-opacity="0.6" id="形状结合备份-3" d="M57.1428571,78.5714286 C61.0877482,78.5714286 64.2857143,81.7693946 64.2857143,85.7142857 L64.2854286,99.9994286 L78.5714286,100 C82.5163196,100 85.7142857,103.197966 85.7142857,107.142857 C85.7142857,111.087748 82.5163196,114.285714 78.5714286,114.285714 L64.2854286,114.285429 L64.2857143,128.571429 C64.2857143,132.51632 61.0877482,135.714286 57.1428571,135.714286 C53.1979661,135.714286 50,132.51632 50,128.571429 L49.9994286,114.285429 L35.7142857,114.285714 C31.7693946,114.285714 28.5714286,111.087748 28.5714286,107.142857 C28.5714286,103.197966 31.7693946,100 35.7142857,100 L49.9994286,99.9994286 L50,85.7142857 C50,81.7693946 53.1979661,78.5714286 57.1428571,78.5714286 Z"></path>
                <circle r="14.2857143" cy="57.1428571" cx="128.571429" opacity="0.6" fill="#EDF0F5" id="椭圆形备份-48"></circle>
            </g>
            <g transform="translate(200.000000, 164.285714)" id="编组-14">
                <path fill="url(#linearGradient-4)" id="矩形" d="M135.714286,392.857143 L464.285714,392.857143 C468.230605,392.857143 471.428571,396.055109 471.428571,400 L471.428571,607.142857 C471.428571,638.701986 445.844843,664.285714 414.285714,664.285714 L185.714286,664.285714 C154.155157,664.285714 128.571429,638.701986 128.571429,607.142857 L128.571429,400 C128.571429,396.055109 131.769395,392.857143 135.714286,392.857143 Z"></path>
                <circle r="300" cy="300" cx="300" fill="url(#linearGradient-5)" id="椭圆形"></circle>
                <path fill="url(#linearGradient-6)" id="路径" d="M361.289564,642.857143 C374.430783,642.884347 385.203551,651.987347 385.696741,663.481233 C386.18993,674.975118 376.227608,684.759712 363.125738,685.649565 L361.289564,685.714286 L238.877919,685.714286 C225.671788,685.765583 214.798762,676.640462 214.303256,665.089714 C213.807751,653.538966 223.868364,643.725897 237.041744,642.910714 L238.877919,642.857143 L361.289564,642.857143 Z"></path>
                <g id="路径">
                    <use xlink:href="#path-8" filter="url(#filter-9)" fill-opacity="1" fill="black"></use>
                    <use xlink:href="#path-8" fill-rule="evenodd" fill="url(#linearGradient-7)"></use>
                </g>
                <path fill-rule="nonzero" fill="url(#linearGradient-10)" id="直线-8" d="M373.663485,560.840439 C377.538704,560.102302 381.278567,562.645409 382.016704,566.520628 C382.754841,570.395846 380.211734,574.13571 376.336515,574.873847 C350.897916,579.719294 325.450506,582.142857 300,582.142857 C274.549494,582.142857 249.102084,579.719294 223.663485,574.873847 C219.788266,574.13571 217.245159,570.395846 217.983296,566.520628 C218.721433,562.645409 222.461296,560.102302 226.336515,560.840439 C250.897916,565.518801 275.450506,567.857143 300,567.857143 C324.549494,567.857143 349.102084,565.518801 373.663485,560.840439 Z"></path>
                <path stroke-linecap="round" stroke-width="14.2857143" stroke="url(#linearGradient-11)" id="形状" d="M506.552775,301.717961 C506.552775,187.31612 413.811759,94.575104 299.409918,94.575104 M92.2670605,301.717961 C92.2670605,416.119802 185.008077,508.860818 299.409918,508.860818"></path>
                <path transform="translate(299.314901, 300.908622) rotate(90.000000) translate(-299.314901, -300.908622)" fill-rule="nonzero" fill="url(#linearGradient-12)" id="形状" d="M102.872328,334.052075 C116.860562,417.699872 182.800119,483.792732 266.404266,497.984111 C270.293523,498.644293 272.911207,502.332342 272.251025,506.2216 C271.590843,510.110858 267.902794,512.728541 264.013536,512.068359 C174.41005,496.858622 103.774293,426.058645 88.7822705,336.408323 C88.1316104,332.517462 90.7583129,328.83583 94.6491749,328.18517 C98.5400369,327.53451 102.221668,330.161213 102.872328,334.052075 Z M337.376099,89.7555178 C423.292364,104.819238 491.806862,171.129231 509.791126,256.358759 C510.605602,260.218655 508.136801,264.007982 504.276906,264.822457 C500.41701,265.636933 496.627683,263.168132 495.813207,259.308237 C479.032914,179.784469 415.072055,117.881598 334.909014,103.826592 C331.023394,103.145325 328.425752,99.4431322 329.107019,95.5575124 C329.788286,91.6718926 333.490479,89.0742511 337.376099,89.7555178 Z"></path>
                <path stroke-width="14.2857143" stroke="url(#linearGradient-13)" id="形状" d="M351.759065,221.77149 C365.216209,219.07797 377.048834,218.797614 386.642541,221.577341 C394.782286,223.935789 401.163438,228.594308 405.226431,235.939892 C408.576887,241.997264 409.584769,248.615717 408.602786,255.601382 C407.743974,261.710834 405.417581,268.061486 401.847226,274.58718 L401.531,275.157 L398.543,273.181 L398.670506,272.95245 C406.596069,258.481469 406.980744,246.7831 402.271562,237.98162 L402.101215,237.668513 C398.934027,231.942476 393.763086,227.704569 386.433542,225.322867 C380.32147,223.336777 372.540133,222.670055 363.128493,223.632832 L363.128493,223.632832 L361.895459,223.767026 C358.913475,224.11081 355.763545,224.611942 352.448675,225.275727 C338.918486,227.985077 323.434166,233.347086 307.428573,240.732442 L307.428573,240.732442 L305.387098,241.684009 C302.966754,242.823502 300.535633,244.008266 298.098734,245.235948 L298.098734,245.235948 L296.041165,246.282026 C289.794938,249.48645 283.519808,252.967988 277.299807,256.686568 L277.299807,256.686568 L276.337793,257.263995 C252.370196,271.062169 230.947916,288.790107 213.974098,307.856119 L213.974098,307.856119 L213.167102,308.766387 L210.657648,312.095368 L208.7462,314.66735 L207.538587,316.32208 L206.457698,317.834185 L205.673874,318.957341 L205.294449,319.511622 L204.770414,320.291359 L204.274488,321.047982 L203.797621,321.7966 L203.086732,322.962699 L202.446187,324.083672 L202.073956,324.775106 L201.733161,325.43977 L201.509113,325.899877 C196.891339,334.488633 194.994195,341.40051 194.687344,347.710936 C194.476658,352.043728 194.921658,355.74033 196.251477,360.999818 L196.251477,360.999818 L196.690989,362.7087 C199.319622,367.808119 203.610919,371.843331 210.59214,374.34715 C219.477229,377.365183 231.192206,377.741968 246.619601,374.348402 L246.619601,374.348402 L247.418943,374.169575 C261.954001,371.723825 278.096256,366.205139 295.128422,357.926734 L295.128422,357.926734 L297.015866,356.999913 C304.666993,353.20473 312.494695,348.859643 320.40946,344.002925 L320.40946,344.002925 L322.446154,342.744089 L323.44143,342.136991 L324.177251,341.679767 L325.300367,340.97012 L326.478821,340.211953 L328.116059,339.138738 L329.840738,337.986733 L331.196435,337.06787 L332.603083,336.103591 L335.043462,334.407585 L337.103396,332.956147 L339.25187,331.425603 L342.05927,329.403181 L345.006961,327.255863 L347.468355,325.446439 L350.017897,323.558267 L350.364,323.299 L352.513,326.15 L351.299584,327.05492 L348.052802,329.451348 L346.804514,330.366336 L344.362812,332.144739 L342.017629,333.837269 L340.324468,335.04862 L338.683494,336.213204 L337.098685,337.328215 L335.064698,338.743625 L333.123713,340.075751 L332.197353,340.704309 L331.293271,341.312759 L329.978868,342.187759 L328.308566,343.281224 L326.736215,344.288595 L325.625345,344.98521 L324.924902,345.417025 L324.242838,345.830314 L323.265325,346.438356 C296.925225,362.72722 271.225522,373.66149 248.882626,377.54364 L248.882626,377.54364 L248.120407,377.672188 L247.220548,377.872731 C233.051865,380.965376 221.130547,381.119512 211.759253,378.497693 C203.258314,376.119374 197.031668,371.384087 193.601089,364.477409 L193.601089,364.477409 L193.375674,364.012295 C191.607709,357.573754 190.848788,353.117664 191.12013,347.537477 C191.46493,340.446624 193.653072,333.106828 197.878868,325.136429 L197.878868,325.136429 L198.206333,324.524985 C198.482242,323.94623 198.747006,323.417244 199.026376,322.888197 L199.026376,322.888197 L199.852014,321.397688 L200.35687,320.546584 L200.77965,319.861406 L201.229473,319.154607 L201.71821,318.407909 L202.055505,317.903376 L202.607556,317.093256 L203.41682,315.933288 L204.071218,315.013852 L204.77681,314.036747 L205.804505,312.633538 L206.927337,311.120125 L208.818298,308.601742 L210.063599,306.957027 C227.705144,286.894636 249.250191,268.908914 273.284714,254.906514 L273.284714,254.906514 L274.444637,254.233974 L275.469088,253.620032 C301.308239,238.171973 328.204969,226.651312 350.852912,221.956114 L350.852912,221.956114 Z"></path>
                <path fill-rule="nonzero" fill="#1C67FF" id="形状结合" d="M200,252.428571 C201.295258,252.428571 202.571962,252.349134 203.825506,252.194865 C205.041623,257.775948 207.892592,264.249878 212.652592,271.577663 C213.73887,273.249935 214.919458,274.957289 216.196044,276.699238 L217.001371,277.786177 L217.147945,278.008011 C222.95746,286.800524 230.822249,295.874247 240.473473,304.937692 C249.839135,313.732966 260.787565,322.424794 272.952741,330.734882 L274.329822,331.671714 C313.486333,359.013171 352.429177,373.897251 375.450723,371.532217 L376.142051,371.454563 L376.14811,372.005035 C376.266994,378.524007 378.398157,384.551401 381.946666,389.492285 C370.714979,391.528092 357.272777,390.247495 342.220854,386.077908 C320.493158,380.059041 295.560406,367.965808 271.877697,352.434994 L269.82159,351.075888 C268.110974,349.936187 266.4076,348.778836 264.713164,347.604839 L263.769635,346.948405 L262.47018,346.065047 C249.988603,337.538388 238.657125,328.589729 228.809598,319.454877 L227.7602,318.475441 C217.424305,308.769022 208.830243,298.919169 202.246286,289.135134 L201.80507,288.472124 L201.211268,287.669858 C199.979296,285.988562 198.817601,284.325151 197.725465,282.679536 L197.078525,281.694303 C189.20016,269.565949 185.154612,258.27201 184.592034,248.332754 C189.13123,250.939288 194.391694,252.428571 200,252.428571 Z M335.695168,251.842418 C337.392737,253.027764 339.075925,254.225278 340.743291,255.433815 L342.736444,256.889277 C348.361671,261.027664 353.797348,265.288188 358.986907,269.625878 L360.808204,271.159958 C376.200801,284.225629 389.318442,297.938171 398.633809,311.08334 C406.02569,321.514224 411.049497,331.592341 413.337728,341.048969 C411.335801,340.641651 409.264213,340.428571 407.142857,340.428571 C402.645916,340.428571 398.372616,341.386093 394.515718,343.108375 C388.312979,322.110618 362.582518,293.267612 325.062933,267.069156 C320.858186,264.133145 319.829671,258.344417 322.765682,254.13967 C325.701692,249.934922 331.49042,248.906407 335.695168,251.842418 Z M236.032959,209.413859 L236.579473,209.453282 L237.336539,209.480418 L237.840976,209.504852 L238.346957,209.53464 L239.112131,209.589894 L239.88928,209.658557 L240.416551,209.712185 L241.224995,209.80501 L241.777851,209.875501 L242.343587,209.95316 L243.219644,210.083616 L243.824189,210.180252 L244.765544,210.340307 L245.752879,210.519208 L247.149664,210.78847 L248.264119,211.014517 L249.441555,211.262129 L250.687073,211.532122 L252.462485,211.928335 L255.39599,212.604203 L259.277209,213.524184 L260.485381,213.8144 L259.275347,213.442345 L259.605326,213.519635 L259.928792,213.620776 C263.152032,214.628604 266.404214,215.721068 269.673251,216.895768 C274.499472,218.630027 277.006002,223.948346 275.271743,228.774567 C273.537484,233.600788 268.219165,236.107318 263.392944,234.373059 C260.972821,233.503409 258.564887,232.683204 256.175258,231.913622 L254.691039,231.441945 L252.918531,231.030166 L250.039189,230.371135 L247.895345,229.893884 L246.333162,229.556889 L244.895775,229.257961 L243.572933,228.995479 L242.649805,228.821557 L241.502749,228.618946 L240.699686,228.488063 L239.697019,228.340352 L238.990474,228.24878 L238.318086,228.172913 L237.886668,228.130722 L237.467226,228.095005 L237.05848,228.065557 L236.659148,228.042177 L236.267948,228.024661 L235.633665,228.006847 L235.384413,227.987448 C233.6178,227.849955 231.940834,227.78389 230.345226,227.786074 C230.775107,225.734781 231,223.60794 231,221.428571 C231,217.10227 230.113768,212.982959 228.512942,209.242279 C230.92058,209.17792 233.42468,209.234158 236.032959,209.413859 Z M257.157678,222.483361 L253.829976,231.152322 L254.392755,231.325172 L257.157678,222.483361 Z"></path>
                <path fill="#1C67FF" id="路径" d="M387.142857,371.428571 C387.142857,382.474266 396.097162,391.428571 407.142857,391.428571 C418.188552,391.428571 427.142857,382.474266 427.142857,371.428571 C427.142857,360.382876 418.188552,351.428571 407.142857,351.428571 C396.097162,351.428571 387.142857,360.382876 387.142857,371.428571 L387.142857,371.428571 Z"></path>
                <path fill="#1C67FF" id="路径备份-4" d="M180,221.428571 C180,232.474266 188.954305,241.428571 200,241.428571 C211.045695,241.428571 220,232.474266 220,221.428571 C220,210.382876 211.045695,201.428571 200,201.428571 C188.954305,201.428571 180,210.382876 180,221.428571 L180,221.428571 Z"></path>
            </g>
        </g>
    </g>
</svg>