<svg xmlns="http://www.w3.org/2000/svg" viewBox="0 0 200 171.429" fill="#3a3133"><path d="M157.143,103.571v35.714c0,8.854-3.144,16.426-9.431,22.713s-13.858,9.431-22.712,9.431H32.143 c-8.854,0-16.425-3.144-22.712-9.431S0,148.14,0,139.285V46.429c0-8.854,3.144-16.425,9.431-22.712 c6.287-6.287,13.858-9.431,22.712-9.431h78.572c1.041,0,1.896,0.335,2.566,1.004c0.67,0.67,1.004,1.525,1.004,2.567V25 c0,1.042-0.334,1.897-1.004,2.567c-0.67,0.67-1.525,1.004-2.566,1.004H32.143c-4.911,0-9.115,1.749-12.612,5.246 s-5.246,7.701-5.246,12.612v92.856c0,4.911,1.749,9.115,5.246,12.612s7.701,5.245,12.612,5.245H125c4.91,0,9.115-1.748,12.611-5.245 c3.497-3.497,5.246-7.701,5.246-12.612v-35.714c0-1.042,0.334-1.897,1.004-2.567c0.67-0.669,1.525-1.004,2.567-1.004h7.143 c1.042,0,1.897,0.335,2.567,1.004C156.809,101.674,157.143,102.529,157.143,103.571z M200,7.143v57.143 c0,1.935-0.707,3.609-2.121,5.022c-1.413,1.414-3.088,2.121-5.021,2.121c-1.935,0-3.609-0.707-5.022-2.121l-19.644-19.643 l-72.767,72.769c-0.744,0.744-1.6,1.115-2.567,1.115s-1.823-0.371-2.567-1.115L77.567,109.71c-0.744-0.744-1.116-1.6-1.116-2.567 c0-0.967,0.372-1.822,1.116-2.566l72.768-72.768l-19.644-19.643c-1.413-1.414-2.12-3.088-2.12-5.022c0-1.935,0.707-3.609,2.12-5.022 C132.105,0.707,133.779,0,135.715,0h57.143c1.934,0,3.608,0.707,5.021,2.121C199.293,3.534,200,5.208,200,7.143z"/></svg>