<?xml version="1.0" encoding="UTF-8"?>
<svg width="2000px" height="847px" viewBox="0 0 2000 847" version="1.1" xmlns="http://www.w3.org/2000/svg" xmlns:xlink="http://www.w3.org/1999/xlink">
    <!-- Generator: Sketch 54.1 (76490) - https://sketchapp.com -->
    <title>Group 26</title>
    <desc>Created with Sketch.</desc>
    <defs>
        <linearGradient x1="50%" y1="0%" x2="50%" y2="100%" id="linearGradient-1">
            <stop stop-color="#F7FAFF" offset="0%"></stop>
            <stop stop-color="#E2EEFF" offset="100%"></stop>
        </linearGradient>
    </defs>
    <g id="Page-1" stroke="none" stroke-width="1" fill="none" fill-rule="evenodd">
        <g id="Artboard-2" transform="translate(0.000000, -4003.000000)" fill-rule="nonzero">
            <g id="Group-26" transform="translate(0.000000, 4003.000000)">
                <path d="M8.8817842e-13,577.927734 C60.1071879,468.85937 117.954178,408.550125 173.54097,397 C317.564034,367.074107 632.86631,595.655132 1150,449 C1323.25137,399.867246 1669.72014,79 1813.13084,79 C1897.05954,79 1959.34926,107.333333 2000,164 L2000,846.137994 L0,846.137994 L8.8817842e-13,577.927734 Z" id="Rectangle-16" fill="#F1F7FF"></path>
                <path d="M9.09494702e-13,456.183902 C57.2791596,535.895046 111.07795,566.726888 161.396372,548.67943 C247.330366,517.857911 408.345894,197 559,197 C751.408406,197 954.565788,548.67943 1236.45771,548.67943 C1417.80277,548.67943 1723.18155,2.27373675e-13 1865.77469,2.27373675e-13 C1921.76549,2.27373675e-13 1966.50064,26.3333333 1999.98014,79 L2000,846.022619 L0,846.022619 L9.09494702e-13,456.183902 Z" id="Rectangle-16" fill="url(#linearGradient-1)" opacity="0.7984375"></path>
            </g>
        </g>
    </g>
</svg>