<svg xmlns:xlink="http://www.w3.org/1999/xlink" xmlns="http://www.w3.org/2000/svg" version="1.1" viewBox="0 0 1200 1200" height="1200px" width="1200px">
    <title>网站功能开发</title>
    <defs>
        <linearGradient id="linearGradient-1" y2="100%" x2="50%" y1="0%" x1="50%">
            <stop offset="0%" stop-color="#F9FAFC"></stop>
            <stop offset="100%" stop-color="#F0F2F5"></stop>
        </linearGradient>
        <circle r="400" cy="400" cx="400" id="path-2"></circle>
        <linearGradient id="linearGradient-4" y2="113.506781%" x2="52.9951014%" y1="34.9134821%" x1="52.9951014%">
            <stop offset="0%" stop-color="#FBFCFE"></stop>
            <stop offset="100%" stop-color="#CED6E5"></stop>
        </linearGradient>
        <linearGradient id="linearGradient-5" y2="100%" x2="7.93561841%" y1="22.6135855%" x1="7.93561841%">
            <stop offset="0%" stop-color="#FCFDFF"></stop>
            <stop offset="100%" stop-color="#F5F8FF"></stop>
        </linearGradient>
        <rect rx="20.7897795" height="472.222222" width="571.428571" y="0" x="0" id="path-6"></rect>
        <filter id="filter-7" filterUnits="objectBoundingBox" height="181.5%" width="167.4%" y="-31.7%" x="-33.7%">
            <feOffset result="shadowOffsetOuter1" in="SourceAlpha" dy="43" dx="0"></feOffset>
            <feGaussianBlur result="shadowBlurOuter1" in="shadowOffsetOuter1" stdDeviation="57"></feGaussianBlur>
            <feColorMatrix in="shadowBlurOuter1" type="matrix" values="0 0 0 0 0.56   0 0 0 0 0.606666667   0 0 0 0 0.7  0 0 0 0.36166958 0"></feColorMatrix>
        </filter>
        <linearGradient id="linearGradient-8" y2="50%" x2="100%" y1="50%" x1="0%">
            <stop offset="0%" stop-color="#E9EDF3"></stop>
            <stop offset="100%" stop-color="#CBD3E1"></stop>
        </linearGradient>
        <linearGradient id="linearGradient-9" y2="51.8622303%" x2="77.6496453%" y1="47.5479812%" x1="5.44495238%">
            <stop offset="0%" stop-color="#FF528B"></stop>
            <stop offset="100%" stop-color="#FF3959"></stop>
        </linearGradient>
        <linearGradient id="linearGradient-10" y2="50%" x2="100%" y1="50%" x1="0%">
            <stop offset="0%" stop-color="#E9EDF3"></stop>
            <stop offset="100%" stop-color="#CBD3E1"></stop>
        </linearGradient>
        <linearGradient id="linearGradient-11" y2="51.9738228%" x2="72.2273149%" y1="48.0140331%" x1="22.1967321%">
            <stop offset="0%" stop-color="#FF5D90"></stop>
            <stop offset="100%" stop-color="#FF3959"></stop>
        </linearGradient>
        <linearGradient id="linearGradient-12" y2="50%" x2="100%" y1="50%" x1="0%">
            <stop offset="0%" stop-color="#E9EDF3"></stop>
            <stop offset="100%" stop-color="#CBD3E1"></stop>
        </linearGradient>
        <linearGradient id="linearGradient-13" y2="59.4275408%" x2="77.6496453%" y1="37.5866549%" x1="5.44495238%">
            <stop offset="0%" stop-color="#2F74FF"></stop>
            <stop offset="100%" stop-color="#0F5EFF"></stop>
        </linearGradient>
        <linearGradient id="linearGradient-14" y2="50%" x2="100%" y1="50%" x1="0%">
            <stop offset="0%" stop-color="#8F9BB3"></stop>
            <stop offset="100%" stop-color="#596680"></stop>
        </linearGradient>
        <linearGradient id="linearGradient-15" y2="50%" x2="127.54553%" y1="50%" x1="-4.02956414%">
            <stop offset="0%" stop-color="#FBFCFE"></stop>
            <stop offset="100%" stop-color="#CED6E5"></stop>
        </linearGradient>
        <linearGradient id="linearGradient-16" y2="32.0409581%" x2="100%" y1="32.0409581%" x1="0%">
            <stop offset="0%" stop-color="#3392FF"></stop>
            <stop offset="100%" stop-color="#1965FF"></stop>
        </linearGradient>
        <linearGradient id="linearGradient-17" y2="87.7101632%" x2="77.6496453%" y1="13.0199697%" x1="24.0567293%">
            <stop offset="0%" stop-color="#FF5D90"></stop>
            <stop offset="100%" stop-color="#FF3959"></stop>
        </linearGradient>
    </defs>
    <g fill-rule="evenodd" fill="none" stroke-width="1" stroke="none" id="网站功能开发">
        <g id="zzkf-icon-fw-wzgnkf" transform="translate(100.000000, 100.000000)">
            <rect height="1000" width="1000" y="0" x="0" id="矩形"></rect>
            <g transform="translate(67.857143, 67.857143)" id="编组-90">
                <path fill-rule="nonzero" fill="#EBEDF0" fill-opacity="0.658790428" id="椭圆形" d="M446.52753,0.234935752 C448.498921,0.2994215 450.044773,1.9498258 449.980287,3.92121692 C449.915802,5.89260805 448.265397,7.43846029 446.294006,7.37397455 C441.586908,7.22000169 436.869459,7.14285714 432.142857,7.14285714 C430.170412,7.14285714 428.571429,5.54387411 428.571429,3.57142857 C428.571429,1.59898304 430.170412,0 432.142857,0 C436.94732,0 441.742622,0.0784176532 446.52753,0.234935752 Z M489.586176,3.78483061 C491.541447,4.04454865 492.915965,5.84015272 492.656247,7.79542455 C492.396529,9.75069638 490.600925,11.1252143 488.645653,10.8654963 C483.970637,10.2445156 479.279993,9.70064208 474.575061,9.23431449 C472.612233,9.03976953 471.178756,7.29087322 471.373301,5.32804525 C471.567846,3.36521728 473.316742,1.93174067 475.27957,2.12628563 C480.06334,2.60042722 484.832667,3.15342373 489.586176,3.78483061 Z M532.090222,11.6169556 C534.009593,12.071437 535.197122,13.9958252 534.74264,15.915197 C534.288159,17.8345688 532.363771,19.022097 530.444399,18.5676157 C525.851431,17.4800627 521.237097,16.4688101 516.602862,15.5344414 C514.669326,15.1445959 513.417917,13.261123 513.807763,11.3275868 C514.197608,9.39405074 516.081081,8.14264225 518.014617,8.53248774 C522.727188,9.48265082 527.419555,10.5110047 532.090222,11.6169556 Z M573.614448,23.6894961 C575.478294,24.334959 576.465988,26.3691552 575.820525,28.2330004 C575.175062,30.0968456 573.140866,31.0845396 571.27702,30.4390766 C566.813174,28.8932145 562.32187,27.4218488 557.804674,26.0257267 C555.920182,25.44329 554.864658,23.4434495 555.447094,21.5589578 C556.029531,19.6744661 558.029372,18.6189419 559.913863,19.2013786 C564.50759,20.6211538 569.074983,22.1174467 573.614448,23.6894961 Z M613.607021,39.8326821 C615.396704,40.6618832 616.175329,42.7849087 615.346128,44.5745921 C614.516927,46.3642756 612.393901,47.1429003 610.604218,46.3136991 C606.323878,44.3305201 602.009943,42.4187767 597.664033,40.5793852 C595.847585,39.8105803 594.998304,37.7148193 595.767109,35.8983722 C596.535913,34.081925 598.631674,33.2326431 600.448122,34.001448 C604.867509,35.8719382 609.254358,37.8159939 613.607021,39.8326821 Z M651.888825,59.9635251 C653.586372,60.9679534 654.148255,63.1583371 653.143827,64.8558838 C652.139398,66.5534306 649.949015,67.1153141 648.251468,66.1108857 C644.185998,63.7053712 640.080542,61.3677638 635.936749,59.0991588 C634.206616,58.151962 633.571921,55.9815575 634.519117,54.2514247 C635.466314,52.5212918 637.636719,51.8865968 639.366852,52.8337935 C643.580411,55.1405931 647.75496,57.5175418 651.888825,59.9635251 Z M687.937443,83.8022071 C689.526352,84.9709274 689.866983,87.2064283 688.698263,88.795338 C687.529542,90.3842478 685.294042,90.7248786 683.705132,89.5561582 C679.901479,86.7583867 676.051673,84.0240079 672.157339,81.3542825 C670.530475,80.2390005 670.115755,78.0160517 671.231037,76.3891874 C672.346319,74.7623231 674.569268,74.3476037 676.196132,75.4628857 C680.155748,78.1773643 684.070068,80.9575652 687.937443,83.8022071 Z M721.437921,111.114968 C722.902772,112.43586 723.019474,114.69415 721.698582,116.159 C720.37769,117.623851 718.1194,117.740552 716.65455,116.419661 C713.149798,113.25934 709.592971,110.157272 705.985626,107.114862 C704.477837,105.843204 704.286416,103.590017 705.558074,102.082228 C706.829732,100.57444 709.082919,100.383018 710.590708,101.654677 C714.258344,104.747936 717.874609,107.901842 721.437921,111.114968 Z M752.004785,141.559942 C753.331521,143.019502 753.223845,145.27824 751.764285,146.604976 C750.304725,147.931711 748.045987,147.824035 746.719251,146.364475 C743.540629,142.867628 740.304166,139.423624 737.011322,136.033991 C735.636937,134.619208 735.669686,132.358142 737.084469,130.983758 C738.499251,129.609374 740.760318,129.642123 742.134702,131.056905 C745.482544,134.503152 748.773066,138.004682 752.004785,141.559942 Z M779.437982,174.932875 C780.61314,176.517029 780.281583,178.753894 778.697428,179.929052 C777.113274,181.10421 774.876409,180.772653 773.701251,179.188498 C770.888595,175.396938 768.013076,171.652182 765.076011,167.955833 C763.84894,166.411541 764.106097,164.164907 765.650389,162.937835 C767.194681,161.710764 769.441315,161.967922 770.668386,163.512213 C773.654595,167.270411 776.57824,171.077841 779.437982,174.932875 Z M803.427703,210.892119 C804.439004,212.585581 803.886002,214.778224 802.19254,215.789524 C800.499078,216.800824 798.306435,216.247823 797.295135,214.554361 C794.874859,210.501513 792.387198,206.489285 789.833309,202.51932 C788.766172,200.860477 789.245844,198.650634 790.904686,197.583496 C792.563529,196.516358 794.773372,196.99603 795.84051,198.654873 C798.437291,202.691514 800.966748,206.771152 803.427703,210.892119 Z M823.695927,249.053506 C824.532582,250.839717 823.762815,252.96597 821.976604,253.802626 C820.190393,254.639281 818.06414,253.869514 817.227485,252.083303 C815.224856,247.807804 813.151021,243.56666 811.006964,239.361507 C810.111019,237.604286 810.809222,235.45347 812.566443,234.557526 C814.323664,233.661582 816.47448,234.359785 817.370424,236.117006 C819.550653,240.393104 821.659488,244.705826 823.695927,249.053506 Z M840.033708,289.057363 C840.686594,290.918621 839.707015,292.956737 837.845757,293.609623 C835.984499,294.262509 833.946383,293.28293 833.293496,291.421672 C831.730112,286.964752 830.092506,282.535964 828.381488,278.136897 C827.666484,276.298607 828.577088,274.228753 830.415378,273.513749 C832.253669,272.798746 834.323522,273.70935 835.038526,275.54764 C836.778511,280.021182 838.443847,284.524962 840.033708,289.057363 Z M852.271159,330.531149 C852.733289,332.448694 851.553443,334.377801 849.635898,334.839931 C847.718353,335.302061 845.789246,334.122214 845.327116,332.20467 C844.220228,327.611791 843.037057,323.040979 841.778246,318.493737 C841.252006,316.592786 842.36643,314.62516 844.26738,314.09892 C846.168331,313.572681 848.135957,314.687104 848.662197,316.588055 C849.942328,321.212308 851.145533,325.860518 852.271159,330.531149 Z M860.275777,373.029785 C860.543118,374.984029 859.175612,376.784979 857.221368,377.05232 C855.267124,377.31966 853.466173,375.952154 853.198833,373.99791 C852.558083,369.314063 851.839926,364.646539 851.044851,359.996728 C850.712406,358.0525 852.019014,356.206892 853.963242,355.874447 C855.90747,355.542002 857.753078,356.84861 858.085523,358.792838 C858.893995,363.521004 859.624246,368.267127 860.275777,373.029785 Z M863.991483,416.047645 C864.063665,418.018769 862.524269,419.675196 860.553144,419.747379 C858.58202,419.819561 856.925593,418.280165 856.85341,416.30904 C856.680292,411.581607 856.429651,406.865191 856.101848,402.16105 C855.964732,400.193376 857.448693,398.487107 859.416367,398.349991 C861.384041,398.212876 863.09031,399.696837 863.227425,401.664511 C863.560685,406.446948 863.815491,411.241755 863.991483,416.047645 Z M863.454722,459.160959 C863.333261,461.129661 861.638849,462.627147 859.670147,462.505686 C857.701445,462.384225 856.203959,460.689813 856.32542,458.721111 C856.61538,454.021275 856.828418,449.309613 856.964185,444.587364 C857.020871,442.615733 858.665146,441.063363 860.636777,441.120048 C862.608407,441.176734 864.160778,442.821009 864.104092,444.79264 C863.966075,449.593142 863.749501,454.383005 863.454722,459.160959 Z M858.653938,502.086506 C858.337087,504.033336 856.502011,505.354695 854.555181,505.037844 C852.608351,504.720993 851.286992,502.885917 851.603843,500.939087 C852.361622,496.283058 853.042422,491.609767 853.645766,486.920593 C853.89748,484.964275 855.687444,483.58242 857.643762,483.834134 C859.600081,484.085849 860.981935,485.875813 860.730221,487.832131 C860.116734,492.600142 859.424477,497.352071 858.653938,502.086506 Z M849.575741,544.344865 C849.064922,546.250018 847.10639,547.380348 845.201238,546.869529 C843.296086,546.358709 842.165755,544.400177 842.676575,542.495025 C843.899046,537.935695 845.045666,533.353258 846.115806,528.749208 C846.562367,526.827978 848.48184,525.632522 850.40307,526.079082 C852.3243,526.525643 853.519756,528.445116 853.073196,530.366346 C851.984944,535.048318 850.818912,539.708334 849.575741,544.344865 Z M836.286854,585.489666 C835.586783,587.333695 833.524382,588.261055 831.680354,587.560984 C829.836325,586.860912 828.908965,584.798512 829.609036,582.954483 C831.284452,578.54134 832.886226,574.098971 834.413561,569.628961 C835.051315,567.762464 837.081411,566.76637 838.947909,567.404124 C840.814406,568.041878 841.810499,570.071975 841.172745,571.938472 C839.61954,576.484194 837.99064,581.001796 836.286854,585.489666 Z M818.95565,625.027956 C818.074092,626.792438 815.929053,627.50819 814.164571,626.626633 C812.400088,625.745075 811.684336,623.600036 812.565894,621.835554 C814.67841,617.607245 816.720218,613.343361 818.690347,609.045542 C819.512277,607.252508 821.632125,606.465273 823.425159,607.287203 C825.218193,608.109133 826.005428,610.228981 825.183498,612.022015 C823.180098,616.392417 821.103818,620.728287 818.95565,625.027956 Z M797.731051,662.665612 C796.677436,664.333077 794.471566,664.8307 792.804102,663.777085 C791.136637,662.72347 790.639014,660.517599 791.692629,658.850135 C794.214014,654.85976 796.668825,650.827634 799.05592,646.7554 C800.0534,645.053761 802.241468,644.482928 803.943107,645.480408 C805.644746,646.477888 806.215579,648.665956 805.218099,650.367595 C802.790868,654.508299 800.294798,658.608194 797.731051,662.665612 Z M772.845961,698.010066 C771.631446,699.564252 769.386971,699.83961 767.832784,698.625095 C766.278598,697.41058 766.00324,695.166105 767.217755,693.611918 C770.12747,689.888423 772.975119,686.116922 775.759392,682.299029 C776.921609,680.705356 779.155699,680.355592 780.749372,681.517809 C782.343045,682.680026 782.692809,684.914116 781.530592,686.507789 C778.699695,690.389615 775.804374,694.224253 772.845961,698.010066 Z M744.568117,730.703571 C743.205188,732.129392 740.94446,732.180376 739.518639,730.817447 C738.092818,729.454518 738.041833,727.193789 739.404763,725.767968 C742.666173,722.35606 745.870895,718.890375 749.017483,715.372444 C750.33246,713.902282 752.590261,713.776479 754.060424,715.091455 C755.530586,716.406432 755.65639,718.664233 754.341413,720.134396 C751.142258,723.711097 747.884004,727.234674 744.568117,730.703571 Z M713.254315,760.366166 C711.756809,761.649917 709.502154,761.476633 708.218404,759.979126 C706.934653,758.48162 707.107937,756.226966 708.605443,754.943215 C712.192608,751.868086 715.728654,748.733576 719.212023,745.541106 C720.666148,744.208417 722.925308,744.306859 724.257997,745.760984 C725.590687,747.215109 725.492244,749.474269 724.038119,750.806959 C720.496554,754.052765 716.901426,757.239649 713.254315,760.366166 Z M679.071816,786.834323 C677.454006,787.962699 675.227782,787.565935 674.099406,785.948125 C672.97103,784.330315 673.367794,782.104092 674.985604,780.975715 C678.860347,778.273192 682.690017,775.506322 686.472988,772.676381 C688.052404,771.494862 690.290583,771.81742 691.472103,773.396836 C692.653622,774.976252 692.331063,777.214431 690.751648,778.395951 C686.905319,781.273288 683.011492,784.08651 679.071816,786.834323 Z M642.465735,809.738802 C640.743436,810.700171 638.567894,810.083315 637.606526,808.361016 C636.645158,806.638717 637.262014,804.463176 638.984313,803.501807 C643.1066,801.200792 647.190086,798.831188 651.233127,796.394103 C652.922406,795.375831 655.11731,795.919789 656.135582,797.609068 C657.153854,799.298347 656.609896,801.49325 654.920617,802.511523 C650.809584,804.989592 646.6574,807.399061 642.465735,809.738802 Z M603.691866,828.895625 C601.881796,829.679325 599.779129,828.847287 598.99543,827.037216 C598.21173,825.227145 599.043768,823.124479 600.853839,822.340779 C605.189034,820.463786 609.491674,818.514543 613.760131,816.493985 C615.542921,815.650065 617.67229,816.411171 618.51621,818.193961 C619.360129,819.976752 618.599023,822.106121 616.816233,822.95004 C612.475677,825.004728 608.100335,826.986907 603.691866,828.895625 Z M563.207968,844.051685 C561.328227,844.649277 559.319952,843.609889 558.722361,841.730148 C558.12477,839.850407 559.164157,837.842133 561.043898,837.244541 C565.545778,835.813342 570.021323,834.307204 574.468965,832.726887 C576.327573,832.066494 578.369626,833.03784 579.030019,834.896448 C579.690411,836.755056 578.719066,838.797109 576.860458,839.457501 C572.337479,841.064587 567.786116,842.596239 563.207968,844.051685 Z M521.411662,855.05403 C519.481335,855.459465 517.587825,854.223296 517.182389,852.292969 C516.776954,850.362642 518.013123,848.469132 519.94345,848.063696 C524.568115,847.092356 529.172427,846.044291 533.754914,844.920095 C535.670556,844.450142 537.604463,845.622104 538.074417,847.537746 C538.544371,849.453388 537.372409,851.387296 535.456766,851.857249 C530.796734,853.000469 526.114532,854.066264 521.411662,855.05403 Z M478.7197,861.804606 C476.758486,862.014798 474.998214,860.595315 474.788021,858.634101 C474.577828,856.672887 475.997312,854.912614 477.958526,854.702421 C482.6604,854.198499 487.347548,853.617019 492.018618,852.95843 C493.971746,852.683053 495.778307,854.043138 496.053685,855.996266 C496.329062,857.949394 494.968977,859.755954 493.015849,860.031332 C488.266283,860.700988 483.500439,861.292231 478.7197,861.804606 Z M435.636493,864.271884 C433.66411,864.287505 432.052514,862.701235 432.036779,860.728851 C432.021272,858.756468 433.607542,857.144872 435.579926,857.129251 C440.311496,857.091778 445.033499,856.976929 449.74472,856.78503 C451.715531,856.704754 453.378266,858.237335 453.458542,860.208147 C453.538818,862.178958 452.006236,863.841693 450.035425,863.921969 C445.246201,864.117045 440.446141,864.233793 435.636493,864.271884 Z M392.496281,862.491123 C390.531946,862.312437 389.084392,860.575174 389.263079,858.610839 C389.441765,856.646504 391.179028,855.19895 393.143363,855.377637 C397.842462,855.805093 402.554967,856.15527 407.279591,856.427783 C409.248764,856.541363 410.753018,858.229768 410.639438,860.198941 C410.525857,862.168113 408.837453,863.672368 406.86828,863.558788 C402.06496,863.281736 397.273854,862.925718 392.496281,862.491123 Z M349.75015,856.439766 C347.813465,856.06588 346.546566,854.192791 346.920452,852.256106 C347.294339,850.31942 349.167427,849.052521 351.104113,849.426408 C355.73339,850.320111 360.381571,851.137174 365.047245,851.877077 C366.995347,852.186015 368.324151,854.015707 368.015213,855.963808 C367.706274,857.91191 365.876582,859.240714 363.928481,858.931776 C359.184155,858.1794 354.457563,857.348554 349.75015,856.439766 Z M307.803613,846.129276 C305.914314,845.562628 304.842094,843.571689 305.408743,841.68239 C305.975392,839.793091 307.966331,838.720871 309.855629,839.28752 C314.373559,840.642561 318.916318,841.922413 323.482386,843.1264 C325.389642,843.629308 326.528091,845.583132 326.025183,847.490388 C325.522275,849.397644 323.568452,850.536093 321.661196,850.033185 C317.017791,848.808806 312.398079,847.507274 307.803613,846.129276 Z M267.034554,831.622185 C265.211962,830.868063 264.345795,828.779224 265.099916,826.956632 C265.854037,825.13404 267.942876,824.267873 269.765468,825.021994 C274.129431,826.82764 278.524472,828.560397 282.948989,830.219416 C284.795871,830.911924 285.731676,832.970506 285.039168,834.817388 C284.34666,836.664271 282.288078,837.600076 280.441196,836.907568 C275.941781,835.220465 271.472356,833.458383 267.034554,831.622185 Z M228.03552,813.141583 C226.297657,812.208644 225.645138,810.043532 226.578077,808.305669 C227.511016,806.567807 229.676128,805.915287 231.413991,806.848226 C235.572517,809.080653 239.768356,811.243648 243.999867,813.336192 C245.767938,814.210529 246.492453,816.352625 245.618116,818.120696 C244.743778,819.888767 242.601683,820.613282 240.833612,819.738945 C236.530726,817.611105 232.264139,815.411638 228.03552,813.141583 Z M191.051236,790.835216 C189.415205,789.733424 188.98212,787.513981 190.083912,785.87795 C191.185704,784.24192 193.405147,783.808834 195.041178,784.910626 C198.954958,787.546379 202.912272,790.116892 206.911485,792.620976 C208.583255,793.667746 209.089918,795.871557 208.043149,797.543328 C206.996379,799.215098 204.792568,799.721761 203.120797,798.674992 C199.054431,796.128859 195.03069,793.515197 191.051236,790.835216 Z M156.42879,764.917566 C154.910619,763.658321 154.700718,761.40678 155.959964,759.88861 C157.219209,758.370439 159.47075,758.160538 160.988921,759.419784 C164.621854,762.433117 168.304434,765.386004 172.035071,768.277097 C173.594152,769.485321 173.878578,771.728666 172.670353,773.287747 C171.462128,774.846829 169.218783,775.131254 167.659702,773.923029 C163.866651,770.983568 160.122475,767.981291 156.42879,764.917566 Z M124.594372,735.723862 C123.208669,734.320163 123.223259,732.058907 124.626958,730.673205 C126.030657,729.287503 128.291913,729.302092 129.677615,730.705791 C132.99643,734.067709 136.370768,737.374458 139.799122,740.624556 C141.230569,741.981575 141.290905,744.242073 139.933886,745.67352 C138.576867,747.104967 136.316368,747.165303 134.884921,745.808284 C131.399307,742.503904 127.968614,739.141928 124.594372,735.723862 Z M95.8388086,703.54591 C94.5991424,702.01171 94.837909,699.763048 96.3721089,698.523381 C97.9063087,697.283715 100.154971,697.522482 101.394638,699.056682 C104.362479,702.729656 107.391149,706.3533 110.479267,709.926035 C111.769112,711.418296 111.605022,713.673638 110.112762,714.963483 C108.620502,716.253328 106.36516,716.089238 105.075315,714.596978 C101.935579,710.964524 98.8562761,707.280301 95.8388086,703.54591 Z M70.3799872,668.611447 C69.2992616,666.961424 69.7607677,664.747716 71.41079,663.66699 C73.0608123,662.586264 75.2745209,663.047771 76.3552465,664.697793 C78.9439057,668.650087 81.5982633,672.559102 84.3170903,676.423202 C85.4521208,678.03635 85.0645297,680.264189 83.4513814,681.39922 C81.8382331,682.53425 79.6103941,682.146659 78.4753637,680.533511 C75.7109526,676.604625 73.0120773,672.63005 70.3799872,668.611447 Z M48.5322063,631.308107 C47.6218869,629.55829 48.3024342,627.401823 50.0522513,626.491504 C51.8020685,625.581184 53.9585352,626.261732 54.8688546,628.011549 C57.0475292,632.1994 59.2959119,636.350297 61.6129465,640.462598 C62.5811869,642.181042 61.9730262,644.359031 60.2545816,645.327271 C58.536137,646.295512 56.3581484,645.687351 55.389908,643.968907 C53.0338556,639.787357 50.7475967,635.566533 48.5322063,631.308107 Z M30.5413226,592.025212 C29.8112119,590.19287 30.7047475,588.115591 32.5370902,587.38548 C34.3694328,586.655369 36.4467118,587.548905 37.1768225,589.381248 C38.9253465,593.769479 40.7469918,598.126991 42.6408768,602.452168 C43.4320381,604.25899 42.6086825,606.365072 40.8018607,607.156233 C38.9950388,607.947394 36.8889574,607.124039 36.0977961,605.317217 C34.1718864,600.918903 32.3194291,596.487687 30.5413226,592.025212 Z M16.5857552,551.118393 C16.043781,549.221869 17.141861,547.245075 19.0383855,546.703101 C20.9349101,546.161127 22.9117039,547.259207 23.4536781,549.155731 C24.751782,553.698172 26.1254444,558.216054 27.5739558,562.707833 C28.1793318,564.585082 27.1482756,566.597646 25.2710273,567.203022 C23.3937789,567.808398 21.3812143,566.777342 20.7758383,564.900094 C19.302786,560.332214 17.9058507,555.737789 16.5857552,551.118393 Z M6.81157822,508.98199 C6.46315035,507.040563 7.75453143,505.184269 9.69595859,504.835841 C11.6373857,504.487413 13.49368,505.778794 13.8421079,507.720221 C14.677214,512.373401 15.5894276,517.00791 16.5781977,521.622306 C16.9914707,523.550971 15.7630032,525.449486 13.8343387,525.862759 C11.9056742,526.276033 10.0071587,525.047565 9.59388566,523.118901 C8.58840574,518.426523 7.66078313,513.713728 6.81157822,508.98199 Z M1.31332457,466.082193 C1.16053149,464.115674 2.63084658,462.397633 4.59736525,462.24484 C6.56388391,462.092046 8.28192554,463.562362 8.43471862,465.52888 C8.80110198,470.244406 9.24509542,474.946775 9.76628789,479.634674 C9.9842381,481.595041 8.57173014,483.360916 6.61136306,483.578866 C4.65099598,483.796816 2.88512091,482.384309 2.6671707,480.423941 C2.13725015,475.657537 1.68582947,470.876506 1.31332457,466.082193 Z M0.0945782544,423.011416 C0.135463219,421.039394 1.76724653,419.473899 3.73926828,419.514784 C5.71129004,419.555669 7.27678572,421.187452 7.23590076,423.159474 C7.17389808,426.150075 7.14285714,429.144638 7.14285714,432.142857 C7.14285714,433.868261 7.15313706,435.59246 7.17368202,437.315396 C7.19720055,439.287701 5.61739672,440.905636 3.6450914,440.929155 C1.67278609,440.952673 0.0548511824,439.37287 0.0313326519,437.400564 C0.0104491839,435.64924 0,433.896651 0,432.142857 C0,429.09528 0.0315525363,426.051362 0.0945782544,423.011416 Z M3.1210506,379.942017 C3.35685743,377.983718 5.13553197,376.587362 7.09383136,376.823169 C9.05213076,377.058976 10.4484869,378.83765 10.21268,380.795949 C9.64944569,385.473428 9.16320617,390.165837 8.75438284,394.871855 C8.58367459,396.836899 6.85230486,398.291496 4.88726031,398.120788 C2.92221576,397.95008 1.46761879,396.21871 1.63832703,394.253666 C2.05398981,389.468918 2.54837321,384.697918 3.1210506,379.942017 Z M10.4357908,337.323793 C10.8667116,335.398994 12.7763994,334.187967 14.7011977,334.618888 C16.625996,335.049809 17.837023,336.959497 17.4061021,338.884295 C16.374791,343.490862 15.4199682,348.118086 14.5421987,352.764513 C14.1760548,354.702677 12.308044,355.977051 10.3698799,355.610907 C8.43171585,355.244763 7.15734175,353.376752 7.52348571,351.438588 C8.41608273,346.713672 9.38704274,342.008246 10.4357908,337.323793 Z M21.9762254,295.7198 C22.5984655,293.848074 24.6202245,292.835165 26.4919507,293.457405 C28.3636768,294.079645 29.3765854,296.101404 28.7543454,297.97313 C27.2653923,302.451969 25.8510965,306.957458 24.5121826,311.488049 C23.9531709,313.379621 21.9665797,314.459876 20.075007,313.900864 C18.1834343,313.341852 17.1031801,311.355261 17.6621918,309.463688 C19.0237897,304.85634 20.4620469,300.274517 21.9762254,295.7198 Z M37.6519691,255.461818 C38.4592253,253.66213 40.5725716,252.857604 42.3722601,253.664861 C44.1719486,254.472117 44.976474,256.585463 44.1692178,258.385152 C42.2374054,262.691914 40.3775071,267.031547 38.5904193,271.402434 C37.8439453,273.228172 35.7587557,274.103088 33.9330181,273.356614 C32.1072804,272.61014 31.2323644,270.52495 31.9788384,268.699213 C33.7961528,264.254397 35.6875008,259.841383 37.6519691,255.461818 Z M57.2917478,216.976277 C58.2752561,215.266525 60.4585752,214.677788 62.1683275,215.661296 C63.8780797,216.644804 64.4668168,218.828123 63.4833085,220.537875 C61.1267881,224.634502 58.8387373,228.770382 56.6202319,232.943864 C55.6944117,234.685529 53.5319874,235.346902 51.790322,234.421082 C50.0486566,233.495262 49.3872834,231.332838 50.3131036,229.591172 C52.568981,225.347385 54.8955606,221.141861 57.2917478,216.976277 Z M80.6815797,180.645754 C81.8307484,179.042646 84.0619089,178.674657 85.665016,179.823825 C87.2681232,180.972994 87.636113,183.204154 86.4869443,184.807262 C83.7335463,188.648292 81.0442376,192.534803 78.4202622,196.465161 C77.3250668,198.105614 75.1073849,198.547633 73.4669313,197.452438 C71.8264776,196.357243 71.3844585,194.139561 72.479654,192.499107 C75.1476369,188.502832 77.8820337,184.551161 80.6815797,180.645754 Z M107.586254,146.809435 C108.889168,145.328572 111.145865,145.184315 112.626729,146.487228 C114.107593,147.790142 114.25185,150.046839 112.948936,151.527703 C109.830731,155.071788 106.771465,158.667261 103.772527,162.312553 C102.519393,163.835772 100.268714,164.054719 98.7454947,162.801585 C97.2222755,161.548451 97.0033283,159.297772 98.2564623,157.774553 C101.305536,154.06832 104.415937,150.412749 107.586254,146.809435 Z M137.649969,115.878966 C139.093204,114.53449 141.35309,114.614551 142.697565,116.057787 C144.04204,117.501022 143.961979,119.760908 142.518744,121.105383 C139.06295,124.324698 135.660646,127.60112 132.313346,130.933178 C130.915438,132.324722 128.65414,132.319562 127.262597,130.921653 C125.871053,129.523745 125.876213,127.262447 127.274122,125.870904 C130.677326,122.483196 134.136454,119.152052 137.649969,115.878966 Z M170.688893,88.0364489 C172.258548,86.8419934 174.499302,87.1461528 175.693758,88.715808 C176.888213,90.2854632 176.584054,92.5262177 175.014399,93.7206732 C171.256798,96.5800826 167.546764,99.5017789 163.885894,102.484425 C162.356727,103.730294 160.107115,103.500636 158.861246,101.971469 C157.615377,100.442302 157.845036,98.1926905 159.374203,96.9468215 C163.096307,93.9142859 166.868411,90.9437089 170.688893,88.0364489 Z M206.345048,63.611517 C208.02594,62.5794595 210.22522,63.105444 211.257278,64.7863362 C212.289335,66.4672284 211.763351,68.6665087 210.082458,69.6985662 C206.056441,72.170516 202.071879,74.7094383 198.130416,77.3141528 C196.484837,78.4016327 194.269255,77.9492043 193.181775,76.3036257 C192.094296,74.6580471 192.546724,72.4424655 194.192303,71.3549856 C198.199928,68.7065478 202.2514,66.1249915 206.345048,63.611517 Z M244.255989,42.8731631 C246.031731,42.0145111 248.167329,42.7579589 249.025981,44.5337005 C249.884633,46.309442 249.141185,48.44504 247.365444,49.3036921 C243.114656,51.359142 238.899001,53.4853858 234.720119,55.6814177 C232.974084,56.5989711 230.814819,55.9273544 229.897266,54.1813197 C228.979712,52.4352851 229.651329,50.2760203 231.397364,49.3584668 C235.64671,47.1254059 239.933474,44.9632968 244.255989,42.8731631 Z M284.096612,26.0264166 C285.94971,25.3507164 287.999705,26.3051855 288.675405,28.1582831 C289.351106,30.0113807 288.396637,32.0613763 286.543539,32.7370765 C282.104728,34.3556127 277.694824,36.048106 273.315424,37.8137256 C271.486057,38.5512616 269.405172,37.6661581 268.667636,35.8367916 C267.930099,34.007425 268.815203,31.9265393 270.64457,31.1890033 C275.098089,29.3935013 279.582646,27.6723569 284.096612,26.0264166 Z M325.40273,13.2839624 C327.314439,12.7982583 329.257927,13.954264 329.743631,15.8659734 C330.229335,17.7776828 329.07333,19.7211705 327.16162,20.2068746 C322.581178,21.3706182 318.023547,22.6105011 313.490243,23.9258615 C311.595927,24.4755065 309.614706,23.3854356 309.065061,21.4911199 C308.515416,19.5968043 309.605487,17.6155827 311.499802,17.0659377 C316.109897,15.7282962 320.744722,14.4674131 325.40273,13.2839624 Z M367.760473,4.76389143 C369.711273,4.47247748 371.528946,5.81767537 371.82036,7.76847503 C372.111774,9.71927468 370.766576,11.536948 368.815777,11.8283619 C364.141047,12.5266814 359.483324,13.3023086 354.844011,14.1547362 C352.90404,14.5111864 351.042424,13.2274897 350.685973,11.2875195 C350.329523,9.34754921 351.61322,7.4859326 353.55319,7.12948239 C358.270758,6.26267629 363.006998,5.47397412 367.760473,4.76389143 Z M410.76586,0.519585366 C412.735969,0.42360156 414.410868,1.94288001 414.506852,3.91298876 C414.602836,5.88309752 413.083557,7.55799647 411.113448,7.65398027 C406.388565,7.88417686 401.675323,8.19194395 396.974997,8.57690693 C395.009134,8.73791374 393.284965,7.27478854 393.123958,5.30892532 C392.962951,3.3430621 394.426077,1.61889328 396.39194,1.45788646 C401.170653,1.06650352 405.962395,0.753610484 410.76586,0.519585366 Z"></path>
                <g transform="translate(32.142857, 32.142857)" id="路径-37-+-路径-38-蒙版">
                    <mask fill="white" id="mask-3">
                        <use xlink:href="#path-2"></use>
                    </mask>
                    <use xlink:href="#path-2" fill="url(#linearGradient-1)" id="蒙版"></use>
                    <path mask="url(#mask-3)" fill="url(#linearGradient-4)" id="矩形" d="M182.894737,250 L617.105263,250 C627.382743,250 635.714286,258.331543 635.714286,268.609023 L635.714286,614.460185 L635.714286,614.460185 L635.714286,667.105263 C635.714286,677.382743 627.382743,685.714286 617.105263,685.714286 L182.894737,685.714286 C172.617257,685.714286 164.285714,677.382743 164.285714,667.105263 L164.285714,268.609023 C164.285714,258.331543 172.617257,250 182.894737,250 Z"></path>
                    <path mask="url(#mask-3)" fill-rule="nonzero" fill="#FD3737" id="路径-2" d="M478.571429,663.173991 L478.571429,670.316848 C478.571429,672.289293 480.170412,673.888276 482.142857,673.888276 C484.115303,673.888276 485.714286,672.289293 485.714286,670.316848 L485.714286,663.173991 C485.714286,661.201545 484.115303,659.602562 482.142857,659.602562 C480.170412,659.602562 478.571429,661.201545 478.571429,663.173991 Z M478.464772,691.414518 C478.271579,693.511126 477.817574,695.555431 477.117286,697.512306 C476.452699,699.369418 477.419432,701.413659 479.276544,702.078246 C481.133657,702.742832 483.177897,701.776099 483.842484,699.918987 C484.744406,697.398669 485.329058,694.766088 485.577496,692.069921 C485.758481,690.105796 484.31296,688.366842 482.348835,688.185857 C480.384711,688.004873 478.645756,689.450393 478.464772,691.414518 Z M464.993596,711.332102 C463.139364,712.286398 461.17068,713.005148 459.126419,713.468668 C457.202802,713.904833 455.996984,715.817815 456.43315,717.741431 C456.869315,719.665048 458.782296,720.870866 460.705913,720.4347 C463.339034,719.837661 465.875042,718.911786 468.262239,717.683195 C470.016045,716.780584 470.706075,714.627133 469.803464,712.873327 C468.900853,711.119521 466.747402,710.429491 464.993596,711.332102 Z M438.584384,714.087231 L431.441526,714.087231 C429.469081,714.087231 427.870098,715.686214 427.870098,717.658659 C427.870098,719.631105 429.469081,721.230088 431.441526,721.230088 L438.584384,721.230088 C440.556829,721.230088 442.155812,719.631105 442.155812,717.658659 C442.155812,715.686214 440.556829,714.087231 438.584384,714.087231 Z M410.012955,714.087231 L402.870098,714.087231 C400.897652,714.087231 399.298669,715.686214 399.298669,717.658659 C399.298669,719.631105 400.897652,721.230088 402.870098,721.230088 L410.012955,721.230088 C411.9854,721.230088 413.584383,719.631105 413.584383,717.658659 C413.584383,715.686214 411.9854,714.087231 410.012955,714.087231 Z M381.441526,714.087231 L374.298669,714.087231 C372.326223,714.087231 370.72724,715.686214 370.72724,717.658659 C370.72724,719.631105 372.326223,721.230088 374.298669,721.230088 L381.441526,721.230088 C383.413972,721.230088 385.012955,719.631105 385.012955,717.658659 C385.012955,715.686214 383.413972,714.087231 381.441526,714.087231 Z M352.870097,714.087231 L345.72724,714.087231 C343.754795,714.087231 342.155812,715.686214 342.155812,717.658659 C342.155812,719.631105 343.754795,721.230088 345.72724,721.230088 L352.870097,721.230088 C354.842543,721.230088 356.441526,719.631105 356.441526,717.658659 C356.441526,715.686214 354.842543,714.087231 352.870097,714.087231 Z M324.298668,714.087231 L317.155811,714.087231 C315.183366,714.087231 313.584383,715.686214 313.584383,717.658659 C313.584383,719.631105 315.183366,721.230088 317.155811,721.230088 L324.298668,721.230088 C326.271114,721.230088 327.870097,719.631105 327.870097,717.658659 C327.870097,715.686214 326.271114,714.087231 324.298668,714.087231 Z M295.72724,714.087231 L288.584383,714.087231 C286.611937,714.087231 285.012954,715.686214 285.012954,717.658659 C285.012954,719.631105 286.611937,721.230088 288.584383,721.230088 L295.72724,721.230088 C297.699685,721.230088 299.298668,719.631105 299.298668,717.658659 C299.298668,715.686214 297.699685,714.087231 295.72724,714.087231 Z M267.155811,714.087231 L260.012954,714.087231 C258.040508,714.087231 256.441525,715.686214 256.441525,717.658659 C256.441525,719.631105 258.040508,721.230088 260.012954,721.230088 L267.155811,721.230088 C269.128256,721.230088 270.727239,719.631105 270.727239,717.658659 C270.727239,715.686214 269.128256,714.087231 267.155811,714.087231 Z M238.584382,714.087231 L231.441525,714.087231 C229.46908,714.087231 227.870096,715.686214 227.870096,717.658659 C227.870096,719.631105 229.46908,721.230088 231.441525,721.230088 L238.584382,721.230088 C240.556828,721.230088 242.155811,719.631105 242.155811,717.658659 C242.155811,715.686214 240.556828,714.087231 238.584382,714.087231 Z M210.012953,714.087231 L202.870096,714.087231 C200.897651,714.087231 199.298668,715.686214 199.298668,717.658659 C199.298668,719.631105 200.897651,721.230088 202.870096,721.230088 L210.012953,721.230088 C211.985399,721.230088 213.584382,719.631105 213.584382,717.658659 C213.584382,715.686214 211.985399,714.087231 210.012953,714.087231 Z M181.441525,714.087231 L174.298667,714.087231 C172.326222,714.087231 170.727239,715.686214 170.727239,717.658659 C170.727239,719.631105 172.326222,721.230088 174.298667,721.230088 L181.441525,721.230088 C183.41397,721.230088 185.012953,719.631105 185.012953,717.658659 C185.012953,715.686214 183.41397,714.087231 181.441525,714.087231 Z"></path>
                    <path mask="url(#mask-3)" fill-rule="nonzero" fill="#0F5EFF" id="形状" d="M572.94348,663.282921 L572.94348,670.425779 C572.94348,672.398224 571.344497,673.997207 569.372052,673.997207 C567.399606,673.997207 565.800623,672.398224 565.800623,670.425779 L565.800623,663.282921 C565.800623,661.310476 567.399606,659.711493 569.372052,659.711493 C571.344497,659.711493 572.94348,661.310476 572.94348,663.282921 Z M573.050137,691.523449 C573.24333,693.620057 573.697335,695.664362 574.397623,697.621237 C575.06221,699.478349 574.095477,701.52259 572.238365,702.187176 C570.381252,702.851763 568.337011,701.88503 567.672425,700.027918 C566.770503,697.5076 566.185851,694.875019 565.937412,692.178852 C565.756428,690.214727 567.201949,688.475772 569.166073,688.294788 C571.130198,688.113803 572.869153,689.559324 573.050137,691.523449 Z M586.521313,711.441033 C588.375545,712.395329 590.344229,713.114078 592.38849,713.577599 C594.312107,714.013764 595.517924,715.926746 595.081759,717.850362 C594.645594,719.773979 592.732613,720.979797 590.808996,720.543631 C588.175875,719.946591 585.639867,719.020717 583.25267,717.792126 C581.498864,716.889515 580.808834,714.736064 581.711445,712.982258 C582.614056,711.228452 584.767507,710.538422 586.521313,711.441033 Z M612.930525,714.196161 L620.073382,714.196161 C622.045828,714.196161 623.644811,715.795145 623.644811,717.76759 C623.644811,719.740036 622.045828,721.339019 620.073382,721.339019 L612.930525,721.339019 C610.95808,721.339019 609.359097,719.740036 609.359097,717.76759 C609.359097,715.795145 610.95808,714.196161 612.930525,714.196161 Z M641.501954,714.196161 L648.644811,714.196161 C650.617257,714.196161 652.21624,715.795145 652.21624,717.76759 C652.21624,719.740036 650.617257,721.339019 648.644811,721.339019 L641.501954,721.339019 C639.529509,721.339019 637.930526,719.740036 637.930526,717.76759 C637.930526,715.795145 639.529509,714.196161 641.501954,714.196161 Z"></path>
                </g>
                <circle r="14.2857143" cy="60.7142857" cx="732.142857" opacity="0.6" fill="#EDF0F5" id="椭圆形"></circle>
                <path fill="#EDF0F5" fill-opacity="0.6" id="形状结合" d="M803.571429,82.1428571 C807.51632,82.1428571 810.714286,85.3408232 810.714286,89.2857143 L810.714,103.570857 L825,103.571429 C828.944891,103.571429 832.142857,106.769395 832.142857,110.714286 C832.142857,114.659177 828.944891,117.857143 825,117.857143 L810.714,117.856857 L810.714286,132.142857 C810.714286,136.087748 807.51632,139.285714 803.571429,139.285714 C799.626538,139.285714 796.428571,136.087748 796.428571,132.142857 L796.428,117.856857 L782.142857,117.857143 C778.197966,117.857143 775,114.659177 775,110.714286 C775,106.769395 778.197966,103.571429 782.142857,103.571429 L796.428,103.570857 L796.428571,89.2857143 C796.428571,85.3408232 799.626538,82.1428571 803.571429,82.1428571 Z"></path>
                <path fill="#EDF0F5" fill-opacity="0.6" id="形状结合备份-3" d="M60.7142857,82.1428571 C64.6591768,82.1428571 67.8571429,85.3408232 67.8571429,89.2857143 L67.8568571,103.570857 L82.1428571,103.571429 C86.0877482,103.571429 89.2857143,106.769395 89.2857143,110.714286 C89.2857143,114.659177 86.0877482,117.857143 82.1428571,117.857143 L67.8568571,117.856857 L67.8571429,132.142857 C67.8571429,136.087748 64.6591768,139.285714 60.7142857,139.285714 C56.7693946,139.285714 53.5714286,136.087748 53.5714286,132.142857 L53.5708571,117.856857 L39.2857143,117.857143 C35.3408232,117.857143 32.1428571,114.659177 32.1428571,110.714286 C32.1428571,106.769395 35.3408232,103.571429 39.2857143,103.571429 L53.5708571,103.570857 L53.5714286,89.2857143 C53.5714286,85.3408232 56.7693946,82.1428571 60.7142857,82.1428571 Z"></path>
                <circle r="14.2857143" cy="60.7142857" cx="132.142857" opacity="0.6" fill="#EDF0F5" id="椭圆形备份-48"></circle>
            </g>
            <g transform="translate(214.285714, 264.285714)" id="编组-94">
                <g id="矩形">
                    <use xlink:href="#path-6" filter="url(#filter-7)" fill-opacity="1" fill="black"></use>
                    <use xlink:href="#path-6" fill-rule="evenodd" fill="url(#linearGradient-5)"></use>
                </g>
                <path fill-rule="nonzero" fill="url(#linearGradient-8)" id="矩形" d="M501.858304,138.888889 C513.340182,138.888889 522.648084,148.19679 522.648084,159.678668 L522.648084,215.321332 C522.648084,226.80321 513.340182,236.111111 501.858304,236.111111 L69.5702673,236.111111 C58.0883891,236.111111 48.7804878,226.80321 48.7804878,215.321332 L48.7804878,159.678668 C48.7804878,148.19679 58.0883891,138.888889 69.5702673,138.888889 L501.858304,138.888889 Z M501.858304,152.748742 L69.5702673,152.748742 C65.8227098,152.748742 62.7699317,155.723446 62.6403408,159.440428 L62.6403408,159.678668 L62.6403408,215.321332 C62.6403408,219.068889 65.6150448,222.121667 69.3320265,222.24724 L69.5702673,222.251258 L501.858304,222.251258 C505.605862,222.251258 508.65864,219.276554 508.788231,215.559572 L508.788231,215.321332 L508.788231,159.678668 C508.788231,155.931111 505.813527,152.878333 502.096545,152.75276 L501.858304,152.748742 Z"></path>
                <rect rx="13.859853" height="27.7777778" width="125.43554" y="173.578574" x="73.6167153" fill="#0F5EFF" id="矩形"></rect>
                <rect rx="13.859853" height="27.7777778" width="125.43554" y="173.578574" x="222.749428" fill="url(#linearGradient-9)" id="矩形备份-27"></rect>
                <rect rx="13.859853" height="27.7777778" width="125.43554" y="173.578574" x="373.268283" fill="#0F5EFF" id="矩形备份-28"></rect>
                <path fill-rule="nonzero" fill="url(#linearGradient-10)" id="直线-39" d="M427.874564,399.320074 C431.701857,399.320074 434.804491,402.422707 434.804491,406.25 C434.804491,409.997557 431.829787,413.050336 428.112805,413.175908 L427.874564,413.179926 L327.526132,413.179926 C323.69884,413.179926 320.596206,410.077293 320.596206,406.25 C320.596206,402.502443 323.57091,399.449664 327.287892,399.324092 L327.526132,399.320074 L427.874564,399.320074 Z"></path>
                <path fill-rule="nonzero" fill="url(#linearGradient-11)" id="路径" d="M514.285714,399.320074 C518.113007,399.320074 521.215641,402.422707 521.215641,406.25 C521.215641,409.997557 518.240937,413.050336 514.523955,413.175908 L514.285714,413.179926 L466.898955,413.179926 C463.071662,413.179926 459.969028,410.077293 459.969028,406.25 C459.969028,402.502443 462.943732,399.449664 466.660714,399.324092 L466.898955,399.320074 L514.285714,399.320074 Z"></path>
                <path fill-rule="nonzero" fill="url(#linearGradient-12)" id="直线-39备份-6" d="M515.679443,302.097851 C519.506735,302.097851 522.609369,305.200485 522.609369,309.027778 C522.609369,312.775335 519.634665,315.828113 515.917683,315.953686 L515.679443,315.957704 L327.526132,315.957704 C323.69884,315.957704 320.596206,312.85507 320.596206,309.027778 C320.596206,305.28022 323.57091,302.227442 327.287892,302.10187 L327.526132,302.097851 L515.679443,302.097851 Z"></path>
                <path fill-rule="nonzero" fill="url(#linearGradient-12)" id="直线-39备份-7" d="M515.679443,350.708962 C519.506735,350.708962 522.609369,353.811596 522.609369,357.638889 C522.609369,361.386446 519.634665,364.439224 515.917683,364.564797 L515.679443,364.568815 L327.526132,364.568815 C323.69884,364.568815 320.596206,361.466182 320.596206,357.638889 C320.596206,353.891331 323.57091,350.838553 327.287892,350.712981 L327.526132,350.708962 L515.679443,350.708962 Z"></path>
                <path fill="url(#linearGradient-13)" id="形状" d="M166.825941,312.217018 C168.065349,308.825248 171.030648,306.348507 174.604839,305.719758 C178.17903,305.091009 181.819107,306.405775 184.15389,309.168796 C186.488673,311.931818 187.163452,315.723325 185.924044,319.115095 L151.18175,410.01216 C149.265792,415.255382 143.437344,417.961666 138.163549,416.056815 C132.889754,414.151963 130.167689,408.357305 132.083648,403.114083 L166.825941,312.217018 L166.825941,312.217018 Z M213.92105,322.417689 C211.493044,319.733139 210.690016,315.964696 211.814458,312.531897 C212.9389,309.099097 215.819983,306.523465 219.372431,305.775215 C222.924878,305.026965 226.608989,306.219775 229.036995,308.904325 L269.173487,353.292392 C272.644842,357.131917 272.644842,362.95613 269.173487,366.795656 L229.036995,411.183722 C225.286429,415.333677 218.862175,415.675071 214.688022,411.946247 C210.513869,408.217424 210.170484,401.830413 213.92105,397.680458 L247.962402,360.049073 L213.931208,322.417689 L213.92105,322.417689 Z M106.636441,322.417689 C109.064447,319.734943 109.868444,315.968167 108.745573,312.53627 C107.622703,309.104372 104.743556,306.52874 101.19268,305.779588 C97.6418035,305.030436 93.9586604,306.221579 91.5306549,308.904325 L51.3840048,353.292392 C47.9126488,357.131917 47.9126488,362.95613 51.3840048,366.795656 L91.5306549,411.183722 C95.3073737,415.21348 101.635278,415.491636 105.754978,411.808982 C109.874677,408.126328 110.266809,401.841041 106.636441,397.680458 L72.6052477,360.049073 L106.636441,322.417689 L106.636441,322.417689 Z"></path>
                <path fill="url(#linearGradient-14)" id="矩形" d="M334.494774,472.222222 L397.212544,472.222222 L393.532611,486.890844 C391.599469,494.596563 384.673024,500 376.72852,500 L354.978797,500 C347.034294,500 340.107849,494.596563 338.174707,486.890844 L334.494774,472.222222 L334.494774,472.222222 Z"></path>
                <path fill="url(#linearGradient-14)" id="矩形备份-26" d="M425.087108,472.222222 L487.804878,472.222222 L484.124945,486.890844 C482.191803,494.596563 475.265358,500 467.320854,500 L445.571132,500 C437.626628,500 430.700183,494.596563 428.767041,486.890844 L425.087108,472.222222 L425.087108,472.222222 Z"></path>
                <path fill="url(#linearGradient-15)" id="矩形" d="M24.2547427,0 L547.173829,0 C560.569353,1.09199575e-15 571.428571,10.8592182 571.428571,24.2547427 L571.428571,90.2777778 L571.428571,90.2777778 L0,90.2777778 L0,24.2547427 C1.91223506e-15,10.8592182 10.8592182,6.01343161e-15 24.2547427,0 Z"></path>
                <rect rx="13.8888889" height="27.7777778" width="27.8745645" y="31.4185452" x="31.4744741" fill="url(#linearGradient-16)" id="矩形"></rect>
                <rect rx="13.8888889" height="27.7777778" width="27.8745645" y="31.4185452" x="94.1922442" fill="url(#linearGradient-17)" id="矩形备份-125"></rect>
            </g>
        </g>
    </g>
</svg>