<svg xmlns="http://www.w3.org/2000/svg" viewBox="0 0 171.429 171.429" fill="#3a3133"><path d="M122.433,106.138l-16.295,16.295c-0.744,0.744-1.6,1.116-2.566,1.116c-0.968,0-1.823-0.372-2.567-1.116l-15.29-15.29 l-15.29,15.29c-0.744,0.744-1.6,1.116-2.567,1.116s-1.823-0.372-2.567-1.116l-16.294-16.295c-0.744-0.744-1.116-1.6-1.116-2.566 c0-0.968,0.372-1.823,1.116-2.567l15.29-15.29l-15.29-15.29c-0.744-0.744-1.116-1.6-1.116-2.567s0.372-1.823,1.116-2.567 L65.29,48.996c0.744-0.744,1.6-1.116,2.567-1.116s1.823,0.372,2.567,1.116l15.29,15.29l15.29-15.29 c0.744-0.744,1.6-1.116,2.567-1.116c0.967,0,1.822,0.372,2.566,1.116l16.295,16.294c0.744,0.744,1.116,1.6,1.116,2.567 s-0.372,1.823-1.116,2.567l-15.29,15.29l15.29,15.29c0.744,0.744,1.116,1.6,1.116,2.567 C123.549,104.539,123.177,105.394,122.433,106.138z M146.429,85.714c0-11.012-2.717-21.168-8.148-30.469 s-12.797-16.667-22.098-22.098S96.726,25,85.714,25s-21.168,2.716-30.469,8.147S38.579,45.945,33.147,55.246S25,74.703,25,85.714 s2.716,21.168,8.147,30.469s12.797,16.666,22.098,22.098s19.457,8.148,30.469,8.148s21.168-2.717,30.469-8.148 s16.666-12.797,22.098-22.098S146.429,96.726,146.429,85.714z M171.429,85.714c0,15.551-3.832,29.893-11.496,43.024 c-7.664,13.133-18.062,23.53-31.194,31.194c-13.132,7.664-27.474,11.496-43.024,11.496s-29.892-3.832-43.024-11.496 c-13.133-7.664-23.531-18.062-31.194-31.194C3.832,115.607,0,101.265,0,85.714S3.832,55.822,11.496,42.69 c7.664-13.133,18.062-23.531,31.194-31.194C55.822,3.832,70.164,0,85.714,0s29.893,3.832,43.024,11.496 c13.133,7.664,23.53,18.062,31.194,31.194C167.597,55.822,171.429,70.164,171.429,85.714z"/></svg>