<?xml version="1.0" encoding="UTF-8"?>
<svg width="512px" height="422px" viewBox="0 0 512 422" version="1.1" xmlns="http://www.w3.org/2000/svg" xmlns:xlink="http://www.w3.org/1999/xlink">
    <title>编组</title>
    <defs>
        <linearGradient x1="66.103417%" y1="19.8649677%" x2="73.548941%" y2="69.0667512%" id="linearGradient-1">
            <stop stop-color="#29CDFF" offset="0%"></stop>
            <stop stop-color="#148EFF" offset="61.1406701%"></stop>
            <stop stop-color="#0A60FF" offset="100%"></stop>
        </linearGradient>
        <linearGradient x1="64.6563953%" y1="-35.8316756%" x2="34.1859027%" y2="115.049617%" id="linearGradient-2">
            <stop stop-color="#FA8E7D" offset="0%"></stop>
            <stop stop-color="#F74A5C" offset="51.2635191%"></stop>
            <stop stop-color="#F51D2C" offset="100%"></stop>
        </linearGradient>
        <linearGradient x1="31.6751878%" y1="-47.5195725%" x2="31.6751878%" y2="100%" id="linearGradient-3">
            <stop stop-color="#29CDFF" offset="0%"></stop>
            <stop stop-color="#148EFF" offset="32.3151772%"></stop>
            <stop stop-color="#0A60FF" offset="100%"></stop>
        </linearGradient>
        <linearGradient x1="61.0604993%" y1="10.3276397%" x2="42.2731586%" y2="88.2509603%" id="linearGradient-4">
            <stop stop-color="#1DA8FF" offset="0%"></stop>
            <stop stop-color="#0B66FF" offset="100%"></stop>
        </linearGradient>
        <linearGradient x1="27.1205013%" y1="5.64229412%" x2="84.9720654%" y2="94.867793%" id="linearGradient-5">
            <stop stop-color="#29CDFF" offset="0%"></stop>
            <stop stop-color="#148EFF" offset="33.3219279%"></stop>
            <stop stop-color="#0A60FF" offset="100%"></stop>
        </linearGradient>
    </defs>
    <g id="页面-1" stroke="none" stroke-width="1" fill="none" fill-rule="evenodd">
        <g id="画板备份" transform="translate(0.000000, -45.000000)">
            <g id="编组" transform="translate(-0.000000, 45.323669)">
                <g transform="translate(0.000000, 0.061590)" fill="url(#linearGradient-1)" fill-rule="nonzero" id="Fill-1">
                    <path d="M368.235716,412.333555 C356.439871,342.233331 331.021671,275.253824 292.985269,214.928511 C291.265671,212.201605 291.441149,208.689331 293.416973,206.141962 C300.275064,197.299476 307.458851,188.670813 314.965175,180.277173 C324.846998,169.228802 324.291692,152.360775 313.798176,141.898836 C302.409675,130.548227 283.853627,131.149094 273.13862,143.138462 C269.307869,147.424374 265.553354,151.766223 261.87327,156.159949 C258.815255,159.811613 253.194985,159.827402 250.136068,156.175738 C226.197029,127.598025 199.355154,101.538811 169.992977,78.4162656 C129.88196,46.8157242 85.618106,21.1282173 38.4518665,2.06603382 C20.062726,-5.36495629 0,8.16627538 0,27.9962331 L0,413.6219 C0,417.857741 3.43378235,421.290621 7.66872044,421.290621 L48.2687309,421.290621 C52.50412,421.290621 55.9374513,417.857741 55.9374513,413.6219 L55.9374513,84.1835945 C55.9374513,78.3571714 62.1734743,74.6662613 67.284902,77.450909 C91.1459001,90.4408193 113.923353,105.454369 135.382237,122.357132 C166.448675,146.827567 194.373644,174.955983 218.586501,206.138353 C220.565031,208.686624 220.738705,212.201154 219.018656,214.930316 C181.165401,274.981359 155.542401,341.985676 143.690619,412.322729 C142.900741,417.011024 146.495115,421.290621 151.249722,421.290621 L192.644122,421.290621 C196.351723,421.290621 199.519355,418.637695 200.186985,414.990993 C209.220287,365.63601 225.786527,318.181968 249.278073,274.21584 C252.167377,268.80849 259.918197,268.80443 262.814267,274.207269 C286.452872,318.309178 303.023624,365.746079 312.023995,414.992346 C312.68982,418.638597 315.858806,421.290621 319.565054,421.290621 L360.673004,421.290621 C365.423551,421.290621 369.024241,417.01779 368.235716,412.333555"></path>
                </g>
                <path d="M484.031725,188.154136 L484.031274,188.154136 C468.585118,188.154136 456.063,175.632018 456.063,160.185862 L456.063,91.0600157 C456.063,85.0942023 449.550452,81.4127654 444.439024,84.4897267 L385.215752,120.139804 C371.981796,128.106251 354.795742,123.836127 346.829746,110.602171 L346.829746,110.602171 C338.862848,97.3682149 343.132972,80.1821613 356.366927,72.2157141 L469.606862,4.04981137 C488.248168,-7.17133103 512,6.25389185 512,28.0118561 L512,160.185862 C512,175.632018 499.477882,188.154136 484.031725,188.154136" id="Fill-3" fill="url(#linearGradient-2)" fill-rule="nonzero"></path>
                <g transform="translate(0.000090, 0.061350)"></g>
                <g transform="translate(456.062098, 233.012491)" fill="url(#linearGradient-3)" fill-rule="nonzero" id="Fill-7">
                    <path d="M55.9374513,180.671451 L55.9374513,28.3814893 C55.9374513,13.0079604 43.70494,0.195332923 28.3323132,0.00226160794 C12.7160918,-0.193967415 0,12.404387 0,27.9687317 L0,180.671451 C0,184.90684 3.43333125,188.340171 7.66872044,188.340171 L48.2687309,188.340171 C52.50412,188.340171 55.9374513,184.90684 55.9374513,180.671451"></path>
                </g>
                <g transform="translate(0.000090, 0.061350)" fill-rule="nonzero">
                    <path d="M192.644483,421.291312 C196.351632,421.291312 199.519265,418.637483 200.186895,414.991232 C216.12024,327.93682 255.481076,246.790029 314.965085,180.277412 C324.846908,169.229042 324.291602,152.361015 313.798086,141.899075 C302.409585,130.548467 283.853988,131.149334 273.13853,143.138702 C205.141339,219.220979 160.525626,312.411721 143.690529,412.322969 C142.900651,417.011264 146.495025,421.291312 151.249632,421.291312 L192.644483,421.291312 Z" id="Fill-9" fill="url(#linearGradient-4)"></path>
                    <path d="M48.2687309,421.291312 C52.50412,421.291312 55.9374513,417.857981 55.9374513,413.622591 L55.9374513,84.1838344 C55.9374513,78.3574112 62.1734743,74.6665012 67.2844509,77.4511489 C91.1459001,90.4410591 113.923804,105.454609 135.381786,122.357371 C171.048554,150.451503 202.576017,183.364298 229.096708,220.187238 C271.110469,278.524999 299.219036,344.931607 312.023093,414.992586 C312.68982,418.638837 315.858355,421.291312 319.565054,421.291312 L360.673004,421.291312 C365.421747,421.291312 369.024241,417.019834 368.236618,412.336502 C354.620579,331.421126 322.857642,254.662196 274.48606,187.496385 C244.916827,146.437154 209.763863,109.736011 169.992977,78.4165055 C129.88196,46.8159641 85.618106,21.1284572 38.4514154,2.06582259 C20.062726,-5.36471642 0,8.16651525 0,27.996473 L0,413.622591 C0,417.857981 3.43333125,421.291312 7.66872044,421.291312 L48.2687309,421.291312 Z" id="Fill-5" fill="url(#linearGradient-5)"></path>
                </g>
            </g>
        </g>
    </g>
</svg>