<svg xmlns:xlink="http://www.w3.org/1999/xlink" xmlns="http://www.w3.org/2000/svg" version="1.1" viewBox="0 0 1200 1200" height="1200px" width="1200px">
    <title>手机APP开发</title>
    <defs>
        <linearGradient id="linearGradient-1" y2="100%" x2="50%" y1="0%" x1="50%">
            <stop offset="0%" stop-color="#F9FAFC"></stop>
            <stop offset="100%" stop-color="#F0F2F5"></stop>
        </linearGradient>
        <circle r="400" cy="400" cx="400" id="path-2"></circle>
        <linearGradient id="linearGradient-4" y2="144.66056%" x2="50%" y1="-32.5010362%" x1="50%">
            <stop offset="0%" stop-color="#FBFCFE"></stop>
            <stop offset="100%" stop-color="#CED6E5"></stop>
        </linearGradient>
        <linearGradient id="linearGradient-5" y2="100%" x2="7.93561841%" y1="22.6135855%" x1="7.93561841%">
            <stop offset="0%" stop-color="#FCFDFF"></stop>
            <stop offset="100%" stop-color="#F5F8FF"></stop>
        </linearGradient>
        <linearGradient id="linearGradient-6" y2="50%" x2="100%" y1="50%" x1="0%">
            <stop offset="0%" stop-color="#8F9BB3"></stop>
            <stop offset="100%" stop-color="#596680"></stop>
        </linearGradient>
        <linearGradient id="linearGradient-7" y2="100%" x2="7.93561841%" y1="22.6135855%" x1="7.93561841%">
            <stop offset="0%" stop-color="#FCFDFF"></stop>
            <stop offset="100%" stop-color="#F5F8FF"></stop>
        </linearGradient>
        <rect rx="28.5714286" height="500" width="428.571429" y="0" x="0" id="path-8"></rect>
        <filter id="filter-9" filterUnits="objectBoundingBox" height="197.2%" width="213.4%" y="-37.2%" x="-56.7%">
            <feOffset result="shadowOffsetOuter1" in="SourceAlpha" dy="57" dx="0"></feOffset>
            <feGaussianBlur result="shadowBlurOuter1" in="shadowOffsetOuter1" stdDeviation="71.5"></feGaussianBlur>
            <feColorMatrix in="shadowBlurOuter1" type="matrix" values="0 0 0 0 0.56   0 0 0 0 0.606666667   0 0 0 0 0.7  0 0 0 0.36166958 0"></feColorMatrix>
        </filter>
        <linearGradient id="linearGradient-10" y2="87.9734096%" x2="56.7448518%" y1="0%" x1="39.131246%">
            <stop offset="0%" stop-color="#FF528B"></stop>
            <stop offset="100%" stop-color="#FF3959"></stop>
        </linearGradient>
        <linearGradient id="linearGradient-11" y2="87.9734096%" x2="58.4519403%" y1="0%" x1="36.3804184%">
            <stop offset="0%" stop-color="#2F74FF"></stop>
            <stop offset="100%" stop-color="#0F5EFF"></stop>
        </linearGradient>
        <linearGradient id="linearGradient-12" y2="87.9734096%" x2="58.4739617%" y1="0%" x1="36.3449328%">
            <stop offset="0%" stop-color="#2F74FF"></stop>
            <stop offset="100%" stop-color="#0F5EFF"></stop>
        </linearGradient>
        <linearGradient id="linearGradient-13" y2="50%" x2="100%" y1="50%" x1="0%">
            <stop offset="0%" stop-color="#E9EDF3"></stop>
            <stop offset="100%" stop-color="#CBD3E1"></stop>
        </linearGradient>
        <linearGradient id="linearGradient-14" y2="50%" x2="100%" y1="50%" x1="0%">
            <stop offset="0%" stop-color="#E9EDF3"></stop>
            <stop offset="100%" stop-color="#CBD3E1"></stop>
        </linearGradient>
        <linearGradient id="linearGradient-15" y2="50%" x2="100%" y1="50%" x1="0%">
            <stop offset="0%" stop-color="#E9EDF3"></stop>
            <stop offset="100%" stop-color="#CBD3E1"></stop>
        </linearGradient>
    </defs>
    <g fill-rule="evenodd" fill="none" stroke-width="1" stroke="none" id="手机APP开发">
        <g id="zzkf-icon-fw-appkf" transform="translate(100.000000, 100.000000)">
            <rect height="1000" width="1000" y="0" x="0" id="矩形"></rect>
            <g transform="translate(71.428571, 71.428571)" id="编组-90">
                <path fill-rule="nonzero" fill="#EBEDF0" fill-opacity="0.658790428" id="椭圆形" d="M442.956101,-3.33649282 C444.927492,-3.27200707 446.473345,-1.62160277 446.408859,0.349788353 C446.344373,2.32117948 444.693969,3.86703172 442.722578,3.80254598 C438.01548,3.64857312 433.29803,3.57142857 428.571429,3.57142857 C426.598983,3.57142857 425,1.97244554 425,0 C425,-1.97244554 426.598983,-3.57142857 428.571429,-3.57142857 C433.375892,-3.57142857 438.171193,-3.49301092 442.956101,-3.33649282 Z M486.014747,0.213402039 C487.970019,0.473120082 489.344537,2.26872415 489.084819,4.22399598 C488.825101,6.17926781 487.029497,7.55378574 485.074225,7.29406769 C480.399209,6.67308699 475.708564,6.12921351 471.003632,5.66288592 C469.040804,5.46834096 467.607327,3.71944465 467.801872,1.75661668 C467.996417,-0.206211296 469.745314,-1.63968791 471.708142,-1.44514294 C476.491912,-0.971001355 481.261238,-0.418004844 486.014747,0.213402039 Z M528.518793,8.04552699 C530.438165,8.50000838 531.625693,10.4243966 531.171212,12.3437684 C530.71673,14.2631402 528.792342,15.4506685 526.87297,14.9961871 C522.280002,13.9086341 517.665668,12.8973816 513.031433,11.9630128 C511.097897,11.5731673 509.846489,9.68969439 510.236334,7.75615828 C510.62618,5.82262217 512.509653,4.57121368 514.443189,4.96105917 C519.15576,5.91122224 523.848127,6.93957613 528.518793,8.04552699 Z M570.04302,20.1180675 C571.906865,20.7635305 572.894559,22.7977266 572.249096,24.6615719 C571.603633,26.5254171 569.569437,27.513111 567.705592,26.8676481 C563.241745,25.3217859 558.750441,23.8504202 554.233245,22.4542981 C552.348753,21.8718614 551.293229,19.8720209 551.875666,17.9875292 C552.458102,16.1030375 554.457943,15.0475133 556.342435,15.62995 C560.936161,17.0497252 565.503555,18.5460181 570.04302,20.1180675 Z M610.035592,36.2612535 C611.825276,37.0904547 612.603901,39.2134801 611.774699,41.0031636 C610.945498,42.792847 608.822473,43.5714717 607.032789,42.7422705 C602.75245,40.7590915 598.438515,38.8473482 594.092604,37.0079566 C592.276157,36.2391517 591.426875,34.1433908 592.19568,32.3269436 C592.964485,30.5104964 595.060246,29.6612145 596.876693,30.4300195 C601.29608,32.3005096 605.682929,34.2445654 610.035592,36.2612535 Z M648.317396,56.3920965 C650.014943,57.3965249 650.576826,59.5869085 649.572398,61.2844553 C648.56797,62.982002 646.377586,63.5438855 644.680039,62.5394571 C640.614569,60.1339426 636.509114,57.7963352 632.36532,55.5277302 C630.635187,54.5805334 630.000492,52.4101289 630.947689,50.6799961 C631.894886,48.9498633 634.06529,48.3151682 635.795423,49.262365 C640.008982,51.5691645 644.183532,53.9461132 648.317396,56.3920965 Z M684.366014,80.2307785 C685.954924,81.3994989 686.295555,83.6349997 685.126834,85.2239095 C683.958114,86.8128192 681.722613,87.15345 680.133703,85.9847297 C676.33005,83.1869581 672.480245,80.4525794 668.58591,77.7828539 C666.959046,76.6675719 666.544327,74.4446231 667.659609,72.8177588 C668.774891,71.1908945 670.99784,70.7761751 672.624704,71.8914572 C676.58432,74.6059357 680.49864,77.3861366 684.366014,80.2307785 Z M717.866493,107.543539 C719.331343,108.864431 719.448045,111.122721 718.127153,112.587572 C716.806262,114.052422 714.547972,114.169124 713.083121,112.848232 C709.578369,109.687911 706.021542,106.585843 702.414197,103.543434 C700.906408,102.271775 700.714987,100.018589 701.986645,98.5107999 C703.258304,97.0030113 705.511491,96.8115899 707.019279,98.0832482 C710.686916,101.176507 714.303181,104.330413 717.866493,107.543539 Z M748.433357,137.988513 C749.760092,139.448073 749.652416,141.706812 748.192856,143.033547 C746.733296,144.360282 744.474558,144.252607 743.147823,142.793047 C739.9692,139.2962 736.732737,135.852195 733.439893,132.462562 C732.065509,131.04778 732.098258,128.786713 733.51304,127.412329 C734.927823,126.037945 737.188889,126.070694 738.563273,127.485477 C741.911115,130.931724 745.201637,134.433254 748.433357,137.988513 Z M775.866553,171.361446 C777.041711,172.945601 776.710154,175.182465 775.126,176.357623 C773.541845,177.532781 771.304981,177.201224 770.129823,175.61707 C767.317167,171.82551 764.441647,168.080753 761.504583,164.384404 C760.277511,162.840112 760.534669,160.593478 762.078961,159.366407 C763.623252,158.139335 765.869886,158.396493 767.096958,159.940785 C770.083166,163.698982 773.006811,167.506412 775.866553,171.361446 Z M799.856275,207.32069 C800.867575,209.014152 800.314574,211.206795 798.621112,212.218095 C796.92765,213.229396 794.735007,212.676394 793.723707,210.982932 C791.30343,206.930084 788.815769,202.917856 786.261881,198.947891 C785.194743,197.289048 785.674415,195.079205 787.333258,194.012067 C788.9921,192.94493 791.201944,193.424602 792.269081,195.083444 C794.865863,199.120086 797.39532,203.199724 799.856275,207.32069 Z M820.124498,245.482078 C820.961154,247.268289 820.191387,249.394542 818.405176,250.231197 C816.618965,251.067852 814.492712,250.298085 813.656056,248.511874 C811.653427,244.236376 809.579592,239.995232 807.435535,235.790078 C806.539591,234.032857 807.237794,231.882042 808.995015,230.986098 C810.752236,230.090154 812.903051,230.788357 813.798995,232.545578 C815.979224,236.821676 818.088059,241.134397 820.124498,245.482078 Z M836.462279,285.485934 C837.115165,287.347192 836.135586,289.385308 834.274328,290.038195 C832.41307,290.691081 830.374954,289.711502 829.722068,287.850244 C828.158684,283.393323 826.521078,278.964535 824.810059,274.565468 C824.095056,272.727178 825.00566,270.657324 826.84395,269.942321 C828.68224,269.227317 830.752094,270.137921 831.467097,271.976211 C833.207083,276.449753 834.872418,280.953534 836.462279,285.485934 Z M848.699731,326.95972 C849.161861,328.877265 847.982014,330.806372 846.064469,331.268502 C844.146925,331.730633 842.217817,330.550786 841.755687,328.633241 C840.648799,324.040363 839.465629,319.469551 838.206817,314.922308 C837.680578,313.021358 838.795001,311.053731 840.695952,310.527492 C842.596902,310.001252 844.564529,311.115676 845.090768,313.016626 C846.370899,317.64088 847.574104,322.289089 848.699731,326.95972 Z M856.704349,369.458356 C856.971689,371.4126 855.604183,373.213551 853.649939,373.480891 C851.695695,373.748231 849.894745,372.380726 849.627404,370.426481 C848.986654,365.742634 848.268497,361.07511 847.473422,356.425299 C847.140977,354.481072 848.447585,352.635464 850.391813,352.303019 C852.336041,351.970574 854.181649,353.277182 854.514094,355.221409 C855.322567,359.949575 856.052818,364.695698 856.704349,369.458356 Z M860.420054,412.476216 C860.492237,414.44734 858.95284,416.103768 856.981716,416.17595 C855.010591,416.248133 853.354164,414.708736 853.281982,412.737612 C853.108863,408.010178 852.858222,403.293762 852.530419,398.589621 C852.393304,396.621947 853.877265,394.915678 855.844939,394.778563 C857.812612,394.641448 859.518881,396.125408 859.655997,398.093082 C859.989256,402.87552 860.244063,407.670327 860.420054,412.476216 Z M859.883293,455.589531 C859.761833,457.558233 858.067421,459.055718 856.098718,458.934257 C854.130016,458.812797 852.632531,457.118385 852.753992,455.149683 C853.043952,450.449846 853.25699,445.738184 853.392757,441.015935 C853.449442,439.044305 855.093717,437.491935 857.065348,437.54862 C859.036979,437.605305 860.589349,439.24958 860.532664,441.221211 C860.394647,446.021713 860.178073,450.811577 859.883293,455.589531 Z M855.082509,498.515077 C854.765658,500.461907 852.930583,501.783266 850.983753,501.466416 C849.036923,501.149565 847.715563,499.314489 848.032414,497.367659 C848.790193,492.71163 849.470994,488.038339 850.074337,483.349164 C850.326051,481.392846 852.116015,480.010992 854.072334,480.262706 C856.028652,480.51442 857.410507,482.304384 857.158793,484.260702 C856.545305,489.028714 855.853049,493.780643 855.082509,498.515077 Z M846.004313,540.773437 C845.493493,542.678589 843.534961,543.808919 841.629809,543.2981 C839.724657,542.787281 838.594327,540.828749 839.105146,538.923597 C840.327617,534.364267 841.474238,529.781829 842.544378,525.17778 C842.990938,523.25655 844.910411,522.061094 846.831642,522.507654 C848.752872,522.954214 849.948328,524.873688 849.501768,526.794918 C848.413516,531.476889 847.247484,536.136905 846.004313,540.773437 Z M832.715426,581.918237 C832.015354,583.762266 829.952954,584.689627 828.108925,583.989555 C826.264897,583.289484 825.337536,581.227083 826.037608,579.383055 C827.713024,574.969911 829.314797,570.527543 830.842132,566.057532 C831.479886,564.191035 833.509983,563.194942 835.37648,563.832696 C837.242977,564.47045 838.23907,566.500546 837.601316,568.367043 C836.048112,572.912765 834.419211,577.430368 832.715426,581.918237 Z M815.384221,621.456527 C814.502664,623.221009 812.357625,623.936762 810.593142,623.055204 C808.82866,622.173647 808.112908,620.028608 808.994465,618.264125 C811.106981,614.035817 813.14879,609.771933 815.118918,605.474114 C815.940848,603.681079 818.060696,602.893844 819.85373,603.715774 C821.646765,604.537705 822.434,606.657552 821.61207,608.450587 C819.608669,612.820989 817.532389,617.156858 815.384221,621.456527 Z M794.159623,659.094184 C793.106008,660.761648 790.900137,661.259271 789.232673,660.205656 C787.565209,659.152041 787.067586,656.946171 788.121201,655.278707 C790.642585,651.288332 793.097396,647.256206 795.484491,643.183971 C796.481971,641.482332 798.67004,640.911499 800.371678,641.908979 C802.073317,642.90646 802.644151,645.094528 801.64667,646.796167 C799.21944,650.93687 796.723369,655.036766 794.159623,659.094184 Z M769.274533,694.438637 C768.060018,695.992823 765.815542,696.268181 764.261356,695.053667 C762.707169,693.839152 762.431811,691.594676 763.646326,690.04049 C766.556041,686.316995 769.40369,682.545494 772.187963,678.727601 C773.35018,677.133928 775.58427,676.784164 777.177943,677.946381 C778.771616,679.108598 779.12138,681.342688 777.959163,682.936361 C775.128266,686.818186 772.232946,690.652824 769.274533,694.438637 Z M740.996689,727.132142 C739.63376,728.557963 737.373031,728.608947 735.94721,727.246018 C734.521389,725.883089 734.470405,723.622361 735.833334,722.19654 C739.094745,718.784632 742.299466,715.318947 745.446055,711.801016 C746.761031,710.330853 749.018833,710.20505 750.488995,711.520027 C751.959158,712.835003 752.084961,715.092805 750.769984,716.562967 C747.570829,720.139668 744.312575,723.663245 740.996689,727.132142 Z M709.682887,756.794737 C708.18538,758.078488 705.930726,757.905204 704.646975,756.407698 C703.363225,754.910191 703.536508,752.655537 705.034015,751.371786 C708.62118,748.296658 712.157225,745.162148 715.640595,741.969678 C717.09472,740.636988 719.353879,740.735431 720.686569,742.189556 C722.019259,743.643681 721.920816,745.902841 720.466691,747.23553 C716.925125,750.481337 713.329997,753.66822 709.682887,756.794737 Z M675.500387,783.262894 C673.882577,784.39127 671.656354,783.994506 670.527977,782.376696 C669.399601,780.758887 669.796365,778.532663 671.414175,777.404287 C675.288919,774.701763 679.118588,771.934893 682.901559,769.104952 C684.480975,767.923433 686.719155,768.245992 687.900674,769.825407 C689.082193,771.404823 688.759635,773.643003 687.180219,774.824522 C683.333891,777.701859 679.440064,780.515082 675.500387,783.262894 Z M638.894306,806.167374 C637.172008,807.128742 634.996466,806.511886 634.035098,804.789587 C633.07373,803.067289 633.690586,800.891747 635.412884,799.930379 C639.535171,797.629363 643.618658,795.259759 647.661699,792.822674 C649.350977,791.804402 651.545881,792.34836 652.564154,794.037639 C653.582426,795.726918 653.038468,797.921822 651.349189,798.940094 C647.238156,801.418164 643.085971,803.827633 638.894306,806.167374 Z M600.120438,825.324197 C598.310367,826.107896 596.207701,825.275858 595.424001,823.465787 C594.640301,821.655716 595.47234,819.55305 597.282411,818.769351 C601.617606,816.892357 605.920246,814.943115 610.188702,812.922556 C611.971493,812.078637 614.100862,812.839742 614.944781,814.622533 C615.7887,816.405323 615.027595,818.534692 613.244804,819.378611 C608.904248,821.4333 604.528907,823.415479 600.120438,825.324197 Z M559.636539,840.480257 C557.756798,841.077848 555.748524,840.038461 555.150932,838.15872 C554.553341,836.278979 555.592729,834.270704 557.472469,833.673113 C561.97435,832.241913 566.449895,830.735775 570.897536,829.155458 C572.756144,828.495066 574.798197,829.466411 575.45859,831.325019 C576.118983,833.183627 575.147637,835.22568 573.289029,835.886073 C568.76605,837.493158 564.214688,839.024811 559.636539,840.480257 Z M517.840234,851.482601 C515.909906,851.888037 514.016396,850.651868 513.610961,848.72154 C513.205525,846.791213 514.441694,844.897703 516.372022,844.492268 C520.996686,843.520928 525.600998,842.472863 530.183485,841.348667 C532.099127,840.878713 534.033035,842.050675 534.502988,843.966317 C534.972942,845.88196 533.80098,847.815867 531.885338,848.285821 C527.225306,849.42904 522.543103,850.494836 517.840234,851.482601 Z M475.148272,858.233177 C473.187058,858.44337 471.426785,857.023886 471.216592,855.062672 C471.0064,853.101458 472.425883,851.341185 474.387097,851.130993 C479.088971,850.627071 483.776119,850.04559 488.44719,849.387002 C490.400318,849.111624 492.206878,850.471709 492.482256,852.424837 C492.757634,854.377965 491.397548,856.184526 489.44442,856.459903 C484.694855,857.12956 479.92901,857.720803 475.148272,858.233177 Z M432.065065,860.700456 C430.092681,860.716076 428.481085,859.129807 428.46535,857.157423 C428.449844,855.185039 430.036113,853.573443 432.008497,853.557823 C436.740067,853.52035 441.46207,853.405501 446.173291,853.213601 C448.144102,853.133325 449.806837,854.665907 449.887113,856.636718 C449.967389,858.607529 448.434808,860.270264 446.463996,860.35054 C441.674772,860.545617 436.874713,860.662365 432.065065,860.700456 Z M388.924853,858.919695 C386.960518,858.741008 385.512963,857.003746 385.69165,855.039411 C385.870337,853.075076 387.607599,851.627521 389.571934,851.806208 C394.271034,852.233664 398.983539,852.583841 403.708162,852.856354 C405.677335,852.969935 407.18159,854.658339 407.068009,856.627512 C406.954429,858.596685 405.266024,860.100939 403.296851,859.987359 C398.493531,859.710307 393.702425,859.354289 388.924853,858.919695 Z M346.178722,852.868337 C344.242037,852.494451 342.975138,850.621362 343.349024,848.684677 C343.72291,846.747992 345.595999,845.481093 347.532684,845.854979 C352.161961,846.748683 356.810143,847.565746 361.475817,848.305648 C363.423918,848.614586 364.752722,850.444278 364.443784,852.39238 C364.134846,854.340481 362.305154,855.669285 360.357053,855.360347 C355.612726,854.607972 350.886134,853.777126 346.178722,852.868337 Z M304.232184,842.557848 C302.342885,841.991199 301.270665,840.00026 301.837314,838.110961 C302.403963,836.221662 304.394902,835.149442 306.284201,835.716091 C310.80213,837.071133 315.34489,838.350985 319.910958,839.554972 C321.818214,840.05788 322.956663,842.011704 322.453755,843.918959 C321.950847,845.826215 319.997023,846.964664 318.089767,846.461756 C313.446363,845.237377 308.826651,843.935845 304.232184,842.557848 Z M263.463125,828.050756 C261.640533,827.296635 260.774366,825.207796 261.528487,823.385204 C262.282609,821.562611 264.371448,820.696444 266.19404,821.450566 C270.558002,823.256212 274.953044,824.988968 279.37756,826.647987 C281.224442,827.340495 282.160248,829.399078 281.46774,831.24596 C280.775232,833.092842 278.716649,834.028647 276.869767,833.336139 C272.370353,831.649037 267.900928,829.886955 263.463125,828.050756 Z M224.464092,809.570155 C222.726229,808.637216 222.073709,806.472104 223.006648,804.734241 C223.939587,802.996378 226.104699,802.343859 227.842562,803.276798 C232.001089,805.509224 236.196927,807.67222 240.428438,809.764764 C242.196509,810.639101 242.921024,812.781196 242.046687,814.549267 C241.17235,816.317339 239.030255,817.041853 237.262183,816.167516 C232.959297,814.039676 228.692711,811.840209 224.464092,809.570155 Z M187.479807,787.263788 C185.843777,786.161996 185.410691,783.942552 186.512483,782.306522 C187.614275,780.670491 189.833719,780.237405 191.469749,781.339197 C195.38353,783.97495 199.340844,786.545464 203.340056,789.049548 C205.011826,790.096317 205.518489,792.300129 204.47172,793.971899 C203.424951,795.643669 201.221139,796.150332 199.549369,795.103563 C195.483002,792.55743 191.459261,789.943768 187.479807,787.263788 Z M152.857361,761.346138 C151.33919,760.086892 151.12929,757.835352 152.388535,756.317181 C153.647781,754.79901 155.899321,754.58911 157.417492,755.848355 C161.050425,758.861688 164.733005,761.814575 168.463642,764.705668 C170.022724,765.913893 170.307149,768.157238 169.098924,769.716319 C167.890699,771.2754 165.647355,771.559825 164.088273,770.351601 C160.295222,767.41214 156.551047,764.409862 152.857361,761.346138 Z M121.022943,732.152434 C119.637241,730.748735 119.65183,728.487478 121.055529,727.101776 C122.459228,725.716074 124.720485,725.730663 126.106187,727.134362 C129.425002,730.496281 132.799339,733.80303 136.227693,737.053127 C137.65914,738.410146 137.719476,740.670645 136.362457,742.102092 C135.005438,743.533539 132.74494,743.593874 131.313493,742.236855 C127.827879,738.932475 124.397186,735.5705 121.022943,732.152434 Z M92.26738,699.974482 C91.0277138,698.440282 91.2664805,696.191619 92.8006803,694.951953 C94.3348801,693.712287 96.5835428,693.951053 97.823209,695.485253 C100.791051,699.158227 103.81972,702.781871 106.907838,706.354607 C108.197684,707.846867 108.033594,710.102209 106.541334,711.392054 C105.049073,712.6819 102.793731,712.51781 101.503886,711.025549 C98.3641499,707.393096 95.2848475,703.708872 92.26738,699.974482 Z M66.8085586,665.040018 C65.727833,663.389996 66.1893391,661.176287 67.8393614,660.095562 C69.4893837,659.014836 71.7030923,659.476342 72.7838179,661.126364 C75.3724772,665.078658 78.0268348,668.987673 80.7456618,672.851773 C81.8806922,674.464922 81.4931011,676.692761 79.8799528,677.827791 C78.2668046,678.962822 76.0389656,678.57523 74.9039351,676.962082 C72.1395241,673.033196 69.4406488,669.058621 66.8085586,665.040018 Z M44.9607777,627.736679 C44.0504583,625.986861 44.7310057,623.830395 46.4808228,622.920075 C48.2306399,622.009756 50.3871066,622.690303 51.2974261,624.44012 C53.4761007,628.627971 55.7244833,632.778869 58.0415179,636.891169 C59.0097583,638.609614 58.4015976,640.787602 56.683153,641.755843 C54.9647084,642.724083 52.7867199,642.115923 51.8184794,640.397478 C49.462427,636.215928 47.1761681,631.995105 44.9607777,627.736679 Z M26.9698941,588.453784 C26.2397833,586.621441 27.1333189,584.544162 28.9656616,583.814052 C30.7980043,583.083941 32.8752832,583.977476 33.6053939,585.809819 C35.3539179,590.198051 37.1755633,594.555563 39.0694482,598.88074 C39.8606095,600.687562 39.037254,602.793643 37.2304321,603.584804 C35.4236103,604.375966 33.3175288,603.55261 32.5263675,601.745788 C30.6004578,597.347474 28.7480006,592.916258 26.9698941,588.453784 Z M13.0143267,547.546965 C12.4723524,545.65044 13.5704324,543.673646 15.466957,543.131672 C17.3634815,542.589698 19.3402753,543.687778 19.8822496,545.584303 C21.1803534,550.126743 22.5540158,554.644625 24.0025273,559.136405 C24.6079033,561.013653 23.576847,563.026218 21.6995987,563.631594 C19.8223504,564.23697 17.8097857,563.205914 17.2044097,561.328665 C15.7313574,556.760785 14.3344221,552.16636 13.0143267,547.546965 Z M3.24014965,505.410561 C2.89172178,503.469134 4.18310286,501.61284 6.12453002,501.264412 C8.06595717,500.915984 9.92225144,502.207365 10.2706793,504.148792 C11.1057854,508.801973 12.017999,513.436481 13.0067691,518.050878 C13.4200422,519.979542 12.1915747,521.878058 10.2629102,522.291331 C8.33424567,522.704604 6.43573016,521.476137 6.02245709,519.547472 C5.01697717,514.855094 4.08935456,510.1423 3.24014965,505.410561 Z M-2.258104,462.510764 C-2.41089708,460.544246 -0.940581991,458.826204 1.02593667,458.673411 C2.99245534,458.520618 4.71049697,459.990933 4.86329005,461.957452 C5.2296734,466.672977 5.67366685,471.375346 6.19485932,476.063245 C6.41280953,478.023612 5.00030157,479.789487 3.03993449,480.007438 C1.07956741,480.225388 -0.686307662,478.81288 -0.904257872,476.852513 C-1.43417842,472.086109 -1.8855991,467.305077 -2.258104,462.510764 Z M-3.47685032,419.439988 C-3.43596535,417.467966 -1.80418204,415.90247 0.167839713,415.943355 C2.13986147,415.98424 3.70535715,417.616023 3.66447219,419.588045 C3.6024695,422.578647 3.57142857,425.573209 3.57142857,428.571429 C3.57142857,430.296832 3.58170849,432.021031 3.60225345,433.743968 C3.62577198,435.716273 2.04596815,437.334208 0.0736628331,437.357726 C-1.89864249,437.381245 -3.51657739,435.801441 -3.54009592,433.829136 C-3.56097939,432.077811 -3.57142857,430.325223 -3.57142857,428.571429 C-3.57142857,425.523851 -3.53987604,422.479934 -3.47685032,419.439988 Z M-0.450377972,376.370589 C-0.214571138,374.412289 1.5641034,373.015933 3.52240279,373.25174 C5.48070219,373.487547 6.87705831,375.266222 6.64125147,377.224521 C6.07801712,381.902 5.5917776,386.594409 5.18295427,391.300426 C5.01224602,393.265471 3.28087629,394.720068 1.31583174,394.54936 C-0.649212811,394.378651 -2.10380979,392.647282 -1.93310154,390.682237 C-1.51743876,385.89749 -1.02305536,381.126489 -0.450377972,376.370589 Z M6.86436221,333.752364 C7.29528306,331.827566 9.20497078,330.616539 11.1297691,331.04746 C13.0545674,331.478381 14.2655944,333.388068 13.8346735,335.312867 C12.8033625,339.919434 11.8485396,344.546657 10.9707701,349.193084 C10.6046262,351.131248 8.73661543,352.405623 6.79845136,352.039479 C4.86028728,351.673335 3.58591318,349.805324 3.95205714,347.86716 C4.84465416,343.142244 5.81561417,338.436817 6.86436221,333.752364 Z M18.4047969,292.148371 C19.0270369,290.276645 21.048796,289.263737 22.9205221,289.885977 C24.7922482,290.508217 25.8051568,292.529976 25.1829168,294.401702 C23.6939637,298.88054 22.2796679,303.38603 20.940754,307.91662 C20.3817423,309.808193 18.3951511,310.888447 16.5035784,310.329435 C14.6120057,309.770424 13.5317516,307.783832 14.0907633,305.89226 C15.4523611,301.284912 16.8906184,296.703089 18.4047969,292.148371 Z M34.0805405,251.89039 C34.8877967,250.090701 37.001143,249.286176 38.8008315,250.093432 C40.6005201,250.900688 41.4050454,253.014034 40.5977892,254.813723 C38.6659768,259.120485 36.8060785,263.460119 35.0189907,267.831006 C34.2725167,269.656743 32.1873272,270.531659 30.3615895,269.785185 C28.5358519,269.038711 27.6609358,266.953522 28.4074098,265.127784 C30.2247242,260.682968 32.1160722,256.269955 34.0805405,251.89039 Z M53.7203193,213.404848 C54.7038275,211.695096 56.8871466,211.106359 58.5968989,212.089867 C60.3066512,213.073375 60.8953882,215.256695 59.91188,216.966447 C57.5553595,221.063073 55.2673088,225.198953 53.0488033,229.372435 C52.1229831,231.114101 49.9605588,231.775474 48.2188934,230.849654 C46.477228,229.923833 45.8158548,227.761409 46.741675,226.019744 C48.9975524,221.775957 51.324132,217.570432 53.7203193,213.404848 Z M77.1101511,177.074325 C78.2593198,175.471218 80.4904803,175.103228 82.0935875,176.252397 C83.6966946,177.401565 84.0646844,179.632726 82.9155157,181.235833 C80.1621178,185.076863 77.472809,188.963374 74.8488337,192.893732 C73.7536382,194.534186 71.5359564,194.976205 69.8955027,193.881009 C68.255049,192.785814 67.8130299,190.568132 68.9082254,188.927678 C71.5762083,184.931403 74.3106052,180.979732 77.1101511,177.074325 Z M104.014826,143.238007 C105.317739,141.757143 107.574437,141.612886 109.0553,142.9158 C110.536164,144.218713 110.680421,146.475411 109.377507,147.956275 C106.259303,151.500359 103.200036,155.095832 100.201098,158.741125 C98.9479641,160.264344 96.6972852,160.483291 95.1740661,159.230157 C93.650847,157.977023 93.4318997,155.726344 94.6850338,154.203125 C97.7341076,150.496891 100.844509,146.841321 104.014826,143.238007 Z M134.07854,112.307537 C135.521776,110.963062 137.781661,111.043123 139.126137,112.486358 C140.470612,113.929593 140.390551,116.189479 138.947315,117.533954 C135.491521,120.753269 132.089217,124.029692 128.741918,127.36175 C127.344009,128.753293 125.082712,128.748133 123.691168,127.350225 C122.299625,125.952316 122.304785,123.691019 123.702693,122.299475 C127.105897,118.911767 130.565025,115.580623 134.07854,112.307537 Z M167.117464,84.4650203 C168.687119,83.2705648 170.927874,83.5747242 172.122329,85.1443794 C173.316785,86.7140346 173.012625,88.9547891 171.44297,90.1492446 C167.68537,93.008654 163.975335,95.9303503 160.314465,98.9129967 C158.785298,100.158866 156.535687,99.9292072 155.289818,98.4000401 C154.043949,96.8708731 154.273607,94.6212619 155.802774,93.3753929 C159.524878,90.3428573 163.296982,87.3722803 167.117464,84.4650203 Z M202.773619,60.0400884 C204.454511,59.0080309 206.653792,59.5340154 207.685849,61.2149076 C208.717907,62.8957999 208.191922,65.0950802 206.51103,66.1271377 C202.485013,68.5990875 198.500451,71.1380098 194.558987,73.7427242 C192.913408,74.8302041 190.697827,74.3777757 189.610347,72.7321971 C188.522867,71.0866185 188.975295,68.8710369 190.620874,67.783557 C194.6285,65.1351193 198.679971,62.5535629 202.773619,60.0400884 Z M240.684561,39.3017346 C242.460302,38.4430825 244.5959,39.1865304 245.454552,40.9622719 C246.313205,42.7380134 245.569757,44.8736114 243.794015,45.7322635 C239.543227,47.7877135 235.327573,49.9139572 231.14869,52.1099891 C229.402656,53.0275426 227.243391,52.3559258 226.325837,50.6098912 C225.408284,48.8638565 226.079901,46.7045917 227.825935,45.7870382 C232.075281,43.5539774 236.362045,41.3918682 240.684561,39.3017346 Z M280.525183,22.454988 C282.378281,21.7792878 284.428277,22.733757 285.103977,24.5868545 C285.779677,26.4399521 284.825208,28.4899477 282.97211,29.165648 C278.5333,30.7841841 274.123395,32.4766774 269.743995,34.242297 C267.914629,34.979833 265.833743,34.0947296 265.096207,32.265363 C264.358671,30.4359965 265.243774,28.3551108 267.073141,27.6175747 C271.526661,25.8220727 276.011217,24.1009283 280.525183,22.454988 Z M321.831301,9.71253385 C323.743011,9.22682971 325.686498,10.3828354 326.172203,12.2945448 C326.657907,14.2062542 325.501901,16.1497419 323.590192,16.635446 C319.00975,17.7991896 314.452119,19.0390725 309.918814,20.354433 C308.024499,20.904078 306.043277,19.814007 305.493632,17.9196914 C304.943987,16.0253757 306.034058,14.0441542 307.928374,13.4945092 C312.538468,12.1568676 317.173293,10.8959845 321.831301,9.71253385 Z M364.189045,1.19246286 C366.139844,0.901048905 367.957518,2.2462468 368.248932,4.19704645 C368.540346,6.14784611 367.195148,7.96551938 365.244348,8.25693334 C360.569619,8.95525282 355.911895,9.73088004 351.272582,10.5833076 C349.332612,10.9397578 347.470995,9.65606118 347.114545,7.71609091 C346.758095,5.77612064 348.041791,3.91450403 349.981762,3.55805382 C354.69933,2.69124772 359.435569,1.90254555 364.189045,1.19246286 Z M407.194432,-3.05184321 C409.164541,-3.14782701 410.83944,-1.62854856 410.935423,0.341560193 C411.031407,2.31166895 409.512129,3.98656789 407.54202,4.0825517 C402.817136,4.31274829 398.103895,4.62051538 393.403568,5.00547836 C391.437705,5.16648517 389.713536,3.70335997 389.55253,1.73749675 C389.391523,-0.228366468 390.854648,-1.95253529 392.820511,-2.11354211 C397.599224,-2.50492505 402.390966,-2.81781809 407.194432,-3.05184321 Z"></path>
                <g transform="translate(28.571429, 28.571429)" id="路径-37-+-路径-38-蒙版">
                    <mask fill="white" id="mask-3">
                        <use xlink:href="#path-2"></use>
                    </mask>
                    <use xlink:href="#path-2" fill="url(#linearGradient-1)" id="蒙版"></use>
                    <path mask="url(#mask-3)" fill-rule="nonzero" fill="#0F5EFF" id="路径-8" d="M408.8356,700 L408.8356,707.142857 C408.8356,709.115303 410.434583,710.714286 412.407029,710.714286 C414.379474,710.714286 415.978457,709.115303 415.978457,707.142857 L415.978457,700 C415.978457,698.027554 414.379474,696.428571 412.407029,696.428571 C410.434583,696.428571 408.8356,698.027554 408.8356,700 Z M410.820475,729.653449 C411.754137,732.179645 413.002406,734.574126 414.531956,736.784088 C415.654482,738.405962 417.879258,738.810764 419.501133,737.688238 C421.123007,736.565712 421.527809,734.340936 420.405284,732.719062 C419.215694,731.000291 418.245566,729.13935 417.520378,727.177219 C416.836586,725.327092 414.782439,724.38159 412.932312,725.065383 C411.082185,725.749175 410.136683,727.803322 410.820475,729.653449 Z M434.205806,749.938117 C436.416298,750.412458 438.682948,750.653664 440.978457,750.653664 L441.939364,750.653664 C443.911809,750.653664 445.510792,749.054681 445.510792,747.082235 C445.510792,745.10979 443.911809,743.510807 441.939364,743.510807 L440.978457,743.510807 C439.187487,743.510807 437.423157,743.323056 435.704449,742.954245 C433.775906,742.540406 431.87703,743.768316 431.463192,745.69686 C431.049353,747.625403 432.277263,749.524279 434.205806,749.938117 Z M463.367935,750.653664 L470.510792,750.653664 C472.483238,750.653664 474.082221,749.054681 474.082221,747.082235 C474.082221,745.10979 472.483238,743.510807 470.510792,743.510807 L463.367935,743.510807 C461.39549,743.510807 459.796507,745.10979 459.796507,747.082235 C459.796507,749.054681 461.39549,750.653664 463.367935,750.653664 Z M491.939364,750.653664 L499.082221,750.653664 C501.054667,750.653664 502.65365,749.054681 502.65365,747.082235 C502.65365,745.10979 501.054667,743.510807 499.082221,743.510807 L491.939364,743.510807 C489.966919,743.510807 488.367936,745.10979 488.367936,747.082235 C488.367936,749.054681 489.966919,750.653664 491.939364,750.653664 Z M520.510793,750.653664 L527.65365,750.653664 C529.626096,750.653664 531.225079,749.054681 531.225079,747.082235 C531.225079,745.10979 529.626096,743.510807 527.65365,743.510807 L520.510793,743.510807 C518.538347,743.510807 516.939364,745.10979 516.939364,747.082235 C516.939364,749.054681 518.538347,750.653664 520.510793,750.653664 Z M549.082222,750.653664 L556.225079,750.653664 C558.197524,750.653664 559.796507,749.054681 559.796507,747.082235 C559.796507,745.10979 558.197524,743.510807 556.225079,743.510807 L549.082222,743.510807 C547.109776,743.510807 545.510793,745.10979 545.510793,747.082235 C545.510793,749.054681 547.109776,750.653664 549.082222,750.653664 Z M577.653651,750.653664 L584.796508,750.653664 C586.768953,750.653664 588.367936,749.054681 588.367936,747.082235 C588.367936,745.10979 586.768953,743.510807 584.796508,743.510807 L577.653651,743.510807 C575.681205,743.510807 574.082222,745.10979 574.082222,747.082235 C574.082222,749.054681 575.681205,750.653664 577.653651,750.653664 Z M753.816614,583.790844 C752.255743,581.682195 750.487365,579.733484 748.540026,577.975365 C747.075983,576.653579 744.817622,576.768903 743.495836,578.232947 C742.174051,579.696991 742.289374,581.955352 743.753418,583.277137 C745.348606,584.717323 746.797198,586.313637 748.0755,588.040551 C749.249024,589.625916 751.485546,589.959779 753.070911,588.786255 C754.656276,587.612731 754.990138,585.376209 753.816614,583.790844 Z M727.518145,568.211531 C725.7788,567.976934 724.017591,567.858072 722.242688,567.857143 L719.889747,567.857143 C717.917301,567.857143 716.318311,569.456118 716.318311,571.428564 C716.318311,573.401009 717.917286,574.999996 719.889732,575 L722.240821,575.000005 C723.695565,575.000763 725.139056,575.098182 726.563385,575.290291 C728.518131,575.55394 730.316495,574.183036 730.580145,572.22829 C730.843794,570.273545 729.47289,568.47518 727.518145,568.211531 Z M698.461167,567.857143 L691.31831,567.857143 C689.345865,567.857143 687.746882,569.456126 687.746882,571.428571 C687.746882,573.401017 689.345865,575 691.31831,575 L698.461167,575 C700.433613,575 702.032596,573.401017 702.032596,571.428571 C702.032596,569.456126 700.433613,567.857143 698.461167,567.857143 Z M669.889739,567.857143 L662.746882,567.857143 C660.774436,567.857143 659.175453,569.456126 659.175453,571.428571 C659.175453,573.401017 660.774436,575 662.746882,575 L669.889739,575 C671.862184,575 673.461167,573.401017 673.461167,571.428571 C673.461167,569.456126 671.862184,567.857143 669.889739,567.857143 Z"></path>
                    <path mask="url(#mask-3)" fill-rule="nonzero" fill="#FD3737" id="形状" d="M390.07897,700 L390.07897,707.142857 C390.07897,709.115303 388.479987,710.714286 386.507542,710.714286 C384.535096,710.714286 382.936113,709.115303 382.936113,707.142857 L382.936113,700 C382.936113,698.027554 384.535096,696.428571 386.507542,696.428571 C388.479987,696.428571 390.07897,698.027554 390.07897,700 Z M388.094095,729.653449 C387.160433,732.179645 385.912165,734.574126 384.382614,736.784088 C383.260088,738.405962 381.035312,738.810764 379.413438,737.688238 C377.791563,736.565712 377.386761,734.340936 378.509287,732.719062 C379.698876,731.000291 380.669005,729.13935 381.394193,727.177219 C382.077985,725.327092 384.132132,724.38159 385.982259,725.065383 C387.832386,725.749175 388.777887,727.803322 388.094095,729.653449 Z M364.708764,749.938117 C362.498273,750.412458 360.231622,750.653664 357.936113,750.653664 L356.975207,750.653664 C355.002761,750.653664 353.403778,749.054681 353.403778,747.082235 C353.403778,745.10979 355.002761,743.510807 356.975207,743.510807 L357.936113,743.510807 C359.727084,743.510807 361.491414,743.323056 363.210121,742.954245 C365.138664,742.540406 367.03754,743.768316 367.451379,745.69686 C367.865218,747.625403 366.637307,749.524279 364.708764,749.938117 Z M335.546635,750.653664 L328.403778,750.653664 C326.431333,750.653664 324.832349,749.054681 324.832349,747.082235 C324.832349,745.10979 326.431333,743.510807 328.403778,743.510807 L335.546635,743.510807 C337.519081,743.510807 339.118064,745.10979 339.118064,747.082235 C339.118064,749.054681 337.519081,750.653664 335.546635,750.653664 Z M306.975206,750.653664 L299.832349,750.653664 C297.859904,750.653664 296.260921,749.054681 296.260921,747.082235 C296.260921,745.10979 297.859904,743.510807 299.832349,743.510807 L306.975206,743.510807 C308.947652,743.510807 310.546635,745.10979 310.546635,747.082235 C310.546635,749.054681 308.947652,750.653664 306.975206,750.653664 Z M278.403778,750.653664 L271.26092,750.653664 C269.288475,750.653664 267.689492,749.054681 267.689492,747.082235 C267.689492,745.10979 269.288475,743.510807 271.26092,743.510807 L278.403778,743.510807 C280.376223,743.510807 281.975206,745.10979 281.975206,747.082235 C281.975206,749.054681 280.376223,750.653664 278.403778,750.653664 Z M249.832349,750.653664 L242.689492,750.653664 C240.717046,750.653664 239.118063,749.054681 239.118063,747.082235 C239.118063,745.10979 240.717046,743.510807 242.689492,743.510807 L249.832349,743.510807 C251.804794,743.510807 253.403777,745.10979 253.403777,747.082235 C253.403777,749.054681 251.804794,750.653664 249.832349,750.653664 Z M221.26092,750.653664 L214.118063,750.653664 C212.145617,750.653664 210.546634,749.054681 210.546634,747.082235 C210.546634,745.10979 212.145617,743.510807 214.118063,743.510807 L221.26092,743.510807 C223.233366,743.510807 224.832349,745.10979 224.832349,747.082235 C224.832349,749.054681 223.233366,750.653664 221.26092,750.653664 Z M45.0979563,583.790844 C46.6588277,581.682195 48.4272056,579.733484 50.374544,577.975365 C51.838588,576.653579 54.0969489,576.768903 55.4187343,578.232947 C56.7405197,579.696991 56.6251963,581.955352 55.1611524,583.277137 C53.5659646,584.717323 52.1173729,586.313637 50.8390709,588.040551 C49.6655467,589.625916 47.429025,589.959779 45.84366,588.786255 C44.258295,587.612731 43.924432,585.376209 45.0979563,583.790844 Z M71.396426,568.211531 C73.1357702,567.976934 74.8969796,567.858072 76.6718826,567.857143 L79.0248239,567.857143 C80.9972694,567.857143 82.59626,569.456118 82.59626,571.428564 C82.59626,573.401009 80.9972844,574.999996 79.0248389,575 L76.6737496,575.000005 C75.2190058,575.000763 73.7755146,575.098182 72.3511853,575.290291 C70.3964397,575.55394 68.5980751,574.183036 68.3344256,572.22829 C68.0707761,570.273545 69.4416804,568.47518 71.396426,568.211531 Z M100.453403,567.857143 L107.59626,567.857143 C109.568706,567.857143 111.167689,569.456126 111.167689,571.428571 C111.167689,573.401017 109.568706,575 107.59626,575 L100.453403,575 C98.4809576,575 96.8819745,573.401017 96.8819745,571.428571 C96.8819745,569.456126 98.4809576,567.857143 100.453403,567.857143 Z M129.024832,567.857143 L136.167689,567.857143 C138.140134,567.857143 139.739118,569.456126 139.739118,571.428571 C139.739118,573.401017 138.140134,575 136.167689,575 L129.024832,575 C127.052386,575 125.453403,573.401017 125.453403,571.428571 C125.453403,569.456126 127.052386,567.857143 129.024832,567.857143 Z"></path>
                </g>
                <circle r="14.2857143" cy="57.1428571" cx="728.571429" opacity="0.6" fill="#EDF0F5" id="椭圆形"></circle>
                <path fill="#EDF0F5" fill-opacity="0.6" id="形状结合" d="M800,78.5714286 C803.944891,78.5714286 807.142857,81.7693946 807.142857,85.7142857 L807.142571,99.9994286 L821.428571,100 C825.373462,100 828.571429,103.197966 828.571429,107.142857 C828.571429,111.087748 825.373462,114.285714 821.428571,114.285714 L807.142571,114.285429 L807.142857,128.571429 C807.142857,132.51632 803.944891,135.714286 800,135.714286 C796.055109,135.714286 792.857143,132.51632 792.857143,128.571429 L792.856571,114.285429 L778.571429,114.285714 C774.626538,114.285714 771.428571,111.087748 771.428571,107.142857 C771.428571,103.197966 774.626538,100 778.571429,100 L792.856571,99.9994286 L792.857143,85.7142857 C792.857143,81.7693946 796.055109,78.5714286 800,78.5714286 Z"></path>
                <path fill="#EDF0F5" fill-opacity="0.6" id="形状结合备份-3" d="M57.1428571,78.5714286 C61.0877482,78.5714286 64.2857143,81.7693946 64.2857143,85.7142857 L64.2854286,99.9994286 L78.5714286,100 C82.5163196,100 85.7142857,103.197966 85.7142857,107.142857 C85.7142857,111.087748 82.5163196,114.285714 78.5714286,114.285714 L64.2854286,114.285429 L64.2857143,128.571429 C64.2857143,132.51632 61.0877482,135.714286 57.1428571,135.714286 C53.1979661,135.714286 50,132.51632 50,128.571429 L49.9994286,114.285429 L35.7142857,114.285714 C31.7693946,114.285714 28.5714286,111.087748 28.5714286,107.142857 C28.5714286,103.197966 31.7693946,100 35.7142857,100 L49.9994286,99.9994286 L50,85.7142857 C50,81.7693946 53.1979661,78.5714286 57.1428571,78.5714286 Z"></path>
                <circle r="14.2857143" cy="57.1428571" cx="128.571429" opacity="0.6" fill="#EDF0F5" id="椭圆形备份-48"></circle>
            </g>
            <path fill="url(#linearGradient-4)" id="形状结合" d="M742.857143,592.857143 C758.636707,592.857143 771.428571,605.649007 771.428571,621.428571 L771.428571,721.428571 C771.428571,737.208136 758.636707,750 742.857143,750 L257.142857,750 C241.363293,750 228.571429,737.208136 228.571429,721.428571 L228.571429,621.428571 C228.571429,605.649007 241.363293,592.857143 257.142857,592.857143 L742.857143,592.857143 Z M742.857143,421.428571 C758.636707,421.428571 771.428571,434.220436 771.428571,450 L771.428571,550 C771.428571,565.779564 758.636707,578.571429 742.857143,578.571429 L257.142857,578.571429 C241.363293,578.571429 228.571429,565.779564 228.571429,550 L228.571429,450 C228.571429,434.220436 241.363293,421.428571 257.142857,421.428571 L742.857143,421.428571 Z M742.857143,250 C758.636707,250 771.428571,262.791864 771.428571,278.571429 L771.428571,378.571429 C771.428571,394.350993 758.636707,407.142857 742.857143,407.142857 L257.142857,407.142857 C241.363293,407.142857 228.571429,394.350993 228.571429,378.571429 L228.571429,278.571429 C228.571429,262.791864 241.363293,250 257.142857,250 L742.857143,250 Z"></path>
            <g transform="translate(285.714286, 228.571429)" id="编组-18">
                <rect rx="28.5714286" height="542.857143" width="428.571429" y="0" x="0" fill="url(#linearGradient-5)" id="矩形"></rect>
                <path fill="url(#linearGradient-6)" id="矩形" d="M171.428571,542.857143 L257.142857,542.857143 L250.09854,566.338199 C249.192146,569.359513 246.411268,571.428571 243.256924,571.428571 L185.314505,571.428571 C182.16016,571.428571 179.379283,569.359513 178.472888,566.338199 L171.428571,542.857143 L171.428571,542.857143 Z"></path>
                <g id="矩形">
                    <use xlink:href="#path-8" filter="url(#filter-9)" fill-opacity="1" fill="black"></use>
                    <use xlink:href="#path-8" fill-rule="evenodd" fill="url(#linearGradient-7)"></use>
                </g>
                <path fill="url(#linearGradient-10)" id="路径" d="M220.99659,142.566076 C222.266983,139.077398 225.306414,136.529892 228.96996,135.883179 C232.633505,135.236466 236.364585,136.588797 238.757737,139.430762 C241.15089,142.272727 241.842538,146.172563 240.572145,149.661241 L204.961294,243.155365 C202.997436,248.548393 197.023278,251.331999 191.617638,249.372724 C186.211997,247.413448 183.421881,241.453228 185.385739,236.060199 L220.99659,142.566076 L220.99659,142.566076 Z"></path>
                <path fill="url(#linearGradient-11)" id="路径" d="M269.269076,153.058194 C266.78037,150.296943 265.957266,146.42083 267.109819,142.889951 C268.262373,139.359071 271.215483,136.709849 274.856741,135.940221 C278.498,135.170593 282.274214,136.397483 284.76292,139.158734 L325.902824,184.815031 C329.460964,188.764258 329.460964,194.754876 325.902824,198.704103 L284.76292,244.3604 C280.918589,248.628924 274.333729,248.980073 270.055222,245.144712 C265.776715,241.30935 265.424746,234.739853 269.269076,230.471328 L304.161462,191.764761 L269.279489,153.058194 L269.269076,153.058194 Z"></path>
                <path fill="url(#linearGradient-12)" id="路径" d="M159.302353,153.058194 C161.791058,150.298799 162.615155,146.424401 161.464213,142.894449 C160.31327,139.364497 157.362145,136.715275 153.722497,135.944719 C150.082849,135.174163 146.307627,136.399339 143.818921,139.158734 L102.668605,184.815031 C99.110465,188.764258 99.110465,194.754876 102.668605,198.704103 L143.818921,244.3604 C147.690058,248.505294 154.17616,248.791397 158.398852,245.003525 C162.621544,241.215652 163.02348,234.750785 159.302353,230.471328 L124.420379,191.764761 L159.302353,153.058194 L159.302353,153.058194 Z"></path>
                <path fill-rule="nonzero" fill="url(#linearGradient-13)" id="形状结合" d="M213.869237,7.14285714 C203.768662,7.29316005 194.737471,12.7890372 189.752899,21.2323748 L189.502,21.665 L54.9106748,21.6666667 C39.13115,21.6666667 26.3392857,34.458531 26.3392857,50.2380952 L26.3392857,450 C26.3392857,465.779564 39.13115,478.571429 54.9107143,478.571429 L373.660714,478.571429 C389.440279,478.571429 402.232143,465.779564 402.232143,450 L402.232143,50.2380952 L402.228315,49.7656144 C401.976007,34.2039729 389.282483,21.6666667 373.660714,21.6666667 L239.069,21.665 L239.049206,21.6303059 C234.049255,12.8449511 224.712376,7.14285714 214.285714,7.14285714 L213.869237,7.14285714 Z M214.285714,21.4285714 C220.360109,21.4285714 225.732465,25.35769 227.748015,31.1545522 L229.415928,35.9515836 L373.660675,35.952381 C381.550496,35.952381 387.946429,42.3483131 387.946429,50.2380952 L387.946429,450 C387.946429,457.889782 381.550496,464.285714 373.660714,464.285714 L54.9107143,464.285714 C47.0209321,464.285714 40.625,457.889782 40.625,450 L40.625,50.2380952 C40.625,42.3483131 47.0209321,35.952381 54.9107143,35.952381 L199.155501,35.9515836 L200.823413,31.1545522 C202.838964,25.35769 208.211319,21.4285714 214.285714,21.4285714 Z"></path>
                <path fill-rule="nonzero" fill="#0F5EFF" id="形状" d="M357.142857,238.571429 C359.440176,238.571429 361.315314,240.378999 361.423629,242.649496 L361.428571,242.857143 L361.428571,278.571429 C361.428571,292.63102 350.144996,304.055192 336.139518,304.282269 L335.714286,304.285714 L92.8571429,304.285714 C78.7975511,304.285714 67.3733796,293.002139 67.1463021,278.996661 L67.1428571,278.571429 L67.1428571,242.857143 C67.1428571,240.490208 69.0616368,238.571429 71.4285714,238.571429 C73.7258903,238.571429 75.6010286,240.378999 75.7093436,242.649496 L75.7142857,242.857143 L75.7142857,278.571429 C75.7142857,287.930343 83.2139788,295.537609 92.5313886,295.711253 L92.8571429,295.714286 L335.714286,295.714286 C345.0732,295.714286 352.680467,288.214593 352.85411,278.897183 L352.857143,278.571429 L352.857143,242.857143 C352.857143,240.490208 354.775923,238.571429 357.142857,238.571429 Z M335.714286,81.4285714 C349.773877,81.4285714 361.198049,92.712147 361.425126,106.717624 L361.428571,107.142857 L361.428571,142.857143 C361.428571,145.224077 359.509792,147.142857 357.142857,147.142857 C354.845538,147.142857 352.9704,145.335287 352.862085,143.06479 L352.857143,142.857143 L352.857143,107.142857 C352.857143,97.7839432 345.35745,90.1766763 336.04004,90.0030331 L335.714286,90 L92.8571429,90 C83.4982289,90 75.8909621,97.4996931 75.7173188,106.817103 L75.7142857,107.142857 L75.7142857,142.857143 C75.7142857,145.224077 73.7955061,147.142857 71.4285714,147.142857 C69.1312525,147.142857 67.2561142,145.335287 67.1477993,143.06479 L67.1428571,142.857143 L67.1428571,107.142857 C67.1428571,93.0832654 78.4264327,81.6590939 92.4319101,81.4320164 L92.8571429,81.4285714 L335.714286,81.4285714 Z"></path>
                <path fill-rule="nonzero" fill="url(#linearGradient-14)" id="直线-3" d="M335.714286,364.285714 C339.659177,364.285714 342.857143,367.48368 342.857143,371.428571 C342.857143,375.292955 339.788374,378.440588 335.954856,378.567454 L335.714286,378.571429 L92.8571429,378.571429 C88.9122518,378.571429 85.7142857,375.373462 85.7142857,371.428571 C85.7142857,367.564188 88.7830545,364.416555 92.616573,364.289689 L92.8571429,364.285714 L335.714286,364.285714 Z"></path>
                <path fill-rule="nonzero" fill="url(#linearGradient-15)" id="直线-3备份" d="M250,400 C253.944891,400 257.142857,403.197966 257.142857,407.142857 C257.142857,411.00724 254.074088,414.154874 250.24057,414.281739 L250,414.285714 L92.8571429,414.285714 C88.9122518,414.285714 85.7142857,411.087748 85.7142857,407.142857 C85.7142857,403.278474 88.7830545,400.13084 92.616573,400.003975 L92.8571429,400 L250,400 Z"></path>
                <path fill-rule="nonzero" fill="#FF3959" id="路径" d="M335.714286,400 C339.659177,400 342.857143,403.197966 342.857143,407.142857 C342.857143,411.00724 339.788374,414.154874 335.954856,414.281739 L335.714286,414.285714 L278.571429,414.285714 C274.626538,414.285714 271.428571,411.087748 271.428571,407.142857 C271.428571,403.278474 274.49734,400.13084 278.330859,400.003975 L278.571429,400 L335.714286,400 Z"></path>
            </g>
        </g>
    </g>
</svg>