<svg xmlns:xlink="http://www.w3.org/1999/xlink" xmlns="http://www.w3.org/2000/svg" version="1.1" viewBox="0 0 1200 1200" height="1200px" width="1200px">
    <title>小程序开发</title>
    <defs>
        <linearGradient id="linearGradient-1" y2="100%" x2="50%" y1="0%" x1="50%">
            <stop offset="0%" stop-color="#F9FAFC"></stop>
            <stop offset="100%" stop-color="#F0F2F5"></stop>
        </linearGradient>
        <circle r="400" cy="400" cx="400" id="path-2"></circle>
        <linearGradient id="linearGradient-4" y2="144.66056%" x2="50%" y1="-32.5010362%" x1="50%">
            <stop offset="0%" stop-color="#FBFCFE"></stop>
            <stop offset="100%" stop-color="#CED6E5"></stop>
        </linearGradient>
        <linearGradient id="linearGradient-5" y2="100%" x2="7.93561841%" y1="22.6135855%" x1="7.93561841%">
            <stop offset="0%" stop-color="#FCFDFF"></stop>
            <stop offset="100%" stop-color="#F5F8FF"></stop>
        </linearGradient>
        <linearGradient id="linearGradient-6" y2="50%" x2="100%" y1="50%" x1="0%">
            <stop offset="0%" stop-color="#596680"></stop>
            <stop offset="100%" stop-color="#8F9BB3"></stop>
        </linearGradient>
        <linearGradient id="linearGradient-7" y2="100%" x2="7.93561841%" y1="22.6135855%" x1="7.93561841%">
            <stop offset="0%" stop-color="#FCFDFF"></stop>
            <stop offset="100%" stop-color="#F5F8FF"></stop>
        </linearGradient>
        <circle r="264.285714" cy="500" cx="500" id="path-8"></circle>
        <filter id="filter-9" filterUnits="objectBoundingBox" height="172.8%" width="172.8%" y="-28.3%" x="-36.4%">
            <feOffset result="shadowOffsetOuter1" in="SourceAlpha" dy="43" dx="0"></feOffset>
            <feGaussianBlur result="shadowBlurOuter1" in="shadowOffsetOuter1" stdDeviation="57"></feGaussianBlur>
            <feColorMatrix in="shadowBlurOuter1" type="matrix" values="0 0 0 0 0.56   0 0 0 0 0.606666667   0 0 0 0 0.7  0 0 0 0.36166958 0"></feColorMatrix>
        </filter>
        <linearGradient id="linearGradient-10" y2="50%" x2="100%" y1="50%" x1="0%">
            <stop offset="0%" stop-color="#E9EDF3"></stop>
            <stop offset="100%" stop-color="#CBD3E1"></stop>
        </linearGradient>
        <linearGradient id="linearGradient-11" y2="50%" x2="100%" y1="50%" x1="0%">
            <stop offset="0%" stop-color="#E9EDF3"></stop>
            <stop offset="100%" stop-color="#CBD3E1"></stop>
        </linearGradient>
        <linearGradient id="linearGradient-12" y2="87.9734096%" x2="77.6496453%" y1="0%" x1="5.44495238%">
            <stop offset="0%" stop-color="#2F74FF"></stop>
            <stop offset="100%" stop-color="#0F5EFF"></stop>
        </linearGradient>
    </defs>
    <g fill-rule="evenodd" fill="none" stroke-width="1" stroke="none" id="小程序开发">
        <g id="zzkf-icon-fw-xcxkf" transform="translate(100.000000, 100.000000)">
            <rect height="1000" width="1000" y="0" x="0" id="矩形"></rect>
            <g transform="translate(71.428571, 71.428571)" id="编组-90">
                <path fill-rule="nonzero" fill="#EBEDF0" fill-opacity="0.658790428" id="椭圆形" d="M442.956101,-3.33649282 C444.927492,-3.27200707 446.473345,-1.62160277 446.408859,0.349788353 C446.344373,2.32117948 444.693969,3.86703172 442.722578,3.80254598 C438.01548,3.64857312 433.29803,3.57142857 428.571429,3.57142857 C426.598983,3.57142857 425,1.97244554 425,0 C425,-1.97244554 426.598983,-3.57142857 428.571429,-3.57142857 C433.375892,-3.57142857 438.171193,-3.49301092 442.956101,-3.33649282 Z M486.014747,0.213402039 C487.970019,0.473120082 489.344537,2.26872415 489.084819,4.22399598 C488.825101,6.17926781 487.029497,7.55378574 485.074225,7.29406769 C480.399209,6.67308699 475.708564,6.12921351 471.003632,5.66288592 C469.040804,5.46834096 467.607327,3.71944465 467.801872,1.75661668 C467.996417,-0.206211296 469.745314,-1.63968791 471.708142,-1.44514294 C476.491912,-0.971001355 481.261238,-0.418004844 486.014747,0.213402039 Z M528.518793,8.04552699 C530.438165,8.50000838 531.625693,10.4243966 531.171212,12.3437684 C530.71673,14.2631402 528.792342,15.4506685 526.87297,14.9961871 C522.280002,13.9086341 517.665668,12.8973816 513.031433,11.9630128 C511.097897,11.5731673 509.846489,9.68969439 510.236334,7.75615828 C510.62618,5.82262217 512.509653,4.57121368 514.443189,4.96105917 C519.15576,5.91122224 523.848127,6.93957613 528.518793,8.04552699 Z M570.04302,20.1180675 C571.906865,20.7635305 572.894559,22.7977266 572.249096,24.6615719 C571.603633,26.5254171 569.569437,27.513111 567.705592,26.8676481 C563.241745,25.3217859 558.750441,23.8504202 554.233245,22.4542981 C552.348753,21.8718614 551.293229,19.8720209 551.875666,17.9875292 C552.458102,16.1030375 554.457943,15.0475133 556.342435,15.62995 C560.936161,17.0497252 565.503555,18.5460181 570.04302,20.1180675 Z M610.035592,36.2612535 C611.825276,37.0904547 612.603901,39.2134801 611.774699,41.0031636 C610.945498,42.792847 608.822473,43.5714717 607.032789,42.7422705 C602.75245,40.7590915 598.438515,38.8473482 594.092604,37.0079566 C592.276157,36.2391517 591.426875,34.1433908 592.19568,32.3269436 C592.964485,30.5104964 595.060246,29.6612145 596.876693,30.4300195 C601.29608,32.3005096 605.682929,34.2445654 610.035592,36.2612535 Z M648.317396,56.3920965 C650.014943,57.3965249 650.576826,59.5869085 649.572398,61.2844553 C648.56797,62.982002 646.377586,63.5438855 644.680039,62.5394571 C640.614569,60.1339426 636.509114,57.7963352 632.36532,55.5277302 C630.635187,54.5805334 630.000492,52.4101289 630.947689,50.6799961 C631.894886,48.9498633 634.06529,48.3151682 635.795423,49.262365 C640.008982,51.5691645 644.183532,53.9461132 648.317396,56.3920965 Z M684.366014,80.2307785 C685.954924,81.3994989 686.295555,83.6349997 685.126834,85.2239095 C683.958114,86.8128192 681.722613,87.15345 680.133703,85.9847297 C676.33005,83.1869581 672.480245,80.4525794 668.58591,77.7828539 C666.959046,76.6675719 666.544327,74.4446231 667.659609,72.8177588 C668.774891,71.1908945 670.99784,70.7761751 672.624704,71.8914572 C676.58432,74.6059357 680.49864,77.3861366 684.366014,80.2307785 Z M717.866493,107.543539 C719.331343,108.864431 719.448045,111.122721 718.127153,112.587572 C716.806262,114.052422 714.547972,114.169124 713.083121,112.848232 C709.578369,109.687911 706.021542,106.585843 702.414197,103.543434 C700.906408,102.271775 700.714987,100.018589 701.986645,98.5107999 C703.258304,97.0030113 705.511491,96.8115899 707.019279,98.0832482 C710.686916,101.176507 714.303181,104.330413 717.866493,107.543539 Z M748.433357,137.988513 C749.760092,139.448073 749.652416,141.706812 748.192856,143.033547 C746.733296,144.360282 744.474558,144.252607 743.147823,142.793047 C739.9692,139.2962 736.732737,135.852195 733.439893,132.462562 C732.065509,131.04778 732.098258,128.786713 733.51304,127.412329 C734.927823,126.037945 737.188889,126.070694 738.563273,127.485477 C741.911115,130.931724 745.201637,134.433254 748.433357,137.988513 Z M775.866553,171.361446 C777.041711,172.945601 776.710154,175.182465 775.126,176.357623 C773.541845,177.532781 771.304981,177.201224 770.129823,175.61707 C767.317167,171.82551 764.441647,168.080753 761.504583,164.384404 C760.277511,162.840112 760.534669,160.593478 762.078961,159.366407 C763.623252,158.139335 765.869886,158.396493 767.096958,159.940785 C770.083166,163.698982 773.006811,167.506412 775.866553,171.361446 Z M799.856275,207.32069 C800.867575,209.014152 800.314574,211.206795 798.621112,212.218095 C796.92765,213.229396 794.735007,212.676394 793.723707,210.982932 C791.30343,206.930084 788.815769,202.917856 786.261881,198.947891 C785.194743,197.289048 785.674415,195.079205 787.333258,194.012067 C788.9921,192.94493 791.201944,193.424602 792.269081,195.083444 C794.865863,199.120086 797.39532,203.199724 799.856275,207.32069 Z M820.124498,245.482078 C820.961154,247.268289 820.191387,249.394542 818.405176,250.231197 C816.618965,251.067852 814.492712,250.298085 813.656056,248.511874 C811.653427,244.236376 809.579592,239.995232 807.435535,235.790078 C806.539591,234.032857 807.237794,231.882042 808.995015,230.986098 C810.752236,230.090154 812.903051,230.788357 813.798995,232.545578 C815.979224,236.821676 818.088059,241.134397 820.124498,245.482078 Z M836.462279,285.485934 C837.115165,287.347192 836.135586,289.385308 834.274328,290.038195 C832.41307,290.691081 830.374954,289.711502 829.722068,287.850244 C828.158684,283.393323 826.521078,278.964535 824.810059,274.565468 C824.095056,272.727178 825.00566,270.657324 826.84395,269.942321 C828.68224,269.227317 830.752094,270.137921 831.467097,271.976211 C833.207083,276.449753 834.872418,280.953534 836.462279,285.485934 Z M848.699731,326.95972 C849.161861,328.877265 847.982014,330.806372 846.064469,331.268502 C844.146925,331.730633 842.217817,330.550786 841.755687,328.633241 C840.648799,324.040363 839.465629,319.469551 838.206817,314.922308 C837.680578,313.021358 838.795001,311.053731 840.695952,310.527492 C842.596902,310.001252 844.564529,311.115676 845.090768,313.016626 C846.370899,317.64088 847.574104,322.289089 848.699731,326.95972 Z M856.704349,369.458356 C856.971689,371.4126 855.604183,373.213551 853.649939,373.480891 C851.695695,373.748231 849.894745,372.380726 849.627404,370.426481 C848.986654,365.742634 848.268497,361.07511 847.473422,356.425299 C847.140977,354.481072 848.447585,352.635464 850.391813,352.303019 C852.336041,351.970574 854.181649,353.277182 854.514094,355.221409 C855.322567,359.949575 856.052818,364.695698 856.704349,369.458356 Z M860.420054,412.476216 C860.492237,414.44734 858.95284,416.103768 856.981716,416.17595 C855.010591,416.248133 853.354164,414.708736 853.281982,412.737612 C853.108863,408.010178 852.858222,403.293762 852.530419,398.589621 C852.393304,396.621947 853.877265,394.915678 855.844939,394.778563 C857.812612,394.641448 859.518881,396.125408 859.655997,398.093082 C859.989256,402.87552 860.244063,407.670327 860.420054,412.476216 Z M859.883293,455.589531 C859.761833,457.558233 858.067421,459.055718 856.098718,458.934257 C854.130016,458.812797 852.632531,457.118385 852.753992,455.149683 C853.043952,450.449846 853.25699,445.738184 853.392757,441.015935 C853.449442,439.044305 855.093717,437.491935 857.065348,437.54862 C859.036979,437.605305 860.589349,439.24958 860.532664,441.221211 C860.394647,446.021713 860.178073,450.811577 859.883293,455.589531 Z M855.082509,498.515077 C854.765658,500.461907 852.930583,501.783266 850.983753,501.466416 C849.036923,501.149565 847.715563,499.314489 848.032414,497.367659 C848.790193,492.71163 849.470994,488.038339 850.074337,483.349164 C850.326051,481.392846 852.116015,480.010992 854.072334,480.262706 C856.028652,480.51442 857.410507,482.304384 857.158793,484.260702 C856.545305,489.028714 855.853049,493.780643 855.082509,498.515077 Z M846.004313,540.773437 C845.493493,542.678589 843.534961,543.808919 841.629809,543.2981 C839.724657,542.787281 838.594327,540.828749 839.105146,538.923597 C840.327617,534.364267 841.474238,529.781829 842.544378,525.17778 C842.990938,523.25655 844.910411,522.061094 846.831642,522.507654 C848.752872,522.954214 849.948328,524.873688 849.501768,526.794918 C848.413516,531.476889 847.247484,536.136905 846.004313,540.773437 Z M832.715426,581.918237 C832.015354,583.762266 829.952954,584.689627 828.108925,583.989555 C826.264897,583.289484 825.337536,581.227083 826.037608,579.383055 C827.713024,574.969911 829.314797,570.527543 830.842132,566.057532 C831.479886,564.191035 833.509983,563.194942 835.37648,563.832696 C837.242977,564.47045 838.23907,566.500546 837.601316,568.367043 C836.048112,572.912765 834.419211,577.430368 832.715426,581.918237 Z M815.384221,621.456527 C814.502664,623.221009 812.357625,623.936762 810.593142,623.055204 C808.82866,622.173647 808.112908,620.028608 808.994465,618.264125 C811.106981,614.035817 813.14879,609.771933 815.118918,605.474114 C815.940848,603.681079 818.060696,602.893844 819.85373,603.715774 C821.646765,604.537705 822.434,606.657552 821.61207,608.450587 C819.608669,612.820989 817.532389,617.156858 815.384221,621.456527 Z M794.159623,659.094184 C793.106008,660.761648 790.900137,661.259271 789.232673,660.205656 C787.565209,659.152041 787.067586,656.946171 788.121201,655.278707 C790.642585,651.288332 793.097396,647.256206 795.484491,643.183971 C796.481971,641.482332 798.67004,640.911499 800.371678,641.908979 C802.073317,642.90646 802.644151,645.094528 801.64667,646.796167 C799.21944,650.93687 796.723369,655.036766 794.159623,659.094184 Z M769.274533,694.438637 C768.060018,695.992823 765.815542,696.268181 764.261356,695.053667 C762.707169,693.839152 762.431811,691.594676 763.646326,690.04049 C766.556041,686.316995 769.40369,682.545494 772.187963,678.727601 C773.35018,677.133928 775.58427,676.784164 777.177943,677.946381 C778.771616,679.108598 779.12138,681.342688 777.959163,682.936361 C775.128266,686.818186 772.232946,690.652824 769.274533,694.438637 Z M740.996689,727.132142 C739.63376,728.557963 737.373031,728.608947 735.94721,727.246018 C734.521389,725.883089 734.470405,723.622361 735.833334,722.19654 C739.094745,718.784632 742.299466,715.318947 745.446055,711.801016 C746.761031,710.330853 749.018833,710.20505 750.488995,711.520027 C751.959158,712.835003 752.084961,715.092805 750.769984,716.562967 C747.570829,720.139668 744.312575,723.663245 740.996689,727.132142 Z M709.682887,756.794737 C708.18538,758.078488 705.930726,757.905204 704.646975,756.407698 C703.363225,754.910191 703.536508,752.655537 705.034015,751.371786 C708.62118,748.296658 712.157225,745.162148 715.640595,741.969678 C717.09472,740.636988 719.353879,740.735431 720.686569,742.189556 C722.019259,743.643681 721.920816,745.902841 720.466691,747.23553 C716.925125,750.481337 713.329997,753.66822 709.682887,756.794737 Z M675.500387,783.262894 C673.882577,784.39127 671.656354,783.994506 670.527977,782.376696 C669.399601,780.758887 669.796365,778.532663 671.414175,777.404287 C675.288919,774.701763 679.118588,771.934893 682.901559,769.104952 C684.480975,767.923433 686.719155,768.245992 687.900674,769.825407 C689.082193,771.404823 688.759635,773.643003 687.180219,774.824522 C683.333891,777.701859 679.440064,780.515082 675.500387,783.262894 Z M638.894306,806.167374 C637.172008,807.128742 634.996466,806.511886 634.035098,804.789587 C633.07373,803.067289 633.690586,800.891747 635.412884,799.930379 C639.535171,797.629363 643.618658,795.259759 647.661699,792.822674 C649.350977,791.804402 651.545881,792.34836 652.564154,794.037639 C653.582426,795.726918 653.038468,797.921822 651.349189,798.940094 C647.238156,801.418164 643.085971,803.827633 638.894306,806.167374 Z M600.120438,825.324197 C598.310367,826.107896 596.207701,825.275858 595.424001,823.465787 C594.640301,821.655716 595.47234,819.55305 597.282411,818.769351 C601.617606,816.892357 605.920246,814.943115 610.188702,812.922556 C611.971493,812.078637 614.100862,812.839742 614.944781,814.622533 C615.7887,816.405323 615.027595,818.534692 613.244804,819.378611 C608.904248,821.4333 604.528907,823.415479 600.120438,825.324197 Z M559.636539,840.480257 C557.756798,841.077848 555.748524,840.038461 555.150932,838.15872 C554.553341,836.278979 555.592729,834.270704 557.472469,833.673113 C561.97435,832.241913 566.449895,830.735775 570.897536,829.155458 C572.756144,828.495066 574.798197,829.466411 575.45859,831.325019 C576.118983,833.183627 575.147637,835.22568 573.289029,835.886073 C568.76605,837.493158 564.214688,839.024811 559.636539,840.480257 Z M517.840234,851.482601 C515.909906,851.888037 514.016396,850.651868 513.610961,848.72154 C513.205525,846.791213 514.441694,844.897703 516.372022,844.492268 C520.996686,843.520928 525.600998,842.472863 530.183485,841.348667 C532.099127,840.878713 534.033035,842.050675 534.502988,843.966317 C534.972942,845.88196 533.80098,847.815867 531.885338,848.285821 C527.225306,849.42904 522.543103,850.494836 517.840234,851.482601 Z M475.148272,858.233177 C473.187058,858.44337 471.426785,857.023886 471.216592,855.062672 C471.0064,853.101458 472.425883,851.341185 474.387097,851.130993 C479.088971,850.627071 483.776119,850.04559 488.44719,849.387002 C490.400318,849.111624 492.206878,850.471709 492.482256,852.424837 C492.757634,854.377965 491.397548,856.184526 489.44442,856.459903 C484.694855,857.12956 479.92901,857.720803 475.148272,858.233177 Z M432.065065,860.700456 C430.092681,860.716076 428.481085,859.129807 428.46535,857.157423 C428.449844,855.185039 430.036113,853.573443 432.008497,853.557823 C436.740067,853.52035 441.46207,853.405501 446.173291,853.213601 C448.144102,853.133325 449.806837,854.665907 449.887113,856.636718 C449.967389,858.607529 448.434808,860.270264 446.463996,860.35054 C441.674772,860.545617 436.874713,860.662365 432.065065,860.700456 Z M388.924853,858.919695 C386.960518,858.741008 385.512963,857.003746 385.69165,855.039411 C385.870337,853.075076 387.607599,851.627521 389.571934,851.806208 C394.271034,852.233664 398.983539,852.583841 403.708162,852.856354 C405.677335,852.969935 407.18159,854.658339 407.068009,856.627512 C406.954429,858.596685 405.266024,860.100939 403.296851,859.987359 C398.493531,859.710307 393.702425,859.354289 388.924853,858.919695 Z M346.178722,852.868337 C344.242037,852.494451 342.975138,850.621362 343.349024,848.684677 C343.72291,846.747992 345.595999,845.481093 347.532684,845.854979 C352.161961,846.748683 356.810143,847.565746 361.475817,848.305648 C363.423918,848.614586 364.752722,850.444278 364.443784,852.39238 C364.134846,854.340481 362.305154,855.669285 360.357053,855.360347 C355.612726,854.607972 350.886134,853.777126 346.178722,852.868337 Z M304.232184,842.557848 C302.342885,841.991199 301.270665,840.00026 301.837314,838.110961 C302.403963,836.221662 304.394902,835.149442 306.284201,835.716091 C310.80213,837.071133 315.34489,838.350985 319.910958,839.554972 C321.818214,840.05788 322.956663,842.011704 322.453755,843.918959 C321.950847,845.826215 319.997023,846.964664 318.089767,846.461756 C313.446363,845.237377 308.826651,843.935845 304.232184,842.557848 Z M263.463125,828.050756 C261.640533,827.296635 260.774366,825.207796 261.528487,823.385204 C262.282609,821.562611 264.371448,820.696444 266.19404,821.450566 C270.558002,823.256212 274.953044,824.988968 279.37756,826.647987 C281.224442,827.340495 282.160248,829.399078 281.46774,831.24596 C280.775232,833.092842 278.716649,834.028647 276.869767,833.336139 C272.370353,831.649037 267.900928,829.886955 263.463125,828.050756 Z M224.464092,809.570155 C222.726229,808.637216 222.073709,806.472104 223.006648,804.734241 C223.939587,802.996378 226.104699,802.343859 227.842562,803.276798 C232.001089,805.509224 236.196927,807.67222 240.428438,809.764764 C242.196509,810.639101 242.921024,812.781196 242.046687,814.549267 C241.17235,816.317339 239.030255,817.041853 237.262183,816.167516 C232.959297,814.039676 228.692711,811.840209 224.464092,809.570155 Z M187.479807,787.263788 C185.843777,786.161996 185.410691,783.942552 186.512483,782.306522 C187.614275,780.670491 189.833719,780.237405 191.469749,781.339197 C195.38353,783.97495 199.340844,786.545464 203.340056,789.049548 C205.011826,790.096317 205.518489,792.300129 204.47172,793.971899 C203.424951,795.643669 201.221139,796.150332 199.549369,795.103563 C195.483002,792.55743 191.459261,789.943768 187.479807,787.263788 Z M152.857361,761.346138 C151.33919,760.086892 151.12929,757.835352 152.388535,756.317181 C153.647781,754.79901 155.899321,754.58911 157.417492,755.848355 C161.050425,758.861688 164.733005,761.814575 168.463642,764.705668 C170.022724,765.913893 170.307149,768.157238 169.098924,769.716319 C167.890699,771.2754 165.647355,771.559825 164.088273,770.351601 C160.295222,767.41214 156.551047,764.409862 152.857361,761.346138 Z M121.022943,732.152434 C119.637241,730.748735 119.65183,728.487478 121.055529,727.101776 C122.459228,725.716074 124.720485,725.730663 126.106187,727.134362 C129.425002,730.496281 132.799339,733.80303 136.227693,737.053127 C137.65914,738.410146 137.719476,740.670645 136.362457,742.102092 C135.005438,743.533539 132.74494,743.593874 131.313493,742.236855 C127.827879,738.932475 124.397186,735.5705 121.022943,732.152434 Z M92.26738,699.974482 C91.0277138,698.440282 91.2664805,696.191619 92.8006803,694.951953 C94.3348801,693.712287 96.5835428,693.951053 97.823209,695.485253 C100.791051,699.158227 103.81972,702.781871 106.907838,706.354607 C108.197684,707.846867 108.033594,710.102209 106.541334,711.392054 C105.049073,712.6819 102.793731,712.51781 101.503886,711.025549 C98.3641499,707.393096 95.2848475,703.708872 92.26738,699.974482 Z M66.8085586,665.040018 C65.727833,663.389996 66.1893391,661.176287 67.8393614,660.095562 C69.4893837,659.014836 71.7030923,659.476342 72.7838179,661.126364 C75.3724772,665.078658 78.0268348,668.987673 80.7456618,672.851773 C81.8806922,674.464922 81.4931011,676.692761 79.8799528,677.827791 C78.2668046,678.962822 76.0389656,678.57523 74.9039351,676.962082 C72.1395241,673.033196 69.4406488,669.058621 66.8085586,665.040018 Z M44.9607777,627.736679 C44.0504583,625.986861 44.7310057,623.830395 46.4808228,622.920075 C48.2306399,622.009756 50.3871066,622.690303 51.2974261,624.44012 C53.4761007,628.627971 55.7244833,632.778869 58.0415179,636.891169 C59.0097583,638.609614 58.4015976,640.787602 56.683153,641.755843 C54.9647084,642.724083 52.7867199,642.115923 51.8184794,640.397478 C49.462427,636.215928 47.1761681,631.995105 44.9607777,627.736679 Z M26.9698941,588.453784 C26.2397833,586.621441 27.1333189,584.544162 28.9656616,583.814052 C30.7980043,583.083941 32.8752832,583.977476 33.6053939,585.809819 C35.3539179,590.198051 37.1755633,594.555563 39.0694482,598.88074 C39.8606095,600.687562 39.037254,602.793643 37.2304321,603.584804 C35.4236103,604.375966 33.3175288,603.55261 32.5263675,601.745788 C30.6004578,597.347474 28.7480006,592.916258 26.9698941,588.453784 Z M13.0143267,547.546965 C12.4723524,545.65044 13.5704324,543.673646 15.466957,543.131672 C17.3634815,542.589698 19.3402753,543.687778 19.8822496,545.584303 C21.1803534,550.126743 22.5540158,554.644625 24.0025273,559.136405 C24.6079033,561.013653 23.576847,563.026218 21.6995987,563.631594 C19.8223504,564.23697 17.8097857,563.205914 17.2044097,561.328665 C15.7313574,556.760785 14.3344221,552.16636 13.0143267,547.546965 Z M3.24014965,505.410561 C2.89172178,503.469134 4.18310286,501.61284 6.12453002,501.264412 C8.06595717,500.915984 9.92225144,502.207365 10.2706793,504.148792 C11.1057854,508.801973 12.017999,513.436481 13.0067691,518.050878 C13.4200422,519.979542 12.1915747,521.878058 10.2629102,522.291331 C8.33424567,522.704604 6.43573016,521.476137 6.02245709,519.547472 C5.01697717,514.855094 4.08935456,510.1423 3.24014965,505.410561 Z M-2.258104,462.510764 C-2.41089708,460.544246 -0.940581991,458.826204 1.02593667,458.673411 C2.99245534,458.520618 4.71049697,459.990933 4.86329005,461.957452 C5.2296734,466.672977 5.67366685,471.375346 6.19485932,476.063245 C6.41280953,478.023612 5.00030157,479.789487 3.03993449,480.007438 C1.07956741,480.225388 -0.686307662,478.81288 -0.904257872,476.852513 C-1.43417842,472.086109 -1.8855991,467.305077 -2.258104,462.510764 Z M-3.47685032,419.439988 C-3.43596535,417.467966 -1.80418204,415.90247 0.167839713,415.943355 C2.13986147,415.98424 3.70535715,417.616023 3.66447219,419.588045 C3.6024695,422.578647 3.57142857,425.573209 3.57142857,428.571429 C3.57142857,430.296832 3.58170849,432.021031 3.60225345,433.743968 C3.62577198,435.716273 2.04596815,437.334208 0.0736628331,437.357726 C-1.89864249,437.381245 -3.51657739,435.801441 -3.54009592,433.829136 C-3.56097939,432.077811 -3.57142857,430.325223 -3.57142857,428.571429 C-3.57142857,425.523851 -3.53987604,422.479934 -3.47685032,419.439988 Z M-0.450377972,376.370589 C-0.214571138,374.412289 1.5641034,373.015933 3.52240279,373.25174 C5.48070219,373.487547 6.87705831,375.266222 6.64125147,377.224521 C6.07801712,381.902 5.5917776,386.594409 5.18295427,391.300426 C5.01224602,393.265471 3.28087629,394.720068 1.31583174,394.54936 C-0.649212811,394.378651 -2.10380979,392.647282 -1.93310154,390.682237 C-1.51743876,385.89749 -1.02305536,381.126489 -0.450377972,376.370589 Z M6.86436221,333.752364 C7.29528306,331.827566 9.20497078,330.616539 11.1297691,331.04746 C13.0545674,331.478381 14.2655944,333.388068 13.8346735,335.312867 C12.8033625,339.919434 11.8485396,344.546657 10.9707701,349.193084 C10.6046262,351.131248 8.73661543,352.405623 6.79845136,352.039479 C4.86028728,351.673335 3.58591318,349.805324 3.95205714,347.86716 C4.84465416,343.142244 5.81561417,338.436817 6.86436221,333.752364 Z M18.4047969,292.148371 C19.0270369,290.276645 21.048796,289.263737 22.9205221,289.885977 C24.7922482,290.508217 25.8051568,292.529976 25.1829168,294.401702 C23.6939637,298.88054 22.2796679,303.38603 20.940754,307.91662 C20.3817423,309.808193 18.3951511,310.888447 16.5035784,310.329435 C14.6120057,309.770424 13.5317516,307.783832 14.0907633,305.89226 C15.4523611,301.284912 16.8906184,296.703089 18.4047969,292.148371 Z M34.0805405,251.89039 C34.8877967,250.090701 37.001143,249.286176 38.8008315,250.093432 C40.6005201,250.900688 41.4050454,253.014034 40.5977892,254.813723 C38.6659768,259.120485 36.8060785,263.460119 35.0189907,267.831006 C34.2725167,269.656743 32.1873272,270.531659 30.3615895,269.785185 C28.5358519,269.038711 27.6609358,266.953522 28.4074098,265.127784 C30.2247242,260.682968 32.1160722,256.269955 34.0805405,251.89039 Z M53.7203193,213.404848 C54.7038275,211.695096 56.8871466,211.106359 58.5968989,212.089867 C60.3066512,213.073375 60.8953882,215.256695 59.91188,216.966447 C57.5553595,221.063073 55.2673088,225.198953 53.0488033,229.372435 C52.1229831,231.114101 49.9605588,231.775474 48.2188934,230.849654 C46.477228,229.923833 45.8158548,227.761409 46.741675,226.019744 C48.9975524,221.775957 51.324132,217.570432 53.7203193,213.404848 Z M77.1101511,177.074325 C78.2593198,175.471218 80.4904803,175.103228 82.0935875,176.252397 C83.6966946,177.401565 84.0646844,179.632726 82.9155157,181.235833 C80.1621178,185.076863 77.472809,188.963374 74.8488337,192.893732 C73.7536382,194.534186 71.5359564,194.976205 69.8955027,193.881009 C68.255049,192.785814 67.8130299,190.568132 68.9082254,188.927678 C71.5762083,184.931403 74.3106052,180.979732 77.1101511,177.074325 Z M104.014826,143.238007 C105.317739,141.757143 107.574437,141.612886 109.0553,142.9158 C110.536164,144.218713 110.680421,146.475411 109.377507,147.956275 C106.259303,151.500359 103.200036,155.095832 100.201098,158.741125 C98.9479641,160.264344 96.6972852,160.483291 95.1740661,159.230157 C93.650847,157.977023 93.4318997,155.726344 94.6850338,154.203125 C97.7341076,150.496891 100.844509,146.841321 104.014826,143.238007 Z M134.07854,112.307537 C135.521776,110.963062 137.781661,111.043123 139.126137,112.486358 C140.470612,113.929593 140.390551,116.189479 138.947315,117.533954 C135.491521,120.753269 132.089217,124.029692 128.741918,127.36175 C127.344009,128.753293 125.082712,128.748133 123.691168,127.350225 C122.299625,125.952316 122.304785,123.691019 123.702693,122.299475 C127.105897,118.911767 130.565025,115.580623 134.07854,112.307537 Z M167.117464,84.4650203 C168.687119,83.2705648 170.927874,83.5747242 172.122329,85.1443794 C173.316785,86.7140346 173.012625,88.9547891 171.44297,90.1492446 C167.68537,93.008654 163.975335,95.9303503 160.314465,98.9129967 C158.785298,100.158866 156.535687,99.9292072 155.289818,98.4000401 C154.043949,96.8708731 154.273607,94.6212619 155.802774,93.3753929 C159.524878,90.3428573 163.296982,87.3722803 167.117464,84.4650203 Z M202.773619,60.0400884 C204.454511,59.0080309 206.653792,59.5340154 207.685849,61.2149076 C208.717907,62.8957999 208.191922,65.0950802 206.51103,66.1271377 C202.485013,68.5990875 198.500451,71.1380098 194.558987,73.7427242 C192.913408,74.8302041 190.697827,74.3777757 189.610347,72.7321971 C188.522867,71.0866185 188.975295,68.8710369 190.620874,67.783557 C194.6285,65.1351193 198.679971,62.5535629 202.773619,60.0400884 Z M240.684561,39.3017346 C242.460302,38.4430825 244.5959,39.1865304 245.454552,40.9622719 C246.313205,42.7380134 245.569757,44.8736114 243.794015,45.7322635 C239.543227,47.7877135 235.327573,49.9139572 231.14869,52.1099891 C229.402656,53.0275426 227.243391,52.3559258 226.325837,50.6098912 C225.408284,48.8638565 226.079901,46.7045917 227.825935,45.7870382 C232.075281,43.5539774 236.362045,41.3918682 240.684561,39.3017346 Z M280.525183,22.454988 C282.378281,21.7792878 284.428277,22.733757 285.103977,24.5868545 C285.779677,26.4399521 284.825208,28.4899477 282.97211,29.165648 C278.5333,30.7841841 274.123395,32.4766774 269.743995,34.242297 C267.914629,34.979833 265.833743,34.0947296 265.096207,32.265363 C264.358671,30.4359965 265.243774,28.3551108 267.073141,27.6175747 C271.526661,25.8220727 276.011217,24.1009283 280.525183,22.454988 Z M321.831301,9.71253385 C323.743011,9.22682971 325.686498,10.3828354 326.172203,12.2945448 C326.657907,14.2062542 325.501901,16.1497419 323.590192,16.635446 C319.00975,17.7991896 314.452119,19.0390725 309.918814,20.354433 C308.024499,20.904078 306.043277,19.814007 305.493632,17.9196914 C304.943987,16.0253757 306.034058,14.0441542 307.928374,13.4945092 C312.538468,12.1568676 317.173293,10.8959845 321.831301,9.71253385 Z M364.189045,1.19246286 C366.139844,0.901048905 367.957518,2.2462468 368.248932,4.19704645 C368.540346,6.14784611 367.195148,7.96551938 365.244348,8.25693334 C360.569619,8.95525282 355.911895,9.73088004 351.272582,10.5833076 C349.332612,10.9397578 347.470995,9.65606118 347.114545,7.71609091 C346.758095,5.77612064 348.041791,3.91450403 349.981762,3.55805382 C354.69933,2.69124772 359.435569,1.90254555 364.189045,1.19246286 Z M407.194432,-3.05184321 C409.164541,-3.14782701 410.83944,-1.62854856 410.935423,0.341560193 C411.031407,2.31166895 409.512129,3.98656789 407.54202,4.0825517 C402.817136,4.31274829 398.103895,4.62051538 393.403568,5.00547836 C391.437705,5.16648517 389.713536,3.70335997 389.55253,1.73749675 C389.391523,-0.228366468 390.854648,-1.95253529 392.820511,-2.11354211 C397.599224,-2.50492505 402.390966,-2.81781809 407.194432,-3.05184321 Z"></path>
                <g transform="translate(28.571429, 28.571429)" id="路径-37-+-路径-38-蒙版">
                    <mask fill="white" id="mask-3">
                        <use xlink:href="#path-2"></use>
                    </mask>
                    <use xlink:href="#path-2" fill="url(#linearGradient-1)" id="蒙版"></use>
                </g>
                <circle r="14.2857143" cy="57.1428571" cx="728.571429" opacity="0.6" fill="#EDF0F5" id="椭圆形"></circle>
                <path fill="#EDF0F5" fill-opacity="0.6" id="形状结合" d="M800,78.5714286 C803.944891,78.5714286 807.142857,81.7693946 807.142857,85.7142857 L807.142571,99.9994286 L821.428571,100 C825.373462,100 828.571429,103.197966 828.571429,107.142857 C828.571429,111.087748 825.373462,114.285714 821.428571,114.285714 L807.142571,114.285429 L807.142857,128.571429 C807.142857,132.51632 803.944891,135.714286 800,135.714286 C796.055109,135.714286 792.857143,132.51632 792.857143,128.571429 L792.856571,114.285429 L778.571429,114.285714 C774.626538,114.285714 771.428571,111.087748 771.428571,107.142857 C771.428571,103.197966 774.626538,100 778.571429,100 L792.856571,99.9994286 L792.857143,85.7142857 C792.857143,81.7693946 796.055109,78.5714286 800,78.5714286 Z"></path>
                <path fill="#EDF0F5" fill-opacity="0.6" id="形状结合备份-3" d="M57.1428571,78.5714286 C61.0877482,78.5714286 64.2857143,81.7693946 64.2857143,85.7142857 L64.2854286,99.9994286 L78.5714286,100 C82.5163196,100 85.7142857,103.197966 85.7142857,107.142857 C85.7142857,111.087748 82.5163196,114.285714 78.5714286,114.285714 L64.2854286,114.285429 L64.2857143,128.571429 C64.2857143,132.51632 61.0877482,135.714286 57.1428571,135.714286 C53.1979661,135.714286 50,132.51632 50,128.571429 L49.9994286,114.285429 L35.7142857,114.285714 C31.7693946,114.285714 28.5714286,111.087748 28.5714286,107.142857 C28.5714286,103.197966 31.7693946,100 35.7142857,100 L49.9994286,99.9994286 L50,85.7142857 C50,81.7693946 53.1979661,78.5714286 57.1428571,78.5714286 Z"></path>
                <circle r="14.2857143" cy="57.1428571" cx="128.571429" opacity="0.6" fill="#EDF0F5" id="椭圆形备份-48"></circle>
            </g>
            <path fill="url(#linearGradient-4)" id="形状" d="M657.479784,792.857143 C582.818316,792.857143 522.102426,732.148071 522.102426,657.494987 L522.102426,522.198604 L657.479784,522.198604 C732.141253,522.198604 792.857143,582.907676 792.857143,657.56076 C792.857143,732.148071 732.141253,792.857143 657.479784,792.857143 Z M342.520216,792.857143 C267.858747,792.857143 207.142857,732.148071 207.142857,657.494987 C207.142857,582.841903 267.858747,522.132831 342.454435,522.132831 L477.831846,522.132831 L477.831846,657.494987 C477.897574,732.148071 417.181684,792.857143 342.520216,792.857143 Z M522.102426,477.867169 L522.102426,342.570787 C522.102426,267.917703 582.818316,207.208631 657.479784,207.208631 C732.141253,207.208631 792.857143,267.917703 792.857143,342.570787 C792.857143,378.74629 778.780003,412.68549 753.191182,438.271437 C727.602362,463.857383 693.659351,477.932943 657.479784,477.932943 L522.102426,477.932943 L522.102426,477.867169 Z M342.520216,477.867169 C306.40643,477.867169 272.397638,463.79161 246.808818,438.205663 C221.219997,412.619716 207.142857,378.680517 207.142857,342.505013 C207.142857,267.851929 267.858747,207.142857 342.520216,207.142857 C417.181684,207.142857 477.897574,267.851929 477.897574,342.505013 L477.897574,477.867169 L342.520216,477.867169 Z"></path>
            <rect rx="164.285714" height="328.571429" width="614.285714" y="335.714286" x="192.857143" fill="url(#linearGradient-5)" id="矩形"></rect>
            <path fill-rule="nonzero" fill="#0F5EFF" id="路径-6" d="M789.285714,503.59375 L796.428571,503.59375 C798.401017,503.59375 800,501.994767 800,500.022321 C800,498.049876 798.401017,496.450893 796.428571,496.450893 L789.285714,496.450893 C787.313269,496.450893 785.714286,498.049876 785.714286,500.022321 C785.714286,501.994767 787.313269,503.59375 789.285714,503.59375 Z M817.857143,503.59375 L825,503.59375 C826.972446,503.59375 828.571429,501.994767 828.571429,500.022321 C828.571429,498.049876 826.972446,496.450893 825,496.450893 L817.857143,496.450893 C815.884698,496.450893 814.285714,498.049876 814.285714,500.022321 C814.285714,501.994767 815.884698,503.59375 817.857143,503.59375 Z M847.984426,499.432369 C850.297251,497.497561 852.090927,495.004953 853.184035,492.171379 C853.893951,490.331118 852.977627,488.263791 851.137366,487.553874 C849.297106,486.843957 847.229778,487.760282 846.519861,489.600542 C845.864992,491.298107 844.789944,492.792062 843.401267,493.953769 C841.888394,495.219373 841.687942,497.471775 842.953547,498.984648 C844.219151,500.497522 846.471552,500.697974 847.984426,499.432369 Z M858.072423,481.865764 C858.112603,481.943812 858.144793,482.02613 858.168529,482.112149 L859.799429,488.022557 C860.324091,489.923943 862.290793,491.039998 864.192179,490.515336 C866.093566,489.990673 867.209621,488.023971 866.684958,486.122585 L865.054058,480.212177 C864.899347,479.6515 864.687735,479.110353 864.423115,478.596342 C863.520289,476.842647 861.366753,476.152881 859.613058,477.055707 C857.859363,477.958533 857.169597,480.112069 858.072423,481.865764 Z M865.66267,508.977608 C866.744636,511.831257 868.525239,514.327568 870.826778,516.270039 C872.334125,517.542221 874.587378,517.351582 875.85956,515.844235 C877.131742,514.336888 876.941103,512.083635 875.433757,510.811453 C874.145949,509.724559 873.133136,508.352552 872.476745,506.784312 L872.341575,506.445289 C871.642295,504.600961 869.580293,503.672716 867.735964,504.371996 C865.891635,505.071276 864.96339,507.133279 865.66267,508.977608 Z M895.050252,515.254268 L899.300527,511.552725 C900.787965,510.257322 900.943641,508.001384 899.648238,506.513945 C898.352835,505.026507 896.096897,504.870831 894.609458,506.166234 L890.359184,509.867777 C888.871745,511.16318 888.71607,513.419118 890.011472,514.906557 C891.306875,516.393995 893.562814,516.549671 895.050252,515.254268 Z"></path>
            <path transform="translate(157.406094, 504.028421) scale(-1, -1) translate(-157.406094, -504.028421)" fill-rule="nonzero" fill="#FD3737" id="路径-6备份-2" d="M103.571429,510.736607 L110.714286,510.736607 C112.686731,510.736607 114.285714,509.137624 114.285714,507.165178 C114.285714,505.192733 112.686731,503.59375 110.714286,503.59375 L103.571429,503.59375 C101.598983,503.59375 100,505.192733 100,507.165178 C100,509.137624 101.598983,510.736607 103.571429,510.736607 Z M132.142857,510.736607 L139.285714,510.736607 C141.25816,510.736607 142.857143,509.137624 142.857143,507.165178 C142.857143,505.192733 141.25816,503.59375 139.285714,503.59375 L132.142857,503.59375 C130.170412,503.59375 128.571429,505.192733 128.571429,507.165178 C128.571429,509.137624 130.170412,510.736607 132.142857,510.736607 Z M162.270141,506.575226 C164.582965,504.640418 166.376641,502.147811 167.469749,499.314236 C168.179666,497.473976 167.263341,495.406648 165.423081,494.696731 C163.58282,493.986814 161.515492,494.903139 160.805575,496.743399 C160.150706,498.440964 159.075658,499.93492 157.686982,501.096626 C156.174108,502.36223 155.973657,504.614632 157.239261,506.127506 C158.504865,507.640379 160.757267,507.840831 162.270141,506.575226 Z M172.358137,489.008621 C172.398317,489.086669 172.430507,489.168987 172.454243,489.255006 L174.085143,495.165414 C174.609806,497.0668 176.576507,498.182855 178.477893,497.658193 C180.37928,497.13353 181.495335,495.166829 180.970672,493.265442 L179.339773,487.355035 C179.185061,486.794357 178.973449,486.25321 178.708829,485.739199 C177.806003,483.985504 175.652467,483.295738 173.898772,484.198564 C172.145077,485.10139 171.455311,487.254926 172.358137,489.008621 Z M179.948385,516.120465 C181.03035,518.974114 182.810953,521.470425 185.112492,523.412896 C186.619839,524.685078 188.873092,524.494439 190.145274,522.987092 C191.417456,521.479746 191.226818,519.226492 189.719471,517.95431 C188.339677,516.789781 187.275566,515.297953 186.62729,513.588147 C185.928009,511.743818 183.866007,510.815573 182.021678,511.514853 C180.177349,512.214133 179.249104,514.276136 179.948385,516.120465 Z M209.335966,522.397125 L213.586241,518.695582 C215.073679,517.400179 215.229355,515.144241 213.933952,513.656802 C212.63855,512.169364 210.382611,512.013688 208.895173,513.309091 L204.644898,517.010634 C203.157459,518.306037 203.001784,520.561975 204.297187,522.049414 C205.592589,523.536852 207.848528,523.692528 209.335966,522.397125 Z"></path>
            <path transform="translate(767.857143, 500.000000) rotate(-90.000000) translate(-767.857143, -500.000000)" fill="url(#linearGradient-6)" id="矩形" d="M719.642857,478.571429 L816.071429,478.571429 L808.73868,507.902422 C806.751328,515.851833 799.608772,521.428571 791.414707,521.428571 L744.299579,521.428571 C736.105514,521.428571 728.962958,515.851833 726.975605,507.902422 L719.642857,478.571429 L719.642857,478.571429 Z"></path>
            <path transform="translate(232.142857, 500.000000) scale(-1, 1) rotate(-90.000000) translate(-232.142857, -500.000000)" fill="url(#linearGradient-6)" id="矩形备份-37" d="M183.928571,478.571429 L280.357143,478.571429 L273.024395,507.902422 C271.037042,515.851833 263.894486,521.428571 255.700421,521.428571 L208.585293,521.428571 C200.391228,521.428571 193.248672,515.851833 191.26132,507.902422 L183.928571,478.571429 L183.928571,478.571429 Z"></path>
            <g id="椭圆形">
                <use xlink:href="#path-8" filter="url(#filter-9)" fill-opacity="1" fill="black"></use>
                <use xlink:href="#path-8" fill-rule="evenodd" fill="url(#linearGradient-7)"></use>
            </g>
            <path fill-rule="nonzero" fill="url(#linearGradient-10)" id="形状" d="M292.857143,492.857143 C296.802034,492.857143 300,496.055109 300,500 C300,609.35238 387.761143,698.207048 496.692634,699.973206 L500,700 C503.944891,700 507.142857,703.197966 507.142857,707.142857 C507.142857,711.087748 503.944891,714.285714 500,714.285714 C381.653268,714.285714 285.714286,618.346732 285.714286,500 C285.714286,496.055109 288.912252,492.857143 292.857143,492.857143 Z M500,285.714286 C618.346732,285.714286 714.285714,381.653268 714.285714,500 C714.285714,503.944891 711.087748,507.142857 707.142857,507.142857 C703.278474,507.142857 700.13084,504.074088 700.003975,500.24057 L700,500 C700,389.54305 610.45695,300 500,300 C496.055109,300 492.857143,296.802034 492.857143,292.857143 C492.857143,288.912252 496.055109,285.714286 500,285.714286 Z"></path>
            <path transform="translate(499.904815, 499.190684) rotate(90.000000) translate(-499.904815, -499.190684)" stroke-linecap="round" stroke-width="14.2857143" stroke="url(#linearGradient-11)" id="形状" d="M703.392249,456.115537 C686.043748,373.898966 619.933032,309.660639 536.732638,295.073094 M296.417382,533.512238 C310.909584,620.173696 379.207563,688.60982 465.798983,703.308274"></path>
            <path fill-rule="nonzero" fill="#FF3959" id="形状" d="M621.428571,492.857143 C625.373462,492.857143 628.571429,496.055109 628.571429,500 C628.571429,571.008039 571.008039,628.571429 500,628.571429 C496.055109,628.571429 492.857143,625.373462 492.857143,621.428571 C492.857143,617.48368 496.055109,614.285714 500,614.285714 C563.118257,614.285714 614.285714,563.118257 614.285714,500 C614.285714,496.055109 617.48368,492.857143 621.428571,492.857143 Z M500,371.428571 C503.944891,371.428571 507.142857,374.626538 507.142857,378.571429 C507.142857,382.51632 503.944891,385.714286 500,385.714286 C436.881743,385.714286 385.714286,436.881743 385.714286,500 C385.714286,503.944891 382.51632,507.142857 378.571429,507.142857 C374.626538,507.142857 371.428571,503.944891 371.428571,500 C371.428571,428.991961 428.991961,371.428571 500,371.428571 Z"></path>
            <path fill="url(#linearGradient-12)" id="形状结合" d="M547.974414,392.857143 C580.652243,392.857143 607.142857,419.347757 607.142857,452.025586 C607.142857,484.703415 580.652243,511.19403 547.974414,511.19403 C541.792122,511.19403 536.780384,506.182292 536.780384,500 C536.780384,494.126823 541.303477,489.31007 547.056329,488.843078 L547.974414,488.80597 C568.287659,488.80597 584.754797,472.338831 584.754797,452.025586 C584.754797,431.712341 568.287659,415.245203 547.974414,415.245203 C528.13357,415.245203 511.962023,430.955334 511.220589,450.614782 L511.19403,452.025586 L511.19403,549.201191 C511.19403,549.523867 511.180377,549.843354 511.153618,550.159106 C510.005265,581.824642 483.972119,607.142857 452.025586,607.142857 C419.347757,607.142857 392.857143,580.652243 392.857143,547.974414 C392.857143,515.296585 419.347757,488.80597 452.025586,488.80597 C458.207878,488.80597 463.219616,493.817708 463.219616,500 C463.219616,506.182292 458.207878,511.19403 452.025586,511.19403 C431.712341,511.19403 415.245203,527.661169 415.245203,547.974414 C415.245203,568.287659 431.712341,584.754797 452.025586,584.754797 C471.86643,584.754797 488.037977,569.044666 488.779411,549.385218 L488.80597,547.974414 L488.80597,452.025586 C488.80597,419.347757 515.296585,392.857143 547.974414,392.857143 Z"></path>
        </g>
    </g>
</svg>